M48
; DRILL file {KiCad 9.0.4} date 2025-10-29T20:44:30-0500
; FORMAT={-:-/ absolute / metric / decimal}
; #@! TF.CreationDate,2025-10-29T20:44:30-05:00
; #@! TF.GenerationSoftware,Kicad,Pcbnew,9.0.4
; #@! TF.FileFunction,Plated,1,2,PTH
FMAT,2
METRIC
; #@! TA.AperFunction,Plated,PTH,ViaDrill
T1C0.300
; #@! TA.AperFunction,Plated,PTH,ComponentDrill
T2C0.500
; #@! TA.AperFunction,Plated,PTH,ComponentDrill
T3C0.550
; #@! TA.AperFunction,Plated,PTH,ComponentDrill
T4C0.800
; #@! TA.AperFunction,Plated,PTH,ComponentDrill
T5C1.000
; #@! TA.AperFunction,Plated,PTH,ComponentDrill
T6C1.020
; #@! TA.AperFunction,Plated,PTH,ComponentDrill
T7C1.600
%
G90
G05
T1
X109.8Y-53.8
X110.4Y-63.35
X111.4Y-52.3
X111.8Y-46.0
X112.125Y-74.625
X113.0Y-52.85
X114.575Y-59.425
X114.75Y-72.5
X116.112Y-75.95
X116.25Y-74.0
X116.98Y-67.0
X117.1Y-60.137
X117.1Y-63.262
X117.6Y-37.95
X117.7Y-49.65
X118.25Y-71.95
X118.387Y-75.0
X118.387Y-75.95
X118.5Y-74.05
X119.6Y-60.137
X119.92Y-43.54
X119.92Y-46.08
X120.225Y-78.15
X121.0Y-61.8
X121.666Y-56.0
X121.825Y-52.7
X122.0Y-54.0
X122.2Y-58.6
X122.2Y-63.262
X122.46Y-43.54
X122.46Y-46.08
X122.5Y-77.2
X122.5Y-78.15
X122.875Y-74.5
X123.5Y-83.0
X123.8Y-39.2
X123.805Y-48.975
X124.14Y-56.104
X124.2Y-61.4
X124.34Y-63.66
X124.8Y-45.8
X125.0Y-41.0
X125.0Y-43.54
X125.6Y-60.8
X125.662Y-76.5
X125.662Y-79.5
X125.75Y-78.0
X125.8Y-82.77
X125.8Y-84.04
X126.0Y-74.25
X126.45Y-68.2
X127.75Y-76.5
X128.4Y-57.8
X128.4Y-60.8
X128.75Y-77.75
X128.8Y-70.45
X129.5Y-89.662
X129.794Y-59.4
X130.25Y-92.5
X130.5Y-88.0
X130.595Y-37.375
X130.75Y-81.5
X131.0Y-71.175
X131.2Y-68.4
X131.22Y-79.45
X131.5Y-88.5
X131.749Y-69.2
X131.865Y-37.375
X132.3Y-58.3
X132.387Y-70.379
X132.75Y-88.0
X132.8Y-84.588
X133.0Y-69.865
X133.135Y-37.375
X133.2Y-58.0
X133.2Y-60.8
X133.25Y-79.0
X133.4Y-63.4
X133.4Y-66.8
X133.9Y-92.15
X134.25Y-94.0
X134.6Y-66.8
X135.0Y-61.6
X135.128Y-74.93
X135.25Y-90.75
X135.7Y-66.8
X135.75Y-89.5
X136.323Y-64.513
X136.8Y-61.8
X137.5Y-83.0
X137.625Y-94.0
X137.8Y-59.963
X138.2Y-77.73
X139.06Y-61.86
X139.1Y-51.1
X139.18Y-74.95
X139.25Y-71.75
X139.6Y-66.0
X140.1Y-48.1
X140.5Y-77.5
X140.6Y-79.2
X141.7Y-49.4
X142.5Y-51.2
X142.762Y-63.4
X142.762Y-65.8
X143.013Y-59.85
X143.5Y-53.6
T4
X113.818Y-45.6
X116.318Y-45.6
X138.282Y-44.7
X140.782Y-44.7
T5
X121.25Y-92.5
X124.0Y-87.75
X142.8Y-69.24
X142.8Y-71.78
X142.8Y-74.32
X142.8Y-76.86
X142.8Y-79.4
X142.8Y-81.94
X142.8Y-84.48
X142.8Y-87.02
X142.8Y-89.56
T6
X117.785Y-83.0
X117.785Y-86.0
X117.785Y-89.0
X120.785Y-83.0
X120.785Y-86.0
X120.785Y-89.0
T7
X127.233Y-32.85
X127.233Y-37.65
X127.233Y-42.45
X127.233Y-47.25
T2
G00X124.6Y-93.909
M15
G01X124.6Y-94.559
M16
G05
G00X131.6Y-93.909
M15
G01X131.6Y-94.559
M16
G05
T3
G00X125.45Y-91.534
M15
G01X125.75Y-91.534
M16
G05
G00X130.45Y-91.534
M15
G01X130.75Y-91.534
M16
G05
M30
