%TF.GenerationSoftware,KiCad,Pcbnew,9.0.4*%
%TF.CreationDate,2025-10-29T20:44:18-05:00*%
%TF.ProjectId,FWS_20A,4657535f-3230-4412-9e6b-696361645f70,rev?*%
%TF.SameCoordinates,Original*%
%TF.FileFunction,Soldermask,Top*%
%TF.FilePolarity,Negative*%
%FSLAX46Y46*%
G04 Gerber Fmt 4.6, Leading zero omitted, Abs format (unit mm)*
G04 Created by KiCad (PCBNEW 9.0.4) date 2025-10-29 20:44:18*
%MOMM*%
%LPD*%
G01*
G04 APERTURE LIST*
G04 Aperture macros list*
%AMRoundRect*
0 Rectangle with rounded corners*
0 $1 Rounding radius*
0 $2 $3 $4 $5 $6 $7 $8 $9 X,Y pos of 4 corners*
0 Add a 4 corners polygon primitive as box body*
4,1,4,$2,$3,$4,$5,$6,$7,$8,$9,$2,$3,0*
0 Add four circle primitives for the rounded corners*
1,1,$1+$1,$2,$3*
1,1,$1+$1,$4,$5*
1,1,$1+$1,$6,$7*
1,1,$1+$1,$8,$9*
0 Add four rect primitives between the rounded corners*
20,1,$1+$1,$2,$3,$4,$5,0*
20,1,$1+$1,$4,$5,$6,$7,0*
20,1,$1+$1,$6,$7,$8,$9,0*
20,1,$1+$1,$8,$9,$2,$3,0*%
%AMRotRect*
0 Rectangle, with rotation*
0 The origin of the aperture is its center*
0 $1 length*
0 $2 width*
0 $3 Rotation angle, in degrees counterclockwise*
0 Add horizontal line*
21,1,$1,$2,0,0,$3*%
%AMFreePoly0*
4,1,9,2.100000,-2.000000,2.350000,-2.000000,2.350000,-3.500000,-2.350000,-3.500000,-2.350000,-2.000000,-2.100000,-2.000000,-2.100000,1.100000,2.100000,1.100000,2.100000,-2.000000,2.100000,-2.000000,$1*%
%AMFreePoly1*
4,1,9,3.862500,-0.866500,0.737500,-0.866500,0.737500,-0.450000,-0.737500,-0.450000,-0.737500,0.450000,0.737500,0.450000,0.737500,0.866500,3.862500,0.866500,3.862500,-0.866500,3.862500,-0.866500,$1*%
G04 Aperture macros list end*
%ADD10RoundRect,0.175000X0.175000X0.400000X-0.175000X0.400000X-0.175000X-0.400000X0.175000X-0.400000X0*%
%ADD11FreePoly0,180.000000*%
%ADD12RoundRect,0.250000X-0.650000X0.412500X-0.650000X-0.412500X0.650000X-0.412500X0.650000X0.412500X0*%
%ADD13RoundRect,0.268750X0.268750X-0.406250X0.268750X0.406250X-0.268750X0.406250X-0.268750X-0.406250X0*%
%ADD14RoundRect,0.212500X0.362500X-0.212500X0.362500X0.212500X-0.362500X0.212500X-0.362500X-0.212500X0*%
%ADD15RoundRect,0.200000X0.275000X-0.200000X0.275000X0.200000X-0.275000X0.200000X-0.275000X-0.200000X0*%
%ADD16RoundRect,0.250000X-1.050000X1.050000X-1.050000X-1.050000X1.050000X-1.050000X1.050000X1.050000X0*%
%ADD17C,2.600000*%
%ADD18RoundRect,0.250000X0.650000X-0.412500X0.650000X0.412500X-0.650000X0.412500X-0.650000X-0.412500X0*%
%ADD19RoundRect,0.150000X-0.512500X-0.150000X0.512500X-0.150000X0.512500X0.150000X-0.512500X0.150000X0*%
%ADD20RoundRect,0.268750X-0.268750X0.406250X-0.268750X-0.406250X0.268750X-0.406250X0.268750X0.406250X0*%
%ADD21RoundRect,0.212500X-0.362500X0.212500X-0.362500X-0.212500X0.362500X-0.212500X0.362500X0.212500X0*%
%ADD22RoundRect,0.250000X-0.400000X-0.625000X0.400000X-0.625000X0.400000X0.625000X-0.400000X0.625000X0*%
%ADD23RoundRect,0.218750X-0.256250X0.218750X-0.256250X-0.218750X0.256250X-0.218750X0.256250X0.218750X0*%
%ADD24RoundRect,0.250000X-0.412500X-0.650000X0.412500X-0.650000X0.412500X0.650000X-0.412500X0.650000X0*%
%ADD25C,3.000000*%
%ADD26RoundRect,0.250001X0.499999X-0.499999X0.499999X0.499999X-0.499999X0.499999X-0.499999X-0.499999X0*%
%ADD27C,1.500000*%
%ADD28RoundRect,0.100000X0.225000X0.100000X-0.225000X0.100000X-0.225000X-0.100000X0.225000X-0.100000X0*%
%ADD29RoundRect,0.100000X-0.100000X-0.575000X0.100000X-0.575000X0.100000X0.575000X-0.100000X0.575000X0*%
%ADD30O,0.890000X1.550000*%
%ADD31RoundRect,0.250000X-0.475000X-0.525000X0.475000X-0.525000X0.475000X0.525000X-0.475000X0.525000X0*%
%ADD32O,1.250000X0.950000*%
%ADD33RoundRect,0.250000X-0.500000X-0.525000X0.500000X-0.525000X0.500000X0.525000X-0.500000X0.525000X0*%
%ADD34RoundRect,0.100000X-0.225000X-0.100000X0.225000X-0.100000X0.225000X0.100000X-0.225000X0.100000X0*%
%ADD35RoundRect,0.250000X0.625000X-0.400000X0.625000X0.400000X-0.625000X0.400000X-0.625000X-0.400000X0*%
%ADD36RoundRect,0.218750X0.256250X-0.218750X0.256250X0.218750X-0.256250X0.218750X-0.256250X-0.218750X0*%
%ADD37RoundRect,0.250000X-0.247487X-1.166726X1.166726X0.247487X0.247487X1.166726X-1.166726X-0.247487X0*%
%ADD38RoundRect,0.200000X0.200000X0.800000X-0.200000X0.800000X-0.200000X-0.800000X0.200000X-0.800000X0*%
%ADD39RoundRect,0.075000X0.075000X-0.362500X0.075000X0.362500X-0.075000X0.362500X-0.075000X-0.362500X0*%
%ADD40R,3.000000X2.600000*%
%ADD41C,2.200000*%
%ADD42RoundRect,0.225000X0.225000X-0.425000X0.225000X0.425000X-0.225000X0.425000X-0.225000X-0.425000X0*%
%ADD43FreePoly1,90.000000*%
%ADD44RoundRect,0.250000X-0.625000X0.400000X-0.625000X-0.400000X0.625000X-0.400000X0.625000X0.400000X0*%
%ADD45C,2.000000*%
%ADD46RoundRect,0.150000X0.150000X-0.825000X0.150000X0.825000X-0.150000X0.825000X-0.150000X-0.825000X0*%
%ADD47RoundRect,0.268750X-0.406250X-0.268750X0.406250X-0.268750X0.406250X0.268750X-0.406250X0.268750X0*%
%ADD48RoundRect,0.212500X-0.212500X-0.362500X0.212500X-0.362500X0.212500X0.362500X-0.212500X0.362500X0*%
%ADD49RoundRect,0.225000X-0.425000X-0.225000X0.425000X-0.225000X0.425000X0.225000X-0.425000X0.225000X0*%
%ADD50FreePoly1,0.000000*%
%ADD51RoundRect,0.268750X0.406250X0.268750X-0.406250X0.268750X-0.406250X-0.268750X0.406250X-0.268750X0*%
%ADD52RoundRect,0.212500X0.212500X0.362500X-0.212500X0.362500X-0.212500X-0.362500X0.212500X-0.362500X0*%
%ADD53RoundRect,0.250000X0.400000X0.625000X-0.400000X0.625000X-0.400000X-0.625000X0.400000X-0.625000X0*%
%ADD54RoundRect,0.250000X0.412500X0.650000X-0.412500X0.650000X-0.412500X-0.650000X0.412500X-0.650000X0*%
%ADD55RoundRect,0.200000X-0.275000X0.200000X-0.275000X-0.200000X0.275000X-0.200000X0.275000X0.200000X0*%
%ADD56RoundRect,0.250000X0.550000X0.550000X-0.550000X0.550000X-0.550000X-0.550000X0.550000X-0.550000X0*%
%ADD57C,1.600000*%
%ADD58R,1.700000X1.700000*%
%ADD59C,1.700000*%
%ADD60RoundRect,0.075000X0.362500X0.075000X-0.362500X0.075000X-0.362500X-0.075000X0.362500X-0.075000X0*%
%ADD61R,2.600000X3.000000*%
%ADD62RoundRect,0.150000X-0.825000X-0.150000X0.825000X-0.150000X0.825000X0.150000X-0.825000X0.150000X0*%
%ADD63RoundRect,0.250000X-0.550000X-0.550000X0.550000X-0.550000X0.550000X0.550000X-0.550000X0.550000X0*%
%ADD64RotRect,0.254000X0.812800X315.000000*%
%ADD65RotRect,0.254000X0.812800X225.000000*%
%ADD66RotRect,2.540000X2.540000X225.000000*%
%ADD67RoundRect,0.225000X-0.375000X0.225000X-0.375000X-0.225000X0.375000X-0.225000X0.375000X0.225000X0*%
%ADD68R,1.200000X0.400000*%
%ADD69RoundRect,0.200000X-0.200000X-0.800000X0.200000X-0.800000X0.200000X0.800000X-0.200000X0.800000X0*%
%ADD70RoundRect,0.250000X-0.450000X0.350000X-0.450000X-0.350000X0.450000X-0.350000X0.450000X0.350000X0*%
%ADD71RoundRect,0.250000X-0.525000X-0.400000X0.525000X-0.400000X0.525000X0.400000X-0.525000X0.400000X0*%
G04 APERTURE END LIST*
D10*
%TO.C,U7*%
X119995000Y-37375000D03*
X121264999Y-37375000D03*
X122535000Y-37375000D03*
X123804999Y-37375000D03*
D11*
X121900002Y-34650001D03*
%TD*%
D12*
%TO.C,C15*%
X139000000Y-68437500D03*
X139000000Y-71562500D03*
%TD*%
%TO.C,C5*%
X122200000Y-60137500D03*
X122200000Y-63262500D03*
%TD*%
D13*
%TO.C,D9*%
X115300000Y-40600000D03*
D14*
X115300000Y-38675000D03*
%TD*%
D15*
%TO.C,R21*%
X131000000Y-72825000D03*
X131000000Y-71175000D03*
%TD*%
D16*
%TO.C,J1*%
X127232592Y-32849748D03*
D17*
X127232592Y-37649749D03*
X127232592Y-42449748D03*
X127232592Y-47249748D03*
%TD*%
D18*
%TO.C,C11*%
X114750000Y-72562500D03*
X114750000Y-69437500D03*
%TD*%
D19*
%TO.C,U9*%
X120225000Y-76250000D03*
X120225000Y-77200000D03*
X120225000Y-78150000D03*
X122500000Y-78150000D03*
X122500000Y-77200000D03*
X122500000Y-76250000D03*
%TD*%
D20*
%TO.C,D8*%
X110700000Y-47800000D03*
D21*
X110700000Y-49725000D03*
%TD*%
D22*
%TO.C,R15*%
X126449999Y-68200000D03*
X129550001Y-68200000D03*
%TD*%
D12*
%TO.C,C14*%
X117100000Y-60137500D03*
X117100000Y-63262500D03*
%TD*%
D23*
%TO.C,D13*%
X125600000Y-56012499D03*
X125600000Y-57587501D03*
%TD*%
D24*
%TO.C,C8*%
X139637500Y-63400000D03*
X142762500Y-63400000D03*
%TD*%
D13*
%TO.C,D4*%
X139100000Y-39400000D03*
D14*
X139100000Y-37475000D03*
%TD*%
D25*
%TO.C,J5*%
X113465000Y-86000000D03*
D26*
X117785000Y-89000000D03*
D27*
X117785000Y-86000000D03*
X117785000Y-83000000D03*
X120785000Y-89000000D03*
X120785000Y-86000000D03*
X120785000Y-83000000D03*
%TD*%
D18*
%TO.C,C3*%
X137800000Y-59962501D03*
X137800000Y-56837499D03*
%TD*%
D28*
%TO.C,Q6*%
X135950000Y-62250000D03*
X135949999Y-61600000D03*
X135950000Y-60950000D03*
X134050000Y-60950000D03*
X134050000Y-62250000D03*
%TD*%
D29*
%TO.C,J16*%
X126800000Y-91534000D03*
X127450000Y-91534000D03*
X128100000Y-91534000D03*
X128750000Y-91534000D03*
X129400000Y-91534000D03*
D30*
X124600000Y-94234000D03*
D31*
X125075000Y-94234000D03*
D32*
X125600000Y-91534000D03*
D33*
X127100000Y-94234000D03*
X129100000Y-94234000D03*
D32*
X130600000Y-91534000D03*
D31*
X131125000Y-94234000D03*
D30*
X131600000Y-94234000D03*
%TD*%
D12*
%TO.C,C1*%
X110500000Y-65125000D03*
X110500000Y-68250000D03*
%TD*%
D34*
%TO.C,Q1*%
X122240000Y-56104000D03*
X122240000Y-56754000D03*
X122240000Y-57404000D03*
X124140000Y-57404000D03*
X124140000Y-56104000D03*
%TD*%
D35*
%TO.C,R12*%
X124200000Y-69750001D03*
X124200000Y-66649999D03*
%TD*%
D36*
%TO.C,D18*%
X131400000Y-62587501D03*
X131400000Y-61012499D03*
%TD*%
D10*
%TO.C,U8*%
X119995000Y-48975000D03*
X121264999Y-48975000D03*
X122535000Y-48975000D03*
X123804999Y-48975000D03*
D11*
X121900002Y-46250001D03*
%TD*%
D37*
%TO.C,D3*%
X113785786Y-35514214D03*
X116614214Y-32685786D03*
%TD*%
D38*
%TO.C,SW1*%
X133600000Y-52000000D03*
X129400000Y-52000000D03*
%TD*%
D39*
%TO.C,U4*%
X140099998Y-57825002D03*
X140900000Y-57825000D03*
X141700000Y-57825000D03*
X142500002Y-57825002D03*
X142500002Y-53949998D03*
X141700000Y-53950000D03*
X140900000Y-53950000D03*
X140099998Y-53949998D03*
D40*
X141300000Y-55887500D03*
%TD*%
D41*
%TO.C,H3*%
X143002000Y-31496000D03*
%TD*%
D42*
%TO.C,U11*%
X110300000Y-58150000D03*
D43*
X111800000Y-58062499D03*
D42*
X113300000Y-58150000D03*
%TD*%
D44*
%TO.C,R8*%
X117700000Y-49649999D03*
X117700000Y-52750001D03*
%TD*%
D45*
%TO.C,TP1*%
X124000000Y-87750000D03*
%TD*%
D46*
%TO.C,U6*%
X116980000Y-71950000D03*
X118250000Y-71950000D03*
X119520000Y-71950000D03*
X120790000Y-71950000D03*
X120790000Y-67000000D03*
X119520000Y-67000000D03*
X118250000Y-67000000D03*
X116980000Y-67000000D03*
%TD*%
D47*
%TO.C,D10*%
X119900000Y-52700000D03*
D48*
X121825000Y-52700000D03*
%TD*%
D44*
%TO.C,R2*%
X135200000Y-56049999D03*
X135200000Y-59150001D03*
%TD*%
D49*
%TO.C,U12*%
X125662500Y-76502000D03*
D50*
X125750000Y-78002000D03*
D49*
X125662500Y-79502000D03*
%TD*%
D51*
%TO.C,D2*%
X137732501Y-54062500D03*
D52*
X135807501Y-54062500D03*
%TD*%
D53*
%TO.C,R14*%
X129550001Y-65800000D03*
X126449999Y-65800000D03*
%TD*%
D35*
%TO.C,R7*%
X117600000Y-41050001D03*
X117600000Y-37949999D03*
%TD*%
D54*
%TO.C,C9*%
X142762500Y-65800000D03*
X139637500Y-65800000D03*
%TD*%
D55*
%TO.C,R16*%
X127200000Y-56975000D03*
X127200000Y-58625000D03*
%TD*%
D36*
%TO.C,D14*%
X137600000Y-83075002D03*
X137600000Y-81500000D03*
%TD*%
D44*
%TO.C,R20*%
X128800000Y-70449999D03*
X128800000Y-73550001D03*
%TD*%
D56*
%TO.C,C2*%
X140782381Y-44700000D03*
D57*
X138282381Y-44700000D03*
%TD*%
D58*
%TO.C,J3*%
X142800000Y-89560000D03*
D59*
X142800000Y-87020000D03*
X142800000Y-84480001D03*
X142800000Y-81940000D03*
X142800000Y-79400000D03*
X142800000Y-76860000D03*
X142800000Y-74320000D03*
X142800000Y-71779999D03*
X142800000Y-69240000D03*
%TD*%
D36*
%TO.C,D19*%
X131400000Y-57587501D03*
X131400000Y-56012499D03*
%TD*%
D55*
%TO.C,R9*%
X129800000Y-56975000D03*
X129800000Y-58625000D03*
%TD*%
D60*
%TO.C,U5*%
X120737500Y-57200001D03*
X120737500Y-56400000D03*
X120737500Y-55600000D03*
X120737500Y-54799999D03*
X116862500Y-54799999D03*
X116862500Y-55600000D03*
X116862500Y-56400000D03*
X116862500Y-57200001D03*
D61*
X118800000Y-56000000D03*
%TD*%
D53*
%TO.C,R19*%
X135950001Y-72200000D03*
X132849999Y-72200000D03*
%TD*%
D10*
%TO.C,U2*%
X131865000Y-37375001D03*
X130595000Y-37375000D03*
X133135000Y-37375000D03*
X134405000Y-37375000D03*
D11*
X132500000Y-34650000D03*
%TD*%
D62*
%TO.C,U18*%
X125800000Y-81500000D03*
X125800000Y-82770000D03*
X125800000Y-84040000D03*
X125800000Y-85310000D03*
X130750000Y-85310000D03*
X130750000Y-84040000D03*
X130750000Y-82770000D03*
X130750000Y-81500000D03*
%TD*%
D63*
%TO.C,C7*%
X113817620Y-45600000D03*
D57*
X116317620Y-45600000D03*
%TD*%
D64*
%TO.C,U1*%
X136857863Y-66309904D03*
X136504310Y-65956352D03*
X136150756Y-65602798D03*
X135797202Y-65249244D03*
X135443648Y-64895690D03*
X135090096Y-64542137D03*
D65*
X134109904Y-64542137D03*
X133756352Y-64895690D03*
X133402798Y-65249244D03*
X133049244Y-65602798D03*
X132695690Y-65956352D03*
X132342137Y-66309904D03*
D64*
X132342137Y-67290096D03*
X132695690Y-67643648D03*
X133049244Y-67997202D03*
X133402798Y-68350756D03*
X133756352Y-68704310D03*
X134109904Y-69057863D03*
D65*
X135090096Y-69057863D03*
X135443648Y-68704310D03*
X135797202Y-68350756D03*
X136150756Y-67997202D03*
X136504310Y-67643648D03*
X136857863Y-67290096D03*
D66*
X134600000Y-66800000D03*
%TD*%
D35*
%TO.C,R3*%
X136862500Y-40517501D03*
X136862500Y-37417499D03*
%TD*%
D10*
%TO.C,U3*%
X131865000Y-48775001D03*
X130595000Y-48775000D03*
X133135000Y-48775000D03*
X134405000Y-48775000D03*
D11*
X132500000Y-46050000D03*
%TD*%
D44*
%TO.C,R6*%
X112900000Y-49749999D03*
X112900000Y-52850001D03*
%TD*%
D67*
%TO.C,D1*%
X110400000Y-60050000D03*
X110400000Y-63350000D03*
%TD*%
D36*
%TO.C,D16*%
X135000000Y-83075002D03*
X135000000Y-81500000D03*
%TD*%
D24*
%TO.C,C4*%
X139887499Y-59850000D03*
X143012501Y-59850000D03*
%TD*%
D15*
%TO.C,R13*%
X129800000Y-61825000D03*
X129800000Y-60175000D03*
%TD*%
D45*
%TO.C,TP2*%
X121250000Y-92500000D03*
%TD*%
D13*
%TO.C,D5*%
X139100000Y-51100000D03*
D14*
X139100000Y-49175000D03*
%TD*%
D68*
%TO.C,U17*%
X133900000Y-86777500D03*
X133900000Y-87412500D03*
X133900000Y-88047500D03*
X133900000Y-88682500D03*
X133900000Y-89317500D03*
X133900000Y-89952500D03*
X133900000Y-90587500D03*
X133900000Y-91222500D03*
X139100000Y-91222500D03*
X139100000Y-90587500D03*
X139100000Y-89952500D03*
X139100000Y-89317500D03*
X139100000Y-88682500D03*
X139100000Y-88047500D03*
X139100000Y-87412500D03*
X139100000Y-86777500D03*
%TD*%
D19*
%TO.C,U10*%
X116112500Y-74050000D03*
X116112500Y-75000000D03*
X116112500Y-75950000D03*
X118387500Y-75950000D03*
X118387500Y-75000000D03*
X118387500Y-74050000D03*
%TD*%
D44*
%TO.C,R4*%
X136700000Y-48749999D03*
X136700000Y-51850001D03*
%TD*%
D15*
%TO.C,R17*%
X127200000Y-61825000D03*
X127200000Y-60175000D03*
%TD*%
D41*
%TO.C,H2*%
X109728000Y-31496000D03*
%TD*%
D69*
%TO.C,SW3*%
X123698000Y-53594000D03*
X127898000Y-53594000D03*
%TD*%
D70*
%TO.C,R5*%
X113950000Y-61450000D03*
X113950000Y-63450000D03*
%TD*%
D71*
%TO.C,SW2*%
X131220000Y-74950000D03*
X139180000Y-74950000D03*
X131220000Y-79450000D03*
X139180000Y-79450000D03*
%TD*%
D23*
%TO.C,D12*%
X125600000Y-60812499D03*
X125600000Y-62387501D03*
%TD*%
D18*
%TO.C,C6*%
X119599999Y-63262500D03*
X119599999Y-60137500D03*
%TD*%
D54*
%TO.C,C20*%
X125984000Y-74168000D03*
X122859000Y-74168000D03*
%TD*%
M02*
