%TF.GenerationSoftware,KiCad,Pcbnew,9.0.4*%
%TF.CreationDate,2025-10-29T20:44:18-05:00*%
%TF.ProjectId,FWS_20A,4657535f-3230-4412-9e6b-696361645f70,rev?*%
%TF.SameCoordinates,Original*%
%TF.FileFunction,Copper,L2,Bot*%
%TF.FilePolarity,Positive*%
%FSLAX46Y46*%
G04 Gerber Fmt 4.6, Leading zero omitted, Abs format (unit mm)*
G04 Created by KiCad (PCBNEW 9.0.4) date 2025-10-29 20:44:18*
%MOMM*%
%LPD*%
G01*
G04 APERTURE LIST*
G04 Aperture macros list*
%AMRoundRect*
0 Rectangle with rounded corners*
0 $1 Rounding radius*
0 $2 $3 $4 $5 $6 $7 $8 $9 X,Y pos of 4 corners*
0 Add a 4 corners polygon primitive as box body*
4,1,4,$2,$3,$4,$5,$6,$7,$8,$9,$2,$3,0*
0 Add four circle primitives for the rounded corners*
1,1,$1+$1,$2,$3*
1,1,$1+$1,$4,$5*
1,1,$1+$1,$6,$7*
1,1,$1+$1,$8,$9*
0 Add four rect primitives between the rounded corners*
20,1,$1+$1,$2,$3,$4,$5,0*
20,1,$1+$1,$4,$5,$6,$7,0*
20,1,$1+$1,$6,$7,$8,$9,0*
20,1,$1+$1,$8,$9,$2,$3,0*%
G04 Aperture macros list end*
%TA.AperFunction,ComponentPad*%
%ADD10RoundRect,0.250000X-1.050000X1.050000X-1.050000X-1.050000X1.050000X-1.050000X1.050000X1.050000X0*%
%TD*%
%TA.AperFunction,ComponentPad*%
%ADD11C,2.600000*%
%TD*%
%TA.AperFunction,ComponentPad*%
%ADD12RoundRect,0.250001X0.499999X-0.499999X0.499999X0.499999X-0.499999X0.499999X-0.499999X-0.499999X0*%
%TD*%
%TA.AperFunction,ComponentPad*%
%ADD13C,1.500000*%
%TD*%
%TA.AperFunction,HeatsinkPad*%
%ADD14O,0.890000X1.550000*%
%TD*%
%TA.AperFunction,HeatsinkPad*%
%ADD15O,1.250000X0.950000*%
%TD*%
%TA.AperFunction,ComponentPad*%
%ADD16C,2.000000*%
%TD*%
%TA.AperFunction,ComponentPad*%
%ADD17RoundRect,0.250000X0.550000X0.550000X-0.550000X0.550000X-0.550000X-0.550000X0.550000X-0.550000X0*%
%TD*%
%TA.AperFunction,ComponentPad*%
%ADD18C,1.600000*%
%TD*%
%TA.AperFunction,ComponentPad*%
%ADD19R,1.700000X1.700000*%
%TD*%
%TA.AperFunction,ComponentPad*%
%ADD20C,1.700000*%
%TD*%
%TA.AperFunction,ComponentPad*%
%ADD21RoundRect,0.250000X-0.550000X-0.550000X0.550000X-0.550000X0.550000X0.550000X-0.550000X0.550000X0*%
%TD*%
%TA.AperFunction,SMDPad,CuDef*%
%ADD22RoundRect,0.150000X-0.150000X0.512500X-0.150000X-0.512500X0.150000X-0.512500X0.150000X0.512500X0*%
%TD*%
%TA.AperFunction,SMDPad,CuDef*%
%ADD23RoundRect,0.250000X-0.400000X-0.625000X0.400000X-0.625000X0.400000X0.625000X-0.400000X0.625000X0*%
%TD*%
%TA.AperFunction,SMDPad,CuDef*%
%ADD24RoundRect,0.150000X-0.825000X-0.150000X0.825000X-0.150000X0.825000X0.150000X-0.825000X0.150000X0*%
%TD*%
%TA.AperFunction,SMDPad,CuDef*%
%ADD25RoundRect,0.250000X0.412500X0.650000X-0.412500X0.650000X-0.412500X-0.650000X0.412500X-0.650000X0*%
%TD*%
%TA.AperFunction,SMDPad,CuDef*%
%ADD26RoundRect,0.218750X0.256250X-0.218750X0.256250X0.218750X-0.256250X0.218750X-0.256250X-0.218750X0*%
%TD*%
%TA.AperFunction,SMDPad,CuDef*%
%ADD27RoundRect,0.250000X0.650000X-0.412500X0.650000X0.412500X-0.650000X0.412500X-0.650000X-0.412500X0*%
%TD*%
%TA.AperFunction,SMDPad,CuDef*%
%ADD28RoundRect,0.250000X-0.625000X0.400000X-0.625000X-0.400000X0.625000X-0.400000X0.625000X0.400000X0*%
%TD*%
%TA.AperFunction,SMDPad,CuDef*%
%ADD29RoundRect,0.250000X-1.400000X-2.000000X1.400000X-2.000000X1.400000X2.000000X-1.400000X2.000000X0*%
%TD*%
%TA.AperFunction,SMDPad,CuDef*%
%ADD30RoundRect,0.250000X1.400000X2.000000X-1.400000X2.000000X-1.400000X-2.000000X1.400000X-2.000000X0*%
%TD*%
%TA.AperFunction,ViaPad*%
%ADD31C,0.600000*%
%TD*%
%TA.AperFunction,Conductor*%
%ADD32C,0.200000*%
%TD*%
%TA.AperFunction,Conductor*%
%ADD33C,0.300000*%
%TD*%
%TA.AperFunction,Conductor*%
%ADD34C,1.200000*%
%TD*%
%TA.AperFunction,Conductor*%
%ADD35C,2.000000*%
%TD*%
%TA.AperFunction,Conductor*%
%ADD36C,0.250000*%
%TD*%
%TA.AperFunction,Conductor*%
%ADD37C,0.600000*%
%TD*%
G04 APERTURE END LIST*
D10*
%TO.P,J1,1,Pin_1*%
%TO.N,+BATT*%
X127232592Y-32849748D03*
D11*
%TO.P,J1,2,Pin_2*%
%TO.N,/M+*%
X127232592Y-37649749D03*
%TO.P,J1,3,Pin_3*%
%TO.N,/M-*%
X127232592Y-42449748D03*
%TO.P,J1,4,Pin_4*%
%TO.N,GND*%
X127232592Y-47249748D03*
%TD*%
D12*
%TO.P,J5,1,Pin_1*%
%TO.N,/S_Feedback*%
X117785000Y-89000000D03*
D13*
%TO.P,J5,2,Pin_2*%
%TO.N,/S_Front*%
X117785000Y-86000000D03*
%TO.P,J5,3,Pin_3*%
%TO.N,GND*%
X117785000Y-83000000D03*
%TO.P,J5,4,Pin_4*%
%TO.N,Net-(J5-Pin_4)*%
X120785000Y-89000000D03*
%TO.P,J5,5,Pin_5*%
%TO.N,Net-(J5-Pin_5)*%
X120785000Y-86000000D03*
%TO.P,J5,6,Pin_6*%
%TO.N,/Sensor_Supply*%
X120785000Y-83000000D03*
%TD*%
D14*
%TO.P,J16,6,Shield*%
%TO.N,unconnected-(J16-Shield-Pad6)_1*%
X124600000Y-94234000D03*
D15*
%TO.N,unconnected-(J16-Shield-Pad6)_5*%
X125600000Y-91534000D03*
%TO.N,unconnected-(J16-Shield-Pad6)*%
X130600000Y-91534000D03*
D14*
%TO.N,unconnected-(J16-Shield-Pad6)_2*%
X131600000Y-94234000D03*
%TD*%
D16*
%TO.P,TP1,1,1*%
%TO.N,Net-(J5-Pin_5)*%
X124000000Y-87750000D03*
%TD*%
D17*
%TO.P,C2,1*%
%TO.N,Net-(D2-K)*%
X140782381Y-44700000D03*
D18*
%TO.P,C2,2*%
%TO.N,/M+*%
X138282381Y-44700000D03*
%TD*%
D19*
%TO.P,J3,1,Pin_1*%
%TO.N,GND*%
X142800000Y-89560000D03*
D20*
%TO.P,J3,2,Pin_2*%
%TO.N,/XDS_5v_supply*%
X142800000Y-87020000D03*
%TO.P,J3,3,Pin_3*%
%TO.N,+3V3*%
X142800000Y-84480001D03*
%TO.P,J3,4,Pin_4*%
%TO.N,/XDS_TARG_RXD*%
X142800000Y-81940000D03*
%TO.P,J3,5,Pin_5*%
%TO.N,/XDS_TARG_TXD*%
X142800000Y-79400000D03*
%TO.P,J3,6,Pin_6*%
%TO.N,/XDS_RESET_OUT*%
X142800000Y-76860000D03*
%TO.P,J3,7,Pin_7*%
%TO.N,/XDS_TMS_SWDIO*%
X142800000Y-74320000D03*
%TO.P,J3,8,Pin_8*%
%TO.N,/XDS_TCK_SWDCLK*%
X142800000Y-71779999D03*
%TO.P,J3,9,Pin_9*%
%TO.N,/XDS_BSL_INVOKE*%
X142800000Y-69240000D03*
%TD*%
D21*
%TO.P,C7,1*%
%TO.N,Net-(D8-K)*%
X113817620Y-45600000D03*
D18*
%TO.P,C7,2*%
%TO.N,/M-*%
X116317620Y-45600000D03*
%TD*%
D16*
%TO.P,TP2,1,1*%
%TO.N,Net-(J5-Pin_4)*%
X121250000Y-92500000D03*
%TD*%
D22*
%TO.P,D15,1,A*%
%TO.N,GND*%
X113000000Y-65500000D03*
%TO.P,D15,2,K*%
%TO.N,+5V*%
X114900000Y-65500000D03*
%TO.P,D15,3,COM*%
%TO.N,Net-(D15-COM)*%
X113950000Y-67775000D03*
%TD*%
D23*
%TO.P,R11,1*%
%TO.N,Net-(D11-A)*%
X135400000Y-84142500D03*
%TO.P,R11,2*%
%TO.N,+3V3*%
X138500002Y-84142500D03*
%TD*%
D24*
%TO.P,U13,1,VCC1*%
%TO.N,Net-(U12-OUT)*%
X133250000Y-81540000D03*
%TO.P,U13,2,OUTA*%
%TO.N,Net-(U13-OUTA)*%
X133250000Y-80270000D03*
%TO.P,U13,3,INB*%
%TO.N,Net-(U13-INB)*%
X133250000Y-79000000D03*
%TO.P,U13,4,GND1*%
%TO.N,/isolated TTL/GND*%
X133250000Y-77730000D03*
%TO.P,U13,5,GND2*%
%TO.N,GND*%
X138200000Y-77730000D03*
%TO.P,U13,6,OUTB*%
%TO.N,/XDS_TARG_RXD*%
X138200000Y-79000000D03*
%TO.P,U13,7,INA*%
%TO.N,/XDS_TARG_TXD*%
X138200000Y-80270000D03*
%TO.P,U13,8,VCC2*%
%TO.N,+3V3*%
X138200000Y-81540000D03*
%TD*%
D25*
%TO.P,C10,1*%
%TO.N,Net-(U12-OUT)*%
X137625000Y-94000000D03*
%TO.P,C10,2*%
%TO.N,/isolated TTL/GND*%
X134500000Y-94000000D03*
%TD*%
%TO.P,C19,1*%
%TO.N,Net-(J16-VBUS)*%
X126000000Y-72000000D03*
%TO.P,C19,2*%
%TO.N,/isolated TTL/GND*%
X122875000Y-72000000D03*
%TD*%
D26*
%TO.P,D11,1,K*%
%TO.N,GND*%
X132800000Y-84587501D03*
%TO.P,D11,2,A*%
%TO.N,Net-(D11-A)*%
X132800000Y-83012499D03*
%TD*%
D27*
%TO.P,C12,1*%
%TO.N,Net-(U12-OUT)*%
X120142000Y-76962000D03*
%TO.P,C12,2*%
%TO.N,/isolated TTL/GND*%
X120142000Y-73837000D03*
%TD*%
D22*
%TO.P,D17,1,A*%
%TO.N,GND*%
X112550000Y-61112500D03*
%TO.P,D17,2,K*%
%TO.N,+5V*%
X114450000Y-61112500D03*
%TO.P,D17,3,COM*%
%TO.N,Net-(D17-COM)*%
X113500000Y-63387500D03*
%TD*%
D28*
%TO.P,R10,1*%
%TO.N,Net-(D15-COM)*%
X111500000Y-74500000D03*
%TO.P,R10,2*%
%TO.N,/S_Feedback*%
X111500000Y-77600002D03*
%TD*%
D29*
%TO.P,D7,1,K*%
%TO.N,/M-*%
X132300001Y-45050000D03*
%TO.P,D7,2,A*%
%TO.N,/M+*%
X132300001Y-36250000D03*
%TD*%
D30*
%TO.P,D6,1,K*%
%TO.N,/M+*%
X122100000Y-36050000D03*
%TO.P,D6,2,A*%
%TO.N,/M-*%
X122100000Y-44850000D03*
%TD*%
D27*
%TO.P,C21,1*%
%TO.N,/Sensor_Supply*%
X123250000Y-82875000D03*
%TO.P,C21,2*%
%TO.N,GND*%
X123250000Y-79750000D03*
%TD*%
D31*
%TO.N,GND*%
X137500000Y-83000000D03*
X132800000Y-84587501D03*
X118250000Y-71950000D03*
X132300000Y-58300000D03*
X143012501Y-59850000D03*
X133400000Y-66800000D03*
X134600000Y-66800000D03*
X138200000Y-77730000D03*
X125800000Y-82770000D03*
X125800000Y-84040000D03*
X110400000Y-63350000D03*
X121000000Y-61800000D03*
X142762500Y-63400000D03*
X136323080Y-64512976D03*
X109800000Y-53800000D03*
X118500000Y-74050000D03*
X135000000Y-61600000D03*
X137800000Y-59962501D03*
X143500000Y-53600000D03*
X142762500Y-65800000D03*
X139250000Y-71750000D03*
X131220000Y-79450000D03*
X117100000Y-63262500D03*
X135700000Y-66800000D03*
X122200000Y-63262500D03*
X122000000Y-54000000D03*
X128400000Y-57800000D03*
X128400000Y-60800000D03*
X133400000Y-63400000D03*
%TO.N,/M+*%
X130595000Y-37375000D03*
X141700000Y-49400000D03*
X131865000Y-37375001D03*
X133135000Y-37375000D03*
%TO.N,Net-(D2-K)*%
X140100000Y-48100000D03*
%TO.N,+12V*%
X131000000Y-71175000D03*
X129794000Y-59400000D03*
X119599999Y-60137500D03*
X113000000Y-52850001D03*
%TO.N,/M-*%
X124800000Y-45800000D03*
X122460000Y-46080000D03*
X125000000Y-41000000D03*
X119920000Y-46080000D03*
X122460000Y-43540000D03*
X119920000Y-43540000D03*
X125000000Y-43540000D03*
%TO.N,+3V3*%
X126449999Y-68200000D03*
X114750000Y-72500000D03*
X131200000Y-68400000D03*
X128800000Y-70449999D03*
X139600000Y-66000000D03*
%TO.N,+5V*%
X116980000Y-67000000D03*
X114575000Y-59425000D03*
X130750000Y-81500000D03*
X118387500Y-75000000D03*
X122500000Y-77200000D03*
X117100000Y-60137500D03*
%TO.N,Net-(D3-K)*%
X111800000Y-46000000D03*
X111400000Y-52300000D03*
%TO.N,Net-(D12-K)*%
X125600000Y-60800000D03*
X124140000Y-56104000D03*
%TO.N,Net-(D19-K)*%
X133200000Y-60800000D03*
X133200000Y-58000000D03*
%TO.N,/XDS_BSL_INVOKE*%
X131749000Y-69200000D03*
%TO.N,/XDS_TCK_SWDCLK*%
X133000000Y-69865000D03*
%TO.N,/XDS_RESET_OUT*%
X135128000Y-74930000D03*
X139180000Y-74950000D03*
%TO.N,/XDS_TMS_SWDIO*%
X132386680Y-70378656D03*
%TO.N,/TIMG4_C0*%
X121666000Y-56000000D03*
X124200000Y-61400000D03*
%TO.N,/TIMG4_C1*%
X122200000Y-58600000D03*
X124340380Y-63659620D03*
%TO.N,/TIMG2_C0*%
X139059620Y-61859620D03*
X136800000Y-61800000D03*
%TO.N,Net-(D5-K)*%
X142500000Y-51200000D03*
X139100000Y-51100000D03*
%TO.N,Net-(D9-A)*%
X123800000Y-39200000D03*
X117600000Y-37949999D03*
%TO.N,Net-(D10-A)*%
X123804999Y-48975000D03*
X117700000Y-49649999D03*
X121825000Y-52700000D03*
%TO.N,/XDS_TARG_RXD*%
X140500000Y-77500000D03*
%TO.N,/XDS_TARG_TXD*%
X140600000Y-79200000D03*
%TO.N,Net-(U12-OUT)*%
X137625000Y-94000000D03*
X125662500Y-76500000D03*
X127750000Y-76500000D03*
X132750000Y-88000000D03*
%TO.N,/isolated TTL/GND*%
X122875000Y-74500000D03*
X125750000Y-78000000D03*
X134250000Y-94000000D03*
X129500000Y-89662000D03*
X128750000Y-77750000D03*
%TO.N,Net-(J16-VBUS)*%
X130500000Y-88000000D03*
X126000000Y-74250000D03*
X125662500Y-79500000D03*
%TO.N,Net-(D15-COM)*%
X112125000Y-74625000D03*
%TO.N,Net-(D17-COM)*%
X116250000Y-74000000D03*
%TO.N,/Sensor_Supply*%
X123500000Y-83000000D03*
%TO.N,Net-(J16-D+)*%
X130250000Y-92500000D03*
X133900000Y-92150000D03*
%TO.N,Net-(J16-D-)*%
X131500000Y-88500000D03*
X135250000Y-90750000D03*
%TO.N,/SCL*%
X120225000Y-78150000D03*
X116112500Y-75950000D03*
%TO.N,/SDA*%
X122500000Y-78150000D03*
X118387500Y-75950000D03*
%TO.N,Net-(U13-INB)*%
X133250000Y-79000000D03*
%TO.N,Net-(U13-OUTA)*%
X135750000Y-89500000D03*
%TD*%
D32*
%TO.N,GND*%
X110400000Y-63262500D02*
X110400000Y-63350000D01*
X141000000Y-87760000D02*
X142800000Y-89560000D01*
X137500000Y-84953658D02*
X138145342Y-85599000D01*
X141000000Y-85750000D02*
X141000000Y-87760000D01*
X125800000Y-82770000D02*
X123250000Y-80220000D01*
X137500000Y-83000000D02*
X137500000Y-84953658D01*
X132800000Y-84587501D02*
X132912499Y-84587501D01*
X140849000Y-85599000D02*
X141000000Y-85750000D01*
X132912499Y-84587501D02*
X133250000Y-84250000D01*
X125800000Y-82770000D02*
X125800000Y-84040000D01*
X110850000Y-63350000D02*
X110400000Y-63350000D01*
X113000000Y-65500000D02*
X110850000Y-63350000D01*
X138145342Y-85599000D02*
X140849000Y-85599000D01*
X123250000Y-80220000D02*
X123250000Y-79750000D01*
X112550000Y-61112500D02*
X110400000Y-63262500D01*
X118250000Y-71950000D02*
X118250000Y-74000000D01*
D33*
%TO.N,/M+*%
X138282381Y-47782381D02*
X138282381Y-44700000D01*
X139900000Y-49400000D02*
X138282381Y-47782381D01*
X141700000Y-49400000D02*
X139900000Y-49400000D01*
%TO.N,Net-(D2-K)*%
X140100000Y-48100000D02*
X140782381Y-47417619D01*
X140782381Y-47417619D02*
X140782381Y-44700000D01*
D34*
%TO.N,+12V*%
X129794000Y-69850000D02*
X130810000Y-70866000D01*
D35*
X119599999Y-60137500D02*
X113030000Y-53567501D01*
D32*
X113030000Y-53567501D02*
X113030000Y-52832000D01*
D34*
X129794000Y-59400000D02*
X129794000Y-69850000D01*
D36*
%TO.N,+3V3*%
X114750000Y-73096514D02*
X114750000Y-72500000D01*
D32*
X138500002Y-81840002D02*
X138200000Y-81540000D01*
D36*
X139600000Y-67600000D02*
X139600000Y-66000000D01*
D32*
X138500002Y-83000002D02*
X136523000Y-81023000D01*
D36*
X121049678Y-68200000D02*
X115076000Y-62226322D01*
X112198678Y-60124000D02*
X109774000Y-62548678D01*
X112370514Y-75476000D02*
X114750000Y-73096514D01*
D32*
X142462499Y-84142500D02*
X142800000Y-84480001D01*
D36*
X115076000Y-62226322D02*
X115076000Y-60398678D01*
X131200000Y-68400000D02*
X138800000Y-68400000D01*
D32*
X136523000Y-81023000D02*
X136523000Y-78172999D01*
D36*
X110629486Y-75476000D02*
X112370514Y-75476000D01*
X109774000Y-62548678D02*
X109774000Y-74620514D01*
X115076000Y-60398678D02*
X114801322Y-60124000D01*
D32*
X138500002Y-84142500D02*
X138500002Y-83000002D01*
X138500002Y-84142500D02*
X142462499Y-84142500D01*
X136523000Y-78172999D02*
X128800000Y-70449999D01*
D36*
X109774000Y-74620514D02*
X110629486Y-75476000D01*
X138800000Y-68400000D02*
X139600000Y-67600000D01*
D32*
X138500002Y-84142500D02*
X138500002Y-81840002D01*
D36*
X126449999Y-68200000D02*
X121049678Y-68200000D01*
X114801322Y-60124000D02*
X112198678Y-60124000D01*
D32*
%TO.N,+5V*%
X118887500Y-75500000D02*
X122250000Y-75500000D01*
X114900000Y-65500000D02*
X116400000Y-67000000D01*
X109348000Y-74796968D02*
X110453032Y-75902000D01*
X117100000Y-60137500D02*
X116660500Y-59698000D01*
X116980000Y-73592500D02*
X118387500Y-75000000D01*
X116980000Y-67000000D02*
X116980000Y-73592500D01*
X122500000Y-75750000D02*
X122500000Y-77200000D01*
X123838500Y-72312840D02*
X123838500Y-75861500D01*
X126963500Y-77713500D02*
X126963500Y-71114840D01*
X114450000Y-61112500D02*
X114450000Y-62500000D01*
X116400000Y-67000000D02*
X116980000Y-67000000D01*
X118387500Y-75000000D02*
X118887500Y-75500000D01*
X122250000Y-75500000D02*
X122500000Y-75750000D01*
X126963500Y-71114840D02*
X126647660Y-70799000D01*
X123838500Y-75861500D02*
X122500000Y-77200000D01*
X125352340Y-70799000D02*
X123838500Y-72312840D01*
X116660500Y-59698000D02*
X112022223Y-59698000D01*
X110453032Y-75902000D02*
X115197943Y-75902000D01*
X114450000Y-65050000D02*
X114900000Y-65500000D01*
X115197943Y-75902000D02*
X116851000Y-74248943D01*
X116851000Y-74248943D02*
X116851000Y-64901000D01*
X126647660Y-70799000D02*
X125352340Y-70799000D01*
X114450000Y-62500000D02*
X114450000Y-65050000D01*
X130750000Y-81500000D02*
X126963500Y-77713500D01*
X112022223Y-59698000D02*
X109348000Y-62372223D01*
X109348000Y-62372223D02*
X109348000Y-74796968D01*
X116851000Y-64901000D02*
X114450000Y-62500000D01*
D37*
%TO.N,Net-(D3-K)*%
X111800000Y-51900000D02*
X111400000Y-52300000D01*
X111800000Y-46000000D02*
X111800000Y-51900000D01*
D32*
%TO.N,Net-(D11-A)*%
X135400000Y-84142500D02*
X133892500Y-84142500D01*
X132800000Y-83050000D02*
X133892500Y-84142500D01*
X132800000Y-83012499D02*
X132800000Y-83050000D01*
%TO.N,Net-(D12-K)*%
X125600000Y-57564000D02*
X125600000Y-60800000D01*
X124140000Y-56104000D02*
X125600000Y-57564000D01*
D33*
%TO.N,Net-(D19-K)*%
X133200000Y-60800000D02*
X133200000Y-58000000D01*
D36*
%TO.N,/XDS_BSL_INVOKE*%
X142760000Y-69200000D02*
X142800000Y-69240000D01*
X131749000Y-69200000D02*
X142760000Y-69200000D01*
%TO.N,/XDS_TCK_SWDCLK*%
X140711001Y-69691000D02*
X142800000Y-71779999D01*
X133000000Y-69865000D02*
X133174000Y-69691000D01*
X133174000Y-69691000D02*
X140711001Y-69691000D01*
D32*
%TO.N,/XDS_RESET_OUT*%
X135148000Y-74950000D02*
X135128000Y-74930000D01*
X139180000Y-74950000D02*
X135148000Y-74950000D01*
D36*
%TO.N,/XDS_TMS_SWDIO*%
X132568024Y-70560000D02*
X139040000Y-70560000D01*
X132386680Y-70378656D02*
X132568024Y-70560000D01*
X139040000Y-70560000D02*
X142800000Y-74320000D01*
D32*
%TO.N,/TIMG4_C0*%
X121600000Y-56000000D02*
X121600000Y-57061741D01*
X121600000Y-57061741D02*
X123111695Y-58573436D01*
D33*
X124200000Y-61400000D02*
X124200000Y-59661741D01*
X124200000Y-59661741D02*
X123111695Y-58573436D01*
%TO.N,/TIMG4_C1*%
X122250000Y-61569240D02*
X122250000Y-58650000D01*
X124340380Y-63659620D02*
X122250000Y-61569240D01*
X122250000Y-58650000D02*
X122200000Y-58600000D01*
%TO.N,/TIMG2_C0*%
X139000000Y-61800000D02*
X139059620Y-61859620D01*
X136800000Y-61800000D02*
X139000000Y-61800000D01*
%TO.N,Net-(D5-K)*%
X139200000Y-51200000D02*
X139100000Y-51100000D01*
X142500000Y-51200000D02*
X139200000Y-51200000D01*
D37*
%TO.N,Net-(D9-A)*%
X118850001Y-39200000D02*
X117600000Y-37949999D01*
D33*
X123800000Y-39200000D02*
X123682501Y-39317499D01*
D37*
X123800000Y-39200000D02*
X118850001Y-39200000D01*
D33*
%TO.N,Net-(D10-A)*%
X121825000Y-52700000D02*
X123804999Y-50720001D01*
X123804999Y-48204999D02*
X123804999Y-48975000D01*
X123500000Y-47900000D02*
X123804999Y-48204999D01*
X118249999Y-47900000D02*
X123500000Y-47900000D01*
X117700000Y-48449999D02*
X118249999Y-47900000D01*
X117700000Y-49649999D02*
X117700000Y-48449999D01*
X123804999Y-50720001D02*
X123804999Y-48975000D01*
D32*
%TO.N,/S_Feedback*%
X111500000Y-81201339D02*
X111500000Y-77600002D01*
X117785000Y-87486339D02*
X111500000Y-81201339D01*
X117785000Y-89000000D02*
X117785000Y-87486339D01*
%TO.N,Net-(J5-Pin_5)*%
X122250000Y-86000000D02*
X120785000Y-86000000D01*
X124000000Y-87750000D02*
X122250000Y-86000000D01*
%TO.N,/XDS_TARG_RXD*%
X137184032Y-79669000D02*
X136924000Y-79929032D01*
X138200000Y-79000000D02*
X139000000Y-79000000D01*
X136924000Y-79929032D02*
X136924000Y-80610968D01*
X139000000Y-79000000D02*
X138331000Y-79669000D01*
X141731000Y-80871000D02*
X142800000Y-81940000D01*
X136924000Y-80610968D02*
X137184032Y-80871000D01*
X137184032Y-80871000D02*
X141731000Y-80871000D01*
X140500000Y-77500000D02*
X139000000Y-79000000D01*
X138331000Y-79669000D02*
X137184032Y-79669000D01*
%TO.N,/XDS_TARG_TXD*%
X138200000Y-80270000D02*
X139530000Y-80270000D01*
X139530000Y-80270000D02*
X140600000Y-79200000D01*
D33*
X142600000Y-79200000D02*
X142800000Y-79400000D01*
X140600000Y-79200000D02*
X142600000Y-79200000D01*
D32*
%TO.N,Net-(J5-Pin_4)*%
X120785000Y-92035000D02*
X121250000Y-92500000D01*
X120785000Y-89000000D02*
X120785000Y-92035000D01*
X120750000Y-92250000D02*
X121000000Y-92500000D01*
%TO.N,Net-(U12-OUT)*%
X133250000Y-81540000D02*
X132275001Y-81540000D01*
X123411500Y-78751000D02*
X125662500Y-76500000D01*
X127750000Y-77599943D02*
X131690057Y-81540000D01*
X132024000Y-81791001D02*
X132024000Y-86274000D01*
X132275001Y-81540000D02*
X132024000Y-81791001D01*
X127750000Y-76500000D02*
X127750000Y-77599943D01*
X122185000Y-78751000D02*
X123411500Y-78751000D01*
X131690057Y-81540000D02*
X133250000Y-81540000D01*
X132000000Y-88000000D02*
X132149000Y-88000000D01*
X132000000Y-86298000D02*
X132000000Y-88000000D01*
X132149000Y-88000000D02*
X132750000Y-88000000D01*
X120396000Y-76962000D02*
X122185000Y-78751000D01*
X132024000Y-86274000D02*
X132000000Y-86298000D01*
%TO.N,/isolated TTL/GND*%
X122875000Y-72000000D02*
X122875000Y-73625000D01*
X120396000Y-73837000D02*
X122212000Y-73837000D01*
X122212000Y-73837000D02*
X122875000Y-74500000D01*
X122875000Y-73625000D02*
X122375000Y-74125000D01*
X129069999Y-77430001D02*
X128750000Y-77750000D01*
X132950001Y-77430001D02*
X129069999Y-77430001D01*
X125061500Y-78688500D02*
X125061500Y-81181557D01*
X129500000Y-85620057D02*
X129500000Y-87000000D01*
X125750000Y-78000000D02*
X125061500Y-78688500D01*
X129500000Y-89662000D02*
X129500000Y-89750000D01*
X133250000Y-77730000D02*
X132950001Y-77430001D01*
X129500000Y-87250000D02*
X129500000Y-89662000D01*
X122375000Y-74125000D02*
X122750000Y-74500000D01*
X125061500Y-81181557D02*
X129500000Y-85620057D01*
X129500000Y-87000000D02*
X129500000Y-87250000D01*
%TO.N,Net-(J16-VBUS)*%
X125662500Y-79500000D02*
X126351000Y-78811500D01*
X126351000Y-74601000D02*
X126000000Y-74250000D01*
X130500000Y-84337500D02*
X130500000Y-88000000D01*
X126000000Y-72000000D02*
X126000000Y-74250000D01*
X125662500Y-79500000D02*
X130500000Y-84337500D01*
X126351000Y-78811500D02*
X126351000Y-74601000D01*
%TO.N,Net-(D15-COM)*%
X113950000Y-67775000D02*
X113950000Y-72050000D01*
X113950000Y-72050000D02*
X111500000Y-74500000D01*
%TO.N,Net-(D17-COM)*%
X113800000Y-63687500D02*
X113800000Y-66320532D01*
X116250000Y-68770532D02*
X116250000Y-74000000D01*
X113800000Y-66320532D02*
X116250000Y-68770532D01*
X113500000Y-63387500D02*
X113800000Y-63687500D01*
%TO.N,/Sensor_Supply*%
X120910000Y-82875000D02*
X120785000Y-83000000D01*
X123250000Y-82875000D02*
X120910000Y-82875000D01*
%TO.N,Net-(J16-D+)*%
X133814000Y-92500000D02*
X130250000Y-92500000D01*
X133900000Y-92414000D02*
X133814000Y-92500000D01*
X133900000Y-92150000D02*
X133900000Y-92414000D01*
%TO.N,Net-(J16-D-)*%
X132250000Y-89250000D02*
X131500000Y-88500000D01*
X135000000Y-89250000D02*
X132250000Y-89250000D01*
X135000000Y-90500000D02*
X135000000Y-89250000D01*
X135250000Y-90750000D02*
X135000000Y-90500000D01*
%TO.N,/SCL*%
X118376000Y-78213500D02*
X120225000Y-78213500D01*
X116112500Y-75950000D02*
X118376000Y-78213500D01*
%TO.N,/SDA*%
X121763500Y-76602340D02*
X121111160Y-75950000D01*
X121111160Y-75950000D02*
X118387500Y-75950000D01*
X121763500Y-77413500D02*
X121763500Y-76602340D01*
X122500000Y-78150000D02*
X121763500Y-77413500D01*
%TO.N,Net-(U13-OUTA)*%
X136500000Y-89500000D02*
X135750000Y-89500000D01*
X133250000Y-80270000D02*
X134224999Y-80270000D01*
X134224999Y-80270000D02*
X136500000Y-82545001D01*
X136500000Y-82545001D02*
X136500000Y-89500000D01*
%TD*%
%TA.AperFunction,Conductor*%
%TO.N,/M-*%
G36*
X126939661Y-40049876D02*
G01*
X126950179Y-40049820D01*
X124800000Y-42200000D01*
X124800000Y-44400000D01*
X126100000Y-45700000D01*
X126166705Y-45700000D01*
X126157742Y-45702146D01*
X126137730Y-45703923D01*
X126093368Y-45709853D01*
X125956792Y-45755106D01*
X125896271Y-45785299D01*
X125894756Y-45786020D01*
X125894255Y-45786304D01*
X125775965Y-45868205D01*
X125775960Y-45868209D01*
X125575842Y-46054034D01*
X125575836Y-46054040D01*
X125531504Y-46100813D01*
X125511282Y-46125076D01*
X125473275Y-46177091D01*
X125414023Y-46308210D01*
X125397000Y-46367044D01*
X125396998Y-46367052D01*
X125394604Y-46375329D01*
X125394603Y-46375331D01*
X125388547Y-46418666D01*
X125388304Y-46420157D01*
X125373786Y-46450372D01*
X125359967Y-46480951D01*
X125358197Y-46482817D01*
X125358045Y-46483134D01*
X125357689Y-46483352D01*
X125351646Y-46489726D01*
X124435955Y-47365607D01*
X124373903Y-47397722D01*
X124350243Y-47400000D01*
X123960181Y-47400000D01*
X123893142Y-47380315D01*
X123891323Y-47379124D01*
X123808127Y-47323535D01*
X123689744Y-47274499D01*
X123689738Y-47274497D01*
X123564071Y-47249500D01*
X123564069Y-47249500D01*
X119549125Y-47249500D01*
X119482086Y-47229815D01*
X119449925Y-47199900D01*
X119024800Y-46633066D01*
X119000324Y-46567624D01*
X119000000Y-46558666D01*
X119000000Y-42851362D01*
X119019685Y-42784323D01*
X119036319Y-42763681D01*
X119365327Y-42434672D01*
X119426648Y-42401189D01*
X119449006Y-42398419D01*
X122500000Y-42300000D01*
X125366449Y-40075782D01*
X125431481Y-40050236D01*
X125442466Y-40049748D01*
X126932828Y-40049748D01*
X126939661Y-40049876D01*
G37*
%TD.AperFunction*%
%TD*%
%TA.AperFunction,Conductor*%
%TO.N,GND*%
G36*
X131915703Y-70757361D02*
G01*
X131922181Y-70763393D01*
X132017964Y-70859176D01*
X132017966Y-70859177D01*
X132017970Y-70859180D01*
X132141531Y-70930517D01*
X132154896Y-70938233D01*
X132307623Y-70979156D01*
X132307625Y-70979156D01*
X132472004Y-70979156D01*
X132504095Y-70983381D01*
X132512000Y-70985499D01*
X132512002Y-70985499D01*
X132512005Y-70985500D01*
X132512006Y-70985500D01*
X138812390Y-70985500D01*
X138879429Y-71005185D01*
X138900071Y-71021819D01*
X141685655Y-73807403D01*
X141719140Y-73868726D01*
X141715905Y-73933402D01*
X141677829Y-74050589D01*
X141649500Y-74229448D01*
X141649500Y-74410551D01*
X141677829Y-74589410D01*
X141733787Y-74761636D01*
X141733788Y-74761639D01*
X141816006Y-74922997D01*
X141922441Y-75069494D01*
X141922445Y-75069499D01*
X142050500Y-75197554D01*
X142050505Y-75197558D01*
X142176349Y-75288988D01*
X142197006Y-75303996D01*
X142288275Y-75350500D01*
X142358360Y-75386211D01*
X142358363Y-75386212D01*
X142433190Y-75410524D01*
X142530591Y-75442171D01*
X142603639Y-75453740D01*
X142690678Y-75467527D01*
X142753813Y-75497456D01*
X142790744Y-75556768D01*
X142789746Y-75626631D01*
X142751136Y-75684863D01*
X142690678Y-75712473D01*
X142530589Y-75737829D01*
X142358363Y-75793787D01*
X142358360Y-75793788D01*
X142197002Y-75876006D01*
X142050505Y-75982441D01*
X142050500Y-75982445D01*
X141922445Y-76110500D01*
X141922441Y-76110505D01*
X141816006Y-76257002D01*
X141733788Y-76418360D01*
X141733787Y-76418363D01*
X141677829Y-76590589D01*
X141649500Y-76769448D01*
X141649500Y-76950551D01*
X141677829Y-77129410D01*
X141733787Y-77301636D01*
X141733788Y-77301639D01*
X141763919Y-77360773D01*
X141804503Y-77440423D01*
X141816006Y-77462997D01*
X141922441Y-77609494D01*
X141922445Y-77609499D01*
X142050500Y-77737554D01*
X142050505Y-77737558D01*
X142149738Y-77809654D01*
X142197006Y-77843996D01*
X142302484Y-77897740D01*
X142358360Y-77926211D01*
X142358363Y-77926212D01*
X142383161Y-77934269D01*
X142530591Y-77982171D01*
X142603639Y-77993740D01*
X142690678Y-78007527D01*
X142753813Y-78037456D01*
X142790744Y-78096768D01*
X142789746Y-78166631D01*
X142751136Y-78224863D01*
X142690678Y-78252473D01*
X142530589Y-78277829D01*
X142358363Y-78333787D01*
X142358360Y-78333788D01*
X142197002Y-78416006D01*
X142050505Y-78522441D01*
X142050500Y-78522445D01*
X141922445Y-78650500D01*
X141922441Y-78650505D01*
X141887655Y-78698385D01*
X141832326Y-78741051D01*
X141787337Y-78749500D01*
X141049931Y-78749500D01*
X140982892Y-78729815D01*
X140974443Y-78723875D01*
X140968709Y-78719475D01*
X140831790Y-78640426D01*
X140831786Y-78640424D01*
X140831784Y-78640423D01*
X140679057Y-78599500D01*
X140520943Y-78599500D01*
X140368216Y-78640423D01*
X140368209Y-78640426D01*
X140231290Y-78719475D01*
X140231282Y-78719481D01*
X140119481Y-78831282D01*
X140119475Y-78831290D01*
X140040426Y-78968209D01*
X140040423Y-78968216D01*
X139999500Y-79120943D01*
X139999500Y-79182744D01*
X139979815Y-79249783D01*
X139963181Y-79270425D01*
X139473586Y-79760019D01*
X139412263Y-79793504D01*
X139342571Y-79788520D01*
X139312273Y-79772109D01*
X139263592Y-79736182D01*
X139261679Y-79734770D01*
X139219428Y-79679125D01*
X139213969Y-79609469D01*
X139247035Y-79547919D01*
X139261670Y-79535236D01*
X139347150Y-79472150D01*
X139427793Y-79362882D01*
X139467368Y-79249783D01*
X139472646Y-79234701D01*
X139472646Y-79234699D01*
X139475500Y-79204269D01*
X139475500Y-79142255D01*
X139495185Y-79075216D01*
X139511819Y-79054574D01*
X140429574Y-78136819D01*
X140490897Y-78103334D01*
X140517255Y-78100500D01*
X140579055Y-78100500D01*
X140579057Y-78100500D01*
X140731784Y-78059577D01*
X140868716Y-77980520D01*
X140980520Y-77868716D01*
X141059577Y-77731784D01*
X141100500Y-77579057D01*
X141100500Y-77420943D01*
X141059577Y-77268216D01*
X141030155Y-77217255D01*
X140980524Y-77131290D01*
X140980518Y-77131282D01*
X140868717Y-77019481D01*
X140868709Y-77019475D01*
X140731790Y-76940426D01*
X140731786Y-76940424D01*
X140731784Y-76940423D01*
X140579057Y-76899500D01*
X140420943Y-76899500D01*
X140268216Y-76940423D01*
X140268209Y-76940426D01*
X140131290Y-77019475D01*
X140131282Y-77019481D01*
X140019481Y-77131282D01*
X140019475Y-77131290D01*
X139940426Y-77268209D01*
X139940423Y-77268216D01*
X139899500Y-77420943D01*
X139899500Y-77482745D01*
X139879815Y-77549784D01*
X139863181Y-77570426D01*
X139070426Y-78363181D01*
X139009103Y-78396666D01*
X138982745Y-78399500D01*
X137320730Y-78399500D01*
X137290300Y-78402353D01*
X137290298Y-78402353D01*
X137162119Y-78447206D01*
X137162117Y-78447207D01*
X137121133Y-78477455D01*
X137055503Y-78501425D01*
X136987333Y-78486109D01*
X136938266Y-78436368D01*
X136923500Y-78377684D01*
X136923500Y-78120274D01*
X136923500Y-78120272D01*
X136896207Y-78018412D01*
X136843480Y-77927086D01*
X136768913Y-77852519D01*
X133767337Y-74850943D01*
X134527500Y-74850943D01*
X134527500Y-75009057D01*
X134552019Y-75100561D01*
X134568423Y-75161783D01*
X134568426Y-75161790D01*
X134647475Y-75298709D01*
X134647479Y-75298714D01*
X134647480Y-75298716D01*
X134759284Y-75410520D01*
X134759286Y-75410521D01*
X134759290Y-75410524D01*
X134882772Y-75481815D01*
X134896216Y-75489577D01*
X135048943Y-75530500D01*
X135048945Y-75530500D01*
X135207055Y-75530500D01*
X135207057Y-75530500D01*
X135359784Y-75489577D01*
X135496716Y-75410520D01*
X135520417Y-75386819D01*
X135581740Y-75353334D01*
X135608098Y-75350500D01*
X138679902Y-75350500D01*
X138746941Y-75370185D01*
X138767583Y-75386819D01*
X138811284Y-75430520D01*
X138811286Y-75430521D01*
X138811290Y-75430524D01*
X138929317Y-75498666D01*
X138948216Y-75509577D01*
X139100943Y-75550500D01*
X139100945Y-75550500D01*
X139259055Y-75550500D01*
X139259057Y-75550500D01*
X139411784Y-75509577D01*
X139548716Y-75430520D01*
X139660520Y-75318716D01*
X139739577Y-75181784D01*
X139780500Y-75029057D01*
X139780500Y-74870943D01*
X139739577Y-74718216D01*
X139721869Y-74687545D01*
X139660524Y-74581290D01*
X139660518Y-74581282D01*
X139548717Y-74469481D01*
X139548709Y-74469475D01*
X139411790Y-74390426D01*
X139411786Y-74390424D01*
X139411784Y-74390423D01*
X139259057Y-74349500D01*
X139100943Y-74349500D01*
X138948216Y-74390423D01*
X138948209Y-74390426D01*
X138811290Y-74469475D01*
X138811282Y-74469481D01*
X138767583Y-74513181D01*
X138706260Y-74546666D01*
X138679902Y-74549500D01*
X135648098Y-74549500D01*
X135581059Y-74529815D01*
X135560417Y-74513181D01*
X135496717Y-74449481D01*
X135496709Y-74449475D01*
X135359790Y-74370426D01*
X135359786Y-74370424D01*
X135359784Y-74370423D01*
X135207057Y-74329500D01*
X135048943Y-74329500D01*
X134896216Y-74370423D01*
X134896209Y-74370426D01*
X134759290Y-74449475D01*
X134759282Y-74449481D01*
X134647481Y-74561282D01*
X134647475Y-74561290D01*
X134568426Y-74698209D01*
X134568423Y-74698216D01*
X134527500Y-74850943D01*
X133767337Y-74850943D01*
X130903575Y-71987181D01*
X130870090Y-71925858D01*
X130875074Y-71856166D01*
X130916946Y-71800233D01*
X130982410Y-71775816D01*
X130991256Y-71775500D01*
X131079055Y-71775500D01*
X131079057Y-71775500D01*
X131231784Y-71734577D01*
X131368716Y-71655520D01*
X131480520Y-71543716D01*
X131559577Y-71406784D01*
X131572953Y-71356858D01*
X131589623Y-71320066D01*
X131608012Y-71292547D01*
X131675895Y-71128666D01*
X131710500Y-70954692D01*
X131710500Y-70851074D01*
X131730185Y-70784035D01*
X131782989Y-70738280D01*
X131852147Y-70728336D01*
X131915703Y-70757361D01*
G37*
%TD.AperFunction*%
%TA.AperFunction,Conductor*%
G36*
X110782633Y-52551940D02*
G01*
X110849316Y-52572798D01*
X110887844Y-52613921D01*
X110919477Y-52668712D01*
X110919481Y-52668717D01*
X111031284Y-52780520D01*
X111118095Y-52830639D01*
X111118097Y-52830641D01*
X111151446Y-52849895D01*
X111168215Y-52859577D01*
X111320943Y-52900501D01*
X111320946Y-52900501D01*
X111479054Y-52900501D01*
X111479057Y-52900501D01*
X111631785Y-52859577D01*
X111681904Y-52830639D01*
X111693345Y-52824033D01*
X111761240Y-52807559D01*
X111827268Y-52830408D01*
X111870461Y-52885327D01*
X111877106Y-52954880D01*
X111865831Y-52987713D01*
X111824782Y-53068277D01*
X111824780Y-53068282D01*
X111824780Y-53068283D01*
X111792628Y-53167237D01*
X111761522Y-53262969D01*
X111755578Y-53300499D01*
X111729500Y-53465149D01*
X111729500Y-53669853D01*
X111761523Y-53872036D01*
X111824780Y-54066719D01*
X111917713Y-54249112D01*
X112038034Y-54414720D01*
X114555481Y-56932167D01*
X116709134Y-59085819D01*
X116742619Y-59147142D01*
X116737635Y-59216834D01*
X116695763Y-59272767D01*
X116630299Y-59297184D01*
X116621453Y-59297500D01*
X115257668Y-59297500D01*
X115190629Y-59277815D01*
X115144874Y-59225011D01*
X115137893Y-59205593D01*
X115134577Y-59193216D01*
X115134573Y-59193209D01*
X115055524Y-59056290D01*
X115055518Y-59056282D01*
X114943717Y-58944481D01*
X114943709Y-58944475D01*
X114806790Y-58865426D01*
X114806786Y-58865424D01*
X114806784Y-58865423D01*
X114654057Y-58824500D01*
X114495943Y-58824500D01*
X114343216Y-58865423D01*
X114343209Y-58865426D01*
X114206290Y-58944475D01*
X114206282Y-58944481D01*
X114094481Y-59056282D01*
X114094475Y-59056290D01*
X114015426Y-59193209D01*
X114015423Y-59193216D01*
X114012107Y-59205593D01*
X113975742Y-59265254D01*
X113912895Y-59295783D01*
X113892332Y-59297500D01*
X111969496Y-59297500D01*
X111867636Y-59324793D01*
X111867633Y-59324794D01*
X111776308Y-59377521D01*
X109027522Y-62126307D01*
X109027518Y-62126313D01*
X108974792Y-62217635D01*
X108974793Y-62217636D01*
X108947500Y-62319496D01*
X108947500Y-74744241D01*
X108947500Y-74849695D01*
X108952595Y-74868709D01*
X108974793Y-74951557D01*
X108997506Y-74990896D01*
X109027520Y-75042881D01*
X110207119Y-76222480D01*
X110298444Y-76275207D01*
X110400305Y-76302500D01*
X110400307Y-76302500D01*
X115250668Y-76302500D01*
X115250670Y-76302500D01*
X115352531Y-76275207D01*
X115435892Y-76227078D01*
X115503788Y-76210605D01*
X115569815Y-76233456D01*
X115605277Y-76272465D01*
X115631980Y-76318716D01*
X115743784Y-76430520D01*
X115743786Y-76430521D01*
X115743790Y-76430524D01*
X115834241Y-76482745D01*
X115880716Y-76509577D01*
X116033443Y-76550500D01*
X116095245Y-76550500D01*
X116162284Y-76570185D01*
X116182926Y-76586819D01*
X118055519Y-78459412D01*
X118055520Y-78459413D01*
X118130087Y-78533980D01*
X118221413Y-78586707D01*
X118323273Y-78614000D01*
X118428727Y-78614000D01*
X119794444Y-78614000D01*
X119856443Y-78630612D01*
X119873442Y-78640426D01*
X119993216Y-78709577D01*
X120145943Y-78750500D01*
X120145945Y-78750500D01*
X120304055Y-78750500D01*
X120304057Y-78750500D01*
X120456784Y-78709577D01*
X120593716Y-78630520D01*
X120705520Y-78518716D01*
X120784577Y-78381784D01*
X120825500Y-78229057D01*
X120825500Y-78229052D01*
X120827215Y-78222652D01*
X120863580Y-78162991D01*
X120926426Y-78132462D01*
X120995802Y-78140756D01*
X121034671Y-78167064D01*
X121939087Y-79071480D01*
X122018174Y-79117141D01*
X122024758Y-79120943D01*
X122030412Y-79124207D01*
X122132273Y-79151500D01*
X122132275Y-79151500D01*
X123464225Y-79151500D01*
X123464227Y-79151500D01*
X123566088Y-79124207D01*
X123657413Y-79071480D01*
X124947286Y-77781605D01*
X125008609Y-77748121D01*
X125078301Y-77753105D01*
X125134234Y-77794977D01*
X125158651Y-77860441D01*
X125158538Y-77879598D01*
X125157615Y-77890656D01*
X125149500Y-77920943D01*
X125149500Y-77987914D01*
X125149071Y-77993056D01*
X125138259Y-78021026D01*
X125129815Y-78049784D01*
X125124680Y-78056156D01*
X125123880Y-78058226D01*
X125121771Y-78059766D01*
X125113181Y-78070426D01*
X124741022Y-78442584D01*
X124741018Y-78442590D01*
X124688293Y-78533911D01*
X124688293Y-78533912D01*
X124683848Y-78550502D01*
X124661000Y-78635773D01*
X124661000Y-81128830D01*
X124661000Y-81234284D01*
X124670278Y-81268912D01*
X124688293Y-81336146D01*
X124707387Y-81369217D01*
X124741020Y-81427470D01*
X124741022Y-81427472D01*
X129063181Y-85749631D01*
X129096666Y-85810954D01*
X129099500Y-85837312D01*
X129099500Y-89161902D01*
X129079815Y-89228941D01*
X129063181Y-89249583D01*
X129019481Y-89293282D01*
X129019475Y-89293290D01*
X128940426Y-89430209D01*
X128940423Y-89430216D01*
X128899500Y-89582943D01*
X128899500Y-89741057D01*
X128934910Y-89873207D01*
X128940423Y-89893783D01*
X128940426Y-89893790D01*
X129019475Y-90030709D01*
X129019479Y-90030714D01*
X129019480Y-90030716D01*
X129131284Y-90142520D01*
X129131286Y-90142521D01*
X129131290Y-90142524D01*
X129198221Y-90181166D01*
X129268216Y-90221577D01*
X129420943Y-90262500D01*
X129420945Y-90262500D01*
X129579055Y-90262500D01*
X129579057Y-90262500D01*
X129731784Y-90221577D01*
X129868716Y-90142520D01*
X129980520Y-90030716D01*
X130059577Y-89893784D01*
X130100500Y-89741057D01*
X130100500Y-89582943D01*
X130059577Y-89430216D01*
X129988104Y-89306420D01*
X129980524Y-89293290D01*
X129980518Y-89293282D01*
X129936819Y-89249583D01*
X129903334Y-89188260D01*
X129900500Y-89161902D01*
X129900500Y-88549098D01*
X129920185Y-88482059D01*
X129972989Y-88436304D01*
X130042147Y-88426360D01*
X130105703Y-88455385D01*
X130112181Y-88461417D01*
X130131284Y-88480520D01*
X130131286Y-88480521D01*
X130131290Y-88480524D01*
X130264450Y-88557403D01*
X130268216Y-88559577D01*
X130420943Y-88600500D01*
X130420945Y-88600500D01*
X130579055Y-88600500D01*
X130579057Y-88600500D01*
X130731784Y-88559577D01*
X130732552Y-88559133D01*
X130733280Y-88558956D01*
X130739294Y-88556466D01*
X130739682Y-88557403D01*
X130800448Y-88542655D01*
X130866477Y-88565501D01*
X130909673Y-88620418D01*
X130914335Y-88634421D01*
X130940423Y-88731785D01*
X130940426Y-88731790D01*
X131019475Y-88868709D01*
X131019479Y-88868714D01*
X131019480Y-88868716D01*
X131131284Y-88980520D01*
X131131286Y-88980521D01*
X131131290Y-88980524D01*
X131197028Y-89018477D01*
X131268216Y-89059577D01*
X131420943Y-89100500D01*
X131482745Y-89100500D01*
X131549784Y-89120185D01*
X131570426Y-89136819D01*
X132004087Y-89570480D01*
X132095412Y-89623207D01*
X132197273Y-89650500D01*
X134475500Y-89650500D01*
X134542539Y-89670185D01*
X134588294Y-89722989D01*
X134599500Y-89774500D01*
X134599500Y-90552726D01*
X134626794Y-90654591D01*
X134632885Y-90665140D01*
X134649500Y-90727143D01*
X134649500Y-90829057D01*
X134676985Y-90931630D01*
X134690423Y-90981783D01*
X134690426Y-90981790D01*
X134769475Y-91118709D01*
X134769479Y-91118714D01*
X134769480Y-91118716D01*
X134881284Y-91230520D01*
X134881286Y-91230521D01*
X134881290Y-91230524D01*
X135018209Y-91309573D01*
X135018216Y-91309577D01*
X135170943Y-91350500D01*
X135170945Y-91350500D01*
X135329055Y-91350500D01*
X135329057Y-91350500D01*
X135481784Y-91309577D01*
X135618716Y-91230520D01*
X135730520Y-91118716D01*
X135809577Y-90981784D01*
X135850500Y-90829057D01*
X135850500Y-90670943D01*
X135809577Y-90518216D01*
X135809573Y-90518209D01*
X135730524Y-90381290D01*
X135730518Y-90381282D01*
X135661417Y-90312181D01*
X135627932Y-90250858D01*
X135632916Y-90181166D01*
X135674788Y-90125233D01*
X135740252Y-90100816D01*
X135749098Y-90100500D01*
X135829055Y-90100500D01*
X135829057Y-90100500D01*
X135981784Y-90059577D01*
X136118716Y-89980520D01*
X136162417Y-89936819D01*
X136223740Y-89903334D01*
X136250098Y-89900500D01*
X136552725Y-89900500D01*
X136552727Y-89900500D01*
X136654587Y-89873207D01*
X136745913Y-89820480D01*
X136820480Y-89745913D01*
X136873207Y-89654587D01*
X136900500Y-89552727D01*
X136900500Y-82492274D01*
X136873207Y-82390414D01*
X136873207Y-82390413D01*
X136820480Y-82299088D01*
X134524332Y-80002940D01*
X134494971Y-79956211D01*
X134477795Y-79907121D01*
X134477793Y-79907118D01*
X134397150Y-79797850D01*
X134384508Y-79788520D01*
X134311677Y-79734768D01*
X134269428Y-79679123D01*
X134263969Y-79609467D01*
X134297036Y-79547917D01*
X134311670Y-79535236D01*
X134397150Y-79472150D01*
X134477793Y-79362882D01*
X134517368Y-79249783D01*
X134522646Y-79234701D01*
X134522646Y-79234699D01*
X134525500Y-79204269D01*
X134525500Y-78795730D01*
X134522646Y-78765300D01*
X134522646Y-78765298D01*
X134482477Y-78650505D01*
X134477793Y-78637118D01*
X134397150Y-78527850D01*
X134311677Y-78464768D01*
X134269428Y-78409123D01*
X134263969Y-78339467D01*
X134297036Y-78277917D01*
X134311670Y-78265236D01*
X134397150Y-78202150D01*
X134477793Y-78092882D01*
X134507660Y-78007527D01*
X134522646Y-77964701D01*
X134522646Y-77964699D01*
X134525500Y-77934269D01*
X134525500Y-77525730D01*
X134522646Y-77495300D01*
X134522646Y-77495298D01*
X134477793Y-77367119D01*
X134477792Y-77367117D01*
X134397150Y-77257850D01*
X134287882Y-77177207D01*
X134287880Y-77177206D01*
X134159700Y-77132353D01*
X134129270Y-77129500D01*
X134129266Y-77129500D01*
X133263744Y-77129500D01*
X133201743Y-77112887D01*
X133195915Y-77109522D01*
X133195914Y-77109521D01*
X133152467Y-77084436D01*
X133104590Y-77056794D01*
X133053658Y-77043147D01*
X133002728Y-77029501D01*
X129122726Y-77029501D01*
X129017272Y-77029501D01*
X128915409Y-77056794D01*
X128824086Y-77109521D01*
X128824083Y-77109523D01*
X128820426Y-77113181D01*
X128759103Y-77146666D01*
X128732745Y-77149500D01*
X128670943Y-77149500D01*
X128518216Y-77190423D01*
X128518209Y-77190426D01*
X128381290Y-77269475D01*
X128381282Y-77269481D01*
X128362181Y-77288583D01*
X128342744Y-77299195D01*
X128326011Y-77313696D01*
X128312679Y-77315612D01*
X128300858Y-77322068D01*
X128278771Y-77320488D01*
X128256853Y-77323640D01*
X128244601Y-77318044D01*
X128231166Y-77317084D01*
X128213439Y-77303813D01*
X128193297Y-77294615D01*
X128186014Y-77283283D01*
X128175233Y-77275212D01*
X128167495Y-77254466D01*
X128155523Y-77235837D01*
X128152371Y-77213918D01*
X128150816Y-77209748D01*
X128150500Y-77200902D01*
X128150500Y-77000098D01*
X128170185Y-76933059D01*
X128186819Y-76912417D01*
X128199736Y-76899500D01*
X128230520Y-76868716D01*
X128309577Y-76731784D01*
X128350500Y-76579057D01*
X128350500Y-76420943D01*
X128309577Y-76268216D01*
X128303103Y-76257002D01*
X128230524Y-76131290D01*
X128230518Y-76131282D01*
X128118717Y-76019481D01*
X128118709Y-76019475D01*
X127981790Y-75940426D01*
X127981786Y-75940424D01*
X127981784Y-75940423D01*
X127829057Y-75899500D01*
X127670943Y-75899500D01*
X127520093Y-75939920D01*
X127450243Y-75938257D01*
X127392381Y-75899094D01*
X127364877Y-75834866D01*
X127364000Y-75820145D01*
X127364000Y-71062115D01*
X127364000Y-71062113D01*
X127336707Y-70960253D01*
X127336707Y-70960252D01*
X127283980Y-70868927D01*
X126893573Y-70478520D01*
X126825908Y-70439453D01*
X126802249Y-70425793D01*
X126724026Y-70404834D01*
X126700387Y-70398500D01*
X125405067Y-70398500D01*
X125299613Y-70398500D01*
X125197750Y-70425793D01*
X125106427Y-70478520D01*
X125106424Y-70478522D01*
X124049681Y-71535266D01*
X123988358Y-71568751D01*
X123918666Y-71563767D01*
X123862733Y-71521895D01*
X123838316Y-71456431D01*
X123838000Y-71447585D01*
X123838000Y-71306903D01*
X123838000Y-71306898D01*
X123827377Y-71218436D01*
X123771861Y-71077658D01*
X123771860Y-71077657D01*
X123771860Y-71077656D01*
X123680422Y-70957077D01*
X123559843Y-70865639D01*
X123440854Y-70818716D01*
X123419064Y-70810123D01*
X123419063Y-70810122D01*
X123419061Y-70810122D01*
X123373426Y-70804642D01*
X123330602Y-70799500D01*
X122419398Y-70799500D01*
X122380353Y-70804188D01*
X122330938Y-70810122D01*
X122190156Y-70865639D01*
X122069577Y-70957077D01*
X121978139Y-71077656D01*
X121922622Y-71218438D01*
X121916743Y-71267402D01*
X121912000Y-71306898D01*
X121912000Y-72693102D01*
X121916645Y-72731783D01*
X121922622Y-72781561D01*
X121978139Y-72922343D01*
X122069577Y-73042922D01*
X122190156Y-73134360D01*
X122190157Y-73134360D01*
X122190158Y-73134361D01*
X122330936Y-73189877D01*
X122365284Y-73194001D01*
X122366662Y-73194592D01*
X122368147Y-73194379D01*
X122398671Y-73208319D01*
X122429497Y-73221538D01*
X122430336Y-73222780D01*
X122431703Y-73223404D01*
X122449850Y-73251641D01*
X122468631Y-73279420D01*
X122468928Y-73281327D01*
X122469477Y-73282182D01*
X122474500Y-73317117D01*
X122474500Y-73331108D01*
X122454815Y-73398147D01*
X122402011Y-73443902D01*
X122332853Y-73453846D01*
X122318408Y-73450883D01*
X122264728Y-73436500D01*
X122264727Y-73436500D01*
X121459117Y-73436500D01*
X121392078Y-73416815D01*
X121346323Y-73364011D01*
X121336002Y-73327286D01*
X121331877Y-73292936D01*
X121276361Y-73152158D01*
X121276360Y-73152157D01*
X121276360Y-73152156D01*
X121184922Y-73031577D01*
X121064343Y-72940139D01*
X120923561Y-72884622D01*
X120877926Y-72879142D01*
X120835102Y-72874000D01*
X119448898Y-72874000D01*
X119409853Y-72878688D01*
X119360438Y-72884622D01*
X119219656Y-72940139D01*
X119099077Y-73031577D01*
X119007639Y-73152156D01*
X118952122Y-73292938D01*
X118949219Y-73317117D01*
X118941500Y-73381398D01*
X118941500Y-74292602D01*
X118945878Y-74329056D01*
X118952123Y-74381067D01*
X118954070Y-74388768D01*
X118952181Y-74389245D01*
X118957520Y-74448416D01*
X118925180Y-74510351D01*
X118864490Y-74544970D01*
X118794718Y-74541281D01*
X118760395Y-74522687D01*
X118756210Y-74519475D01*
X118619290Y-74440426D01*
X118619286Y-74440424D01*
X118619284Y-74440423D01*
X118466557Y-74399500D01*
X118466556Y-74399500D01*
X118404754Y-74399500D01*
X118337715Y-74379815D01*
X118317073Y-74363181D01*
X117416819Y-73462926D01*
X117383334Y-73401603D01*
X117380500Y-73375245D01*
X117380500Y-70370942D01*
X128199500Y-70370942D01*
X128199500Y-70529056D01*
X128236102Y-70665654D01*
X128240423Y-70681782D01*
X128240426Y-70681789D01*
X128319475Y-70818708D01*
X128319479Y-70818713D01*
X128319480Y-70818715D01*
X128431284Y-70930519D01*
X128431286Y-70930520D01*
X128431290Y-70930523D01*
X128560610Y-71005185D01*
X128568216Y-71009576D01*
X128720943Y-71050499D01*
X128782745Y-71050499D01*
X128849784Y-71070184D01*
X128870426Y-71086818D01*
X136086181Y-78302573D01*
X136119666Y-78363896D01*
X136122500Y-78390254D01*
X136122500Y-81075726D01*
X136149793Y-81177589D01*
X136176156Y-81223250D01*
X136202520Y-81268913D01*
X136202522Y-81268915D01*
X137806204Y-82872597D01*
X137839689Y-82933920D01*
X137834705Y-83003612D01*
X137793449Y-83059082D01*
X137707078Y-83124579D01*
X137615641Y-83245156D01*
X137560124Y-83385938D01*
X137556780Y-83413788D01*
X137549502Y-83474398D01*
X137549502Y-84810602D01*
X137553433Y-84843338D01*
X137560124Y-84899061D01*
X137615641Y-85039843D01*
X137707079Y-85160422D01*
X137827658Y-85251860D01*
X137827659Y-85251860D01*
X137827660Y-85251861D01*
X137968438Y-85307377D01*
X138056900Y-85318000D01*
X138056905Y-85318000D01*
X138943099Y-85318000D01*
X138943104Y-85318000D01*
X139031566Y-85307377D01*
X139172344Y-85251861D01*
X139292924Y-85160422D01*
X139384363Y-85039842D01*
X139439879Y-84899064D01*
X139450502Y-84810602D01*
X139450502Y-84667000D01*
X139470187Y-84599961D01*
X139522991Y-84554206D01*
X139574502Y-84543000D01*
X141539231Y-84543000D01*
X141606270Y-84562685D01*
X141652025Y-84615489D01*
X141661704Y-84647602D01*
X141677829Y-84749411D01*
X141733787Y-84921637D01*
X141733788Y-84921640D01*
X141786652Y-85025388D01*
X141808903Y-85069059D01*
X141816006Y-85082998D01*
X141922441Y-85229495D01*
X141922445Y-85229500D01*
X142050500Y-85357555D01*
X142050505Y-85357559D01*
X142158625Y-85436112D01*
X142197006Y-85463997D01*
X142301783Y-85517384D01*
X142358360Y-85546212D01*
X142358363Y-85546213D01*
X142444476Y-85574192D01*
X142530591Y-85602172D01*
X142643064Y-85619985D01*
X142690675Y-85627527D01*
X142753810Y-85657456D01*
X142790741Y-85716768D01*
X142789743Y-85786630D01*
X142751133Y-85844863D01*
X142690676Y-85872473D01*
X142530589Y-85897829D01*
X142358363Y-85953787D01*
X142358360Y-85953788D01*
X142197002Y-86036006D01*
X142050505Y-86142441D01*
X142050500Y-86142445D01*
X141922445Y-86270500D01*
X141922441Y-86270505D01*
X141816006Y-86417002D01*
X141733788Y-86578360D01*
X141733787Y-86578363D01*
X141677829Y-86750589D01*
X141649500Y-86929448D01*
X141649500Y-87110551D01*
X141677829Y-87289410D01*
X141733787Y-87461636D01*
X141733788Y-87461639D01*
X141816006Y-87622997D01*
X141922441Y-87769494D01*
X141922445Y-87769499D01*
X142050500Y-87897554D01*
X142050505Y-87897558D01*
X142136621Y-87960124D01*
X142197006Y-88003996D01*
X142296192Y-88054534D01*
X142358360Y-88086211D01*
X142358363Y-88086212D01*
X142422581Y-88107077D01*
X142530591Y-88142171D01*
X142613429Y-88155291D01*
X142709449Y-88170500D01*
X142709454Y-88170500D01*
X142890551Y-88170500D01*
X142977259Y-88156765D01*
X143069409Y-88142171D01*
X143241639Y-88086211D01*
X143402994Y-88003996D01*
X143549501Y-87897553D01*
X143677553Y-87769501D01*
X143783996Y-87622994D01*
X143866211Y-87461639D01*
X143922171Y-87289409D01*
X143936765Y-87197259D01*
X143950500Y-87110551D01*
X143950500Y-86929448D01*
X143932527Y-86815975D01*
X143922171Y-86750591D01*
X143866211Y-86578361D01*
X143866211Y-86578360D01*
X143816869Y-86481523D01*
X143783996Y-86417006D01*
X143718404Y-86326726D01*
X143677558Y-86270505D01*
X143677554Y-86270500D01*
X143549499Y-86142445D01*
X143549494Y-86142441D01*
X143402997Y-86036006D01*
X143402996Y-86036005D01*
X143402994Y-86036004D01*
X143351300Y-86009664D01*
X143241639Y-85953788D01*
X143241636Y-85953787D01*
X143069411Y-85897829D01*
X142909323Y-85872473D01*
X142846189Y-85842543D01*
X142809258Y-85783232D01*
X142810256Y-85713369D01*
X142848866Y-85655137D01*
X142909324Y-85627527D01*
X142930860Y-85624115D01*
X143069409Y-85602172D01*
X143241639Y-85546212D01*
X143402994Y-85463997D01*
X143549501Y-85357554D01*
X143677553Y-85229502D01*
X143783996Y-85082995D01*
X143866211Y-84921640D01*
X143922171Y-84749410D01*
X143943382Y-84615489D01*
X143950500Y-84570552D01*
X143950500Y-84389449D01*
X143933077Y-84279451D01*
X143922171Y-84210592D01*
X143870155Y-84050500D01*
X143866212Y-84038364D01*
X143866211Y-84038361D01*
X143837740Y-83982485D01*
X143783996Y-83877007D01*
X143747938Y-83827377D01*
X143677558Y-83730506D01*
X143677554Y-83730501D01*
X143549499Y-83602446D01*
X143549494Y-83602442D01*
X143402997Y-83496007D01*
X143402996Y-83496006D01*
X143402994Y-83496005D01*
X143351300Y-83469665D01*
X143241639Y-83413789D01*
X143241636Y-83413788D01*
X143069410Y-83357830D01*
X142909317Y-83332473D01*
X142846183Y-83302543D01*
X142809252Y-83243232D01*
X142810250Y-83173369D01*
X142848860Y-83115137D01*
X142909318Y-83087527D01*
X142937592Y-83083048D01*
X143069409Y-83062171D01*
X143241639Y-83006211D01*
X143402994Y-82923996D01*
X143549501Y-82817553D01*
X143677553Y-82689501D01*
X143783996Y-82542994D01*
X143866211Y-82381639D01*
X143922171Y-82209409D01*
X143936765Y-82117259D01*
X143950500Y-82030551D01*
X143950500Y-81849448D01*
X143931863Y-81731783D01*
X143922171Y-81670591D01*
X143866211Y-81498361D01*
X143866211Y-81498360D01*
X143834567Y-81436256D01*
X143783996Y-81337006D01*
X143744545Y-81282706D01*
X143677558Y-81190505D01*
X143677554Y-81190500D01*
X143549499Y-81062445D01*
X143549494Y-81062441D01*
X143402997Y-80956006D01*
X143402996Y-80956005D01*
X143402994Y-80956004D01*
X143351300Y-80929664D01*
X143241639Y-80873788D01*
X143241636Y-80873787D01*
X143069410Y-80817829D01*
X142909321Y-80792473D01*
X142846186Y-80762544D01*
X142809255Y-80703232D01*
X142810253Y-80633370D01*
X142848863Y-80575137D01*
X142909321Y-80547527D01*
X142979425Y-80536422D01*
X143069409Y-80522171D01*
X143241639Y-80466211D01*
X143402994Y-80383996D01*
X143549501Y-80277553D01*
X143677553Y-80149501D01*
X143783996Y-80002994D01*
X143866211Y-79841639D01*
X143922171Y-79669409D01*
X143941413Y-79547919D01*
X143950500Y-79490551D01*
X143950500Y-79309448D01*
X143930431Y-79182744D01*
X143922171Y-79130591D01*
X143866211Y-78958361D01*
X143866211Y-78958360D01*
X143818247Y-78864227D01*
X143783996Y-78797006D01*
X143727671Y-78719481D01*
X143677558Y-78650505D01*
X143677554Y-78650500D01*
X143549499Y-78522445D01*
X143549494Y-78522441D01*
X143402997Y-78416006D01*
X143402996Y-78416005D01*
X143402994Y-78416004D01*
X143335832Y-78381783D01*
X143241639Y-78333788D01*
X143241636Y-78333787D01*
X143069410Y-78277829D01*
X142909321Y-78252473D01*
X142846186Y-78222544D01*
X142809255Y-78163232D01*
X142810253Y-78093370D01*
X142848863Y-78035137D01*
X142909321Y-78007527D01*
X142979425Y-77996422D01*
X143069409Y-77982171D01*
X143241639Y-77926211D01*
X143402994Y-77843996D01*
X143549501Y-77737553D01*
X143677553Y-77609501D01*
X143783996Y-77462994D01*
X143866211Y-77301639D01*
X143922171Y-77129409D01*
X143942652Y-77000098D01*
X143950500Y-76950551D01*
X143950500Y-76769448D01*
X143933184Y-76660124D01*
X143922171Y-76590591D01*
X143866211Y-76418361D01*
X143866211Y-76418360D01*
X143831634Y-76350500D01*
X143783996Y-76257006D01*
X143729349Y-76181790D01*
X143677558Y-76110505D01*
X143677554Y-76110500D01*
X143549499Y-75982445D01*
X143549494Y-75982441D01*
X143402997Y-75876006D01*
X143402996Y-75876005D01*
X143402994Y-75876004D01*
X143322257Y-75834866D01*
X143241639Y-75793788D01*
X143241636Y-75793787D01*
X143069410Y-75737829D01*
X142909321Y-75712473D01*
X142846186Y-75682544D01*
X142809255Y-75623232D01*
X142810253Y-75553370D01*
X142848863Y-75495137D01*
X142909321Y-75467527D01*
X142979425Y-75456422D01*
X143069409Y-75442171D01*
X143241639Y-75386211D01*
X143402994Y-75303996D01*
X143549501Y-75197553D01*
X143677553Y-75069501D01*
X143783996Y-74922994D01*
X143866211Y-74761639D01*
X143922171Y-74589409D01*
X143937147Y-74494856D01*
X143950500Y-74410551D01*
X143950500Y-74229448D01*
X143934019Y-74125397D01*
X143922171Y-74050591D01*
X143866211Y-73878361D01*
X143866211Y-73878360D01*
X143815883Y-73779588D01*
X143783996Y-73717006D01*
X143721716Y-73631284D01*
X143677558Y-73570505D01*
X143677554Y-73570500D01*
X143549499Y-73442445D01*
X143549494Y-73442441D01*
X143402997Y-73336006D01*
X143402996Y-73336005D01*
X143402994Y-73336004D01*
X143318469Y-73292936D01*
X143241639Y-73253788D01*
X143241636Y-73253787D01*
X143069410Y-73197829D01*
X142909317Y-73172472D01*
X142846183Y-73142542D01*
X142809252Y-73083231D01*
X142810250Y-73013368D01*
X142848860Y-72955136D01*
X142909318Y-72927526D01*
X142944200Y-72922001D01*
X143069409Y-72902170D01*
X143241639Y-72846210D01*
X143402994Y-72763995D01*
X143549501Y-72657552D01*
X143677553Y-72529500D01*
X143783996Y-72382993D01*
X143866211Y-72221638D01*
X143922171Y-72049408D01*
X143939432Y-71940426D01*
X143950500Y-71870550D01*
X143950500Y-71689447D01*
X143930593Y-71563767D01*
X143922171Y-71510590D01*
X143866211Y-71338360D01*
X143866211Y-71338359D01*
X143805106Y-71218436D01*
X143783996Y-71177005D01*
X143711817Y-71077658D01*
X143677558Y-71030504D01*
X143677554Y-71030499D01*
X143549499Y-70902444D01*
X143549494Y-70902440D01*
X143402997Y-70796005D01*
X143402996Y-70796004D01*
X143402994Y-70796003D01*
X143338994Y-70763393D01*
X143241639Y-70713787D01*
X143241636Y-70713786D01*
X143069411Y-70657828D01*
X142909323Y-70632472D01*
X142846189Y-70602542D01*
X142809258Y-70543231D01*
X142810256Y-70473368D01*
X142848866Y-70415136D01*
X142909324Y-70387526D01*
X142930860Y-70384114D01*
X143069409Y-70362171D01*
X143241639Y-70306211D01*
X143402994Y-70223996D01*
X143549501Y-70117553D01*
X143677553Y-69989501D01*
X143783996Y-69842994D01*
X143866211Y-69681639D01*
X143922171Y-69509409D01*
X143936765Y-69417259D01*
X143950500Y-69330551D01*
X143950500Y-69149448D01*
X143929414Y-69016321D01*
X143922171Y-68970591D01*
X143866211Y-68798361D01*
X143866211Y-68798360D01*
X143837740Y-68742484D01*
X143783996Y-68637006D01*
X143734803Y-68569297D01*
X143677558Y-68490505D01*
X143677554Y-68490500D01*
X143549499Y-68362445D01*
X143549494Y-68362441D01*
X143402997Y-68256006D01*
X143402996Y-68256005D01*
X143402994Y-68256004D01*
X143328547Y-68218071D01*
X143241639Y-68173788D01*
X143241636Y-68173787D01*
X143069410Y-68117829D01*
X142890551Y-68089500D01*
X142890546Y-68089500D01*
X142709454Y-68089500D01*
X142709449Y-68089500D01*
X142530589Y-68117829D01*
X142358363Y-68173787D01*
X142358360Y-68173788D01*
X142197002Y-68256006D01*
X142050505Y-68362441D01*
X142050500Y-68362445D01*
X141922445Y-68490500D01*
X141922441Y-68490505D01*
X141816006Y-68637001D01*
X141803361Y-68661819D01*
X141782883Y-68702011D01*
X141780445Y-68706795D01*
X141732471Y-68757591D01*
X141669960Y-68774500D01*
X139326610Y-68774500D01*
X139259571Y-68754815D01*
X139213816Y-68702011D01*
X139203872Y-68632853D01*
X139232897Y-68569297D01*
X139238929Y-68562819D01*
X139583677Y-68218071D01*
X139940485Y-67861263D01*
X139996503Y-67764237D01*
X140025500Y-67656018D01*
X140025500Y-67543981D01*
X140025500Y-66475098D01*
X140045185Y-66408059D01*
X140061819Y-66387417D01*
X140080520Y-66368716D01*
X140159577Y-66231784D01*
X140200500Y-66079057D01*
X140200500Y-65920943D01*
X140159577Y-65768216D01*
X140159573Y-65768209D01*
X140080524Y-65631290D01*
X140080518Y-65631282D01*
X139968717Y-65519481D01*
X139968709Y-65519475D01*
X139831790Y-65440426D01*
X139831786Y-65440424D01*
X139831784Y-65440423D01*
X139679057Y-65399500D01*
X139520943Y-65399500D01*
X139368216Y-65440423D01*
X139368209Y-65440426D01*
X139231290Y-65519475D01*
X139231282Y-65519481D01*
X139119481Y-65631282D01*
X139119475Y-65631290D01*
X139040426Y-65768209D01*
X139040423Y-65768216D01*
X138999500Y-65920943D01*
X138999500Y-66079056D01*
X139040423Y-66231783D01*
X139040426Y-66231790D01*
X139119475Y-66368709D01*
X139119481Y-66368717D01*
X139138181Y-66387417D01*
X139171666Y-66448740D01*
X139174500Y-66475098D01*
X139174500Y-67372390D01*
X139154815Y-67439429D01*
X139138181Y-67460071D01*
X138660071Y-67938181D01*
X138598748Y-67971666D01*
X138572390Y-67974500D01*
X131675098Y-67974500D01*
X131608059Y-67954815D01*
X131587417Y-67938181D01*
X131568717Y-67919481D01*
X131568709Y-67919475D01*
X131431790Y-67840426D01*
X131431786Y-67840424D01*
X131431784Y-67840423D01*
X131279057Y-67799500D01*
X131120943Y-67799500D01*
X130968216Y-67840423D01*
X130968215Y-67840423D01*
X130880499Y-67891066D01*
X130812599Y-67907538D01*
X130746572Y-67884685D01*
X130703382Y-67829763D01*
X130694500Y-67783678D01*
X130694500Y-61720943D01*
X136199500Y-61720943D01*
X136199500Y-61879057D01*
X136236865Y-62018503D01*
X136240423Y-62031783D01*
X136240426Y-62031790D01*
X136319475Y-62168709D01*
X136319479Y-62168714D01*
X136319480Y-62168716D01*
X136431284Y-62280520D01*
X136431286Y-62280521D01*
X136431290Y-62280524D01*
X136568209Y-62359573D01*
X136568216Y-62359577D01*
X136720943Y-62400500D01*
X136720945Y-62400500D01*
X136879055Y-62400500D01*
X136879057Y-62400500D01*
X137031784Y-62359577D01*
X137168716Y-62280520D01*
X137168721Y-62280514D01*
X137174443Y-62276125D01*
X137239612Y-62250930D01*
X137249931Y-62250500D01*
X138549902Y-62250500D01*
X138616941Y-62270185D01*
X138637583Y-62286819D01*
X138690904Y-62340140D01*
X138690906Y-62340141D01*
X138690910Y-62340144D01*
X138827829Y-62419193D01*
X138827836Y-62419197D01*
X138980563Y-62460120D01*
X138980565Y-62460120D01*
X139138675Y-62460120D01*
X139138677Y-62460120D01*
X139291404Y-62419197D01*
X139428336Y-62340140D01*
X139540140Y-62228336D01*
X139619197Y-62091404D01*
X139660120Y-61938677D01*
X139660120Y-61780563D01*
X139619197Y-61627836D01*
X139584772Y-61568209D01*
X139540144Y-61490910D01*
X139540138Y-61490902D01*
X139428337Y-61379101D01*
X139428329Y-61379095D01*
X139291410Y-61300046D01*
X139291406Y-61300044D01*
X139291404Y-61300043D01*
X139138677Y-61259120D01*
X138980563Y-61259120D01*
X138827836Y-61300043D01*
X138827833Y-61300044D01*
X138797583Y-61317509D01*
X138770946Y-61332887D01*
X138708949Y-61349500D01*
X137249931Y-61349500D01*
X137182892Y-61329815D01*
X137174443Y-61323875D01*
X137168709Y-61319475D01*
X137031790Y-61240426D01*
X137031786Y-61240424D01*
X137031784Y-61240423D01*
X136879057Y-61199500D01*
X136720943Y-61199500D01*
X136568216Y-61240423D01*
X136568209Y-61240426D01*
X136431290Y-61319475D01*
X136431282Y-61319481D01*
X136319481Y-61431282D01*
X136319475Y-61431290D01*
X136240426Y-61568209D01*
X136240423Y-61568216D01*
X136199500Y-61720943D01*
X130694500Y-61720943D01*
X130694500Y-59311306D01*
X130694499Y-59311304D01*
X130659896Y-59137341D01*
X130659893Y-59137332D01*
X130644470Y-59100098D01*
X130626325Y-59056290D01*
X130592016Y-58973459D01*
X130592009Y-58973446D01*
X130493464Y-58825965D01*
X130493461Y-58825961D01*
X130368038Y-58700538D01*
X130368034Y-58700535D01*
X130220553Y-58601990D01*
X130220540Y-58601983D01*
X130056667Y-58534106D01*
X130056658Y-58534103D01*
X129882694Y-58499500D01*
X129882691Y-58499500D01*
X129705309Y-58499500D01*
X129705306Y-58499500D01*
X129531341Y-58534103D01*
X129531332Y-58534106D01*
X129367459Y-58601983D01*
X129367446Y-58601990D01*
X129219965Y-58700535D01*
X129219961Y-58700538D01*
X129094538Y-58825961D01*
X129094535Y-58825965D01*
X128995990Y-58973446D01*
X128995983Y-58973459D01*
X128928106Y-59137332D01*
X128928103Y-59137341D01*
X128893500Y-59311304D01*
X128893500Y-69725499D01*
X128873815Y-69792538D01*
X128821011Y-69838293D01*
X128769500Y-69849499D01*
X128720943Y-69849499D01*
X128568216Y-69890422D01*
X128568209Y-69890425D01*
X128431290Y-69969474D01*
X128431282Y-69969480D01*
X128319481Y-70081281D01*
X128319475Y-70081289D01*
X128240426Y-70218208D01*
X128240423Y-70218215D01*
X128199500Y-70370942D01*
X117380500Y-70370942D01*
X117380500Y-67500098D01*
X117400185Y-67433059D01*
X117416819Y-67412417D01*
X117428736Y-67400500D01*
X117460520Y-67368716D01*
X117539577Y-67231784D01*
X117580500Y-67079057D01*
X117580500Y-66920943D01*
X117539577Y-66768216D01*
X117523461Y-66740302D01*
X117460524Y-66631290D01*
X117460518Y-66631282D01*
X117348718Y-66519482D01*
X117348716Y-66519480D01*
X117338558Y-66513615D01*
X117313498Y-66499146D01*
X117265283Y-66448578D01*
X117251500Y-66391760D01*
X117251500Y-65302932D01*
X117271185Y-65235893D01*
X117323989Y-65190138D01*
X117393147Y-65180194D01*
X117456703Y-65209219D01*
X117463181Y-65215251D01*
X120709193Y-68461263D01*
X120788415Y-68540485D01*
X120885441Y-68596503D01*
X120993659Y-68625500D01*
X120993660Y-68625500D01*
X125974901Y-68625500D01*
X126041940Y-68645185D01*
X126062582Y-68661819D01*
X126081283Y-68680520D01*
X126081285Y-68680521D01*
X126081289Y-68680524D01*
X126158547Y-68725128D01*
X126218215Y-68759577D01*
X126370942Y-68800500D01*
X126370944Y-68800500D01*
X126529054Y-68800500D01*
X126529056Y-68800500D01*
X126681783Y-68759577D01*
X126818715Y-68680520D01*
X126930519Y-68568716D01*
X127009576Y-68431784D01*
X127050499Y-68279057D01*
X127050499Y-68120943D01*
X127009576Y-67968216D01*
X127001839Y-67954815D01*
X126930523Y-67831290D01*
X126930517Y-67831282D01*
X126818716Y-67719481D01*
X126818708Y-67719475D01*
X126681789Y-67640426D01*
X126681785Y-67640424D01*
X126681783Y-67640423D01*
X126529056Y-67599500D01*
X126370942Y-67599500D01*
X126218215Y-67640423D01*
X126218208Y-67640426D01*
X126081289Y-67719475D01*
X126081281Y-67719481D01*
X126062582Y-67738181D01*
X126001259Y-67771666D01*
X125974901Y-67774500D01*
X121277288Y-67774500D01*
X121210249Y-67754815D01*
X121189607Y-67738181D01*
X115537819Y-62086393D01*
X115504334Y-62025070D01*
X115501500Y-61998712D01*
X115501500Y-60342661D01*
X115501500Y-60342660D01*
X115487949Y-60292088D01*
X115487949Y-60292087D01*
X115487949Y-60292086D01*
X115477903Y-60254592D01*
X115479566Y-60184742D01*
X115518730Y-60126880D01*
X115582958Y-60099377D01*
X115597678Y-60098500D01*
X116375500Y-60098500D01*
X116442539Y-60118185D01*
X116488294Y-60170989D01*
X116496508Y-60208751D01*
X116498439Y-60208497D01*
X116499500Y-60216556D01*
X116499500Y-60216557D01*
X116540423Y-60369282D01*
X116540423Y-60369283D01*
X116540426Y-60369290D01*
X116619475Y-60506209D01*
X116619479Y-60506214D01*
X116619480Y-60506216D01*
X116731284Y-60618020D01*
X116731286Y-60618021D01*
X116731290Y-60618024D01*
X116827379Y-60673500D01*
X116868216Y-60697077D01*
X117020943Y-60738000D01*
X117020945Y-60738000D01*
X117179055Y-60738000D01*
X117179057Y-60738000D01*
X117331784Y-60697077D01*
X117468716Y-60618020D01*
X117580520Y-60506216D01*
X117659577Y-60369284D01*
X117674365Y-60314090D01*
X117710728Y-60254433D01*
X117773574Y-60223903D01*
X117842950Y-60232197D01*
X117881820Y-60258505D01*
X118752781Y-61129466D01*
X118918389Y-61249787D01*
X119007846Y-61295367D01*
X119100780Y-61342721D01*
X119100783Y-61342722D01*
X119198123Y-61374349D01*
X119295465Y-61405977D01*
X119497648Y-61438000D01*
X119497649Y-61438000D01*
X119702350Y-61438000D01*
X119702351Y-61438000D01*
X119904534Y-61405977D01*
X120099217Y-61342721D01*
X120281610Y-61249787D01*
X120447218Y-61129466D01*
X120591965Y-60984719D01*
X120712286Y-60819111D01*
X120805220Y-60636718D01*
X120868476Y-60442035D01*
X120900499Y-60239852D01*
X120900499Y-60035149D01*
X120868476Y-59832966D01*
X120805220Y-59638282D01*
X120805220Y-59638281D01*
X120728573Y-59487855D01*
X120712286Y-59455890D01*
X120591965Y-59290282D01*
X118995257Y-57693574D01*
X117302181Y-56000497D01*
X117222627Y-55920943D01*
X121065500Y-55920943D01*
X121065500Y-56079057D01*
X121093367Y-56183056D01*
X121106423Y-56231783D01*
X121106424Y-56231786D01*
X121182887Y-56364225D01*
X121199500Y-56426225D01*
X121199500Y-57114467D01*
X121226793Y-57216330D01*
X121253156Y-57261991D01*
X121279520Y-57307654D01*
X121279522Y-57307656D01*
X121881888Y-57910022D01*
X121915373Y-57971345D01*
X121910389Y-58041037D01*
X121868517Y-58096970D01*
X121856208Y-58105090D01*
X121831284Y-58119479D01*
X121719481Y-58231282D01*
X121719475Y-58231290D01*
X121640426Y-58368209D01*
X121640423Y-58368216D01*
X121599500Y-58520943D01*
X121599500Y-58679057D01*
X121638472Y-58824500D01*
X121640423Y-58831783D01*
X121640426Y-58831790D01*
X121719475Y-58968709D01*
X121719481Y-58968717D01*
X121763181Y-59012417D01*
X121796666Y-59073740D01*
X121799500Y-59100098D01*
X121799500Y-61628549D01*
X121814823Y-61685734D01*
X121830201Y-61743127D01*
X121889511Y-61845854D01*
X121889513Y-61845856D01*
X123703679Y-63660022D01*
X123737164Y-63721345D01*
X123738936Y-63731513D01*
X123739878Y-63738670D01*
X123780803Y-63891403D01*
X123780806Y-63891410D01*
X123859855Y-64028329D01*
X123859859Y-64028334D01*
X123859860Y-64028336D01*
X123971664Y-64140140D01*
X123971666Y-64140141D01*
X123971670Y-64140144D01*
X124108589Y-64219193D01*
X124108596Y-64219197D01*
X124261323Y-64260120D01*
X124261325Y-64260120D01*
X124419435Y-64260120D01*
X124419437Y-64260120D01*
X124572164Y-64219197D01*
X124709096Y-64140140D01*
X124820900Y-64028336D01*
X124899957Y-63891404D01*
X124940880Y-63738677D01*
X124940880Y-63580563D01*
X124899957Y-63427836D01*
X124899953Y-63427829D01*
X124820904Y-63290910D01*
X124820898Y-63290902D01*
X124709097Y-63179101D01*
X124709089Y-63179095D01*
X124572170Y-63100046D01*
X124572166Y-63100044D01*
X124572164Y-63100043D01*
X124419437Y-63059120D01*
X124419430Y-63059118D01*
X124412273Y-63058176D01*
X124348377Y-63029907D01*
X124340783Y-63022919D01*
X122736819Y-61418955D01*
X122703334Y-61357632D01*
X122700500Y-61331274D01*
X122700500Y-59098706D01*
X122720185Y-59031667D01*
X122772989Y-58985912D01*
X122842147Y-58975968D01*
X122905703Y-59004993D01*
X122912181Y-59011025D01*
X123713181Y-59812025D01*
X123746666Y-59873348D01*
X123749500Y-59899706D01*
X123749500Y-60950069D01*
X123729815Y-61017108D01*
X123723875Y-61025557D01*
X123719475Y-61031290D01*
X123640426Y-61168209D01*
X123640423Y-61168216D01*
X123599500Y-61320943D01*
X123599500Y-61479057D01*
X123639364Y-61627829D01*
X123640423Y-61631783D01*
X123640426Y-61631790D01*
X123719475Y-61768709D01*
X123719479Y-61768714D01*
X123719480Y-61768716D01*
X123831284Y-61880520D01*
X123831286Y-61880521D01*
X123831290Y-61880524D01*
X123968209Y-61959573D01*
X123968216Y-61959577D01*
X124120943Y-62000500D01*
X124120945Y-62000500D01*
X124279055Y-62000500D01*
X124279057Y-62000500D01*
X124431784Y-61959577D01*
X124568716Y-61880520D01*
X124680520Y-61768716D01*
X124759577Y-61631784D01*
X124800500Y-61479057D01*
X124800500Y-61320943D01*
X124759577Y-61168216D01*
X124737203Y-61129463D01*
X124680524Y-61031290D01*
X124680521Y-61031287D01*
X124680520Y-61031284D01*
X124680517Y-61031281D01*
X124676125Y-61025557D01*
X124650930Y-60960388D01*
X124650500Y-60950069D01*
X124650500Y-59602434D01*
X124650500Y-59602432D01*
X124619799Y-59487855D01*
X124619799Y-59487854D01*
X124619799Y-59487853D01*
X124560492Y-59385130D01*
X124560488Y-59385125D01*
X123388311Y-58212949D01*
X123388309Y-58212947D01*
X123285582Y-58153637D01*
X123280387Y-58152245D01*
X123224803Y-58120152D01*
X122036819Y-56932167D01*
X122003334Y-56870844D01*
X122000500Y-56844486D01*
X122000500Y-56566098D01*
X122020185Y-56499059D01*
X122036819Y-56478417D01*
X122089011Y-56426225D01*
X122146520Y-56368716D01*
X122225577Y-56231784D01*
X122266500Y-56079057D01*
X122266500Y-56024943D01*
X123539500Y-56024943D01*
X123539500Y-56183057D01*
X123552557Y-56231784D01*
X123580423Y-56335783D01*
X123580426Y-56335790D01*
X123659475Y-56472709D01*
X123659479Y-56472714D01*
X123659480Y-56472716D01*
X123771284Y-56584520D01*
X123771286Y-56584521D01*
X123771290Y-56584524D01*
X123908209Y-56663573D01*
X123908216Y-56663577D01*
X124060943Y-56704500D01*
X124122745Y-56704500D01*
X124189784Y-56724185D01*
X124210426Y-56740819D01*
X125163181Y-57693574D01*
X125196666Y-57754897D01*
X125199500Y-57781255D01*
X125199500Y-60299902D01*
X125179815Y-60366941D01*
X125163181Y-60387583D01*
X125119481Y-60431282D01*
X125119475Y-60431290D01*
X125040426Y-60568209D01*
X125040423Y-60568216D01*
X124999500Y-60720943D01*
X124999500Y-60879057D01*
X125038755Y-61025557D01*
X125040423Y-61031783D01*
X125040426Y-61031790D01*
X125119475Y-61168709D01*
X125119479Y-61168714D01*
X125119480Y-61168716D01*
X125231284Y-61280520D01*
X125231286Y-61280521D01*
X125231290Y-61280524D01*
X125316666Y-61329815D01*
X125368216Y-61359577D01*
X125520943Y-61400500D01*
X125520945Y-61400500D01*
X125679055Y-61400500D01*
X125679057Y-61400500D01*
X125831784Y-61359577D01*
X125968716Y-61280520D01*
X126080520Y-61168716D01*
X126159577Y-61031784D01*
X126200500Y-60879057D01*
X126200500Y-60720943D01*
X126159577Y-60568216D01*
X126150408Y-60552334D01*
X126080524Y-60431290D01*
X126080518Y-60431282D01*
X126036819Y-60387583D01*
X126003334Y-60326260D01*
X126000500Y-60299902D01*
X126000500Y-57920943D01*
X132599500Y-57920943D01*
X132599500Y-58079057D01*
X132640289Y-58231282D01*
X132640423Y-58231783D01*
X132640426Y-58231790D01*
X132719473Y-58368706D01*
X132719477Y-58368712D01*
X132719480Y-58368716D01*
X132719482Y-58368718D01*
X132723872Y-58374438D01*
X132749069Y-58439606D01*
X132749500Y-58449930D01*
X132749500Y-60350069D01*
X132729815Y-60417108D01*
X132723875Y-60425557D01*
X132719475Y-60431290D01*
X132640426Y-60568209D01*
X132640423Y-60568216D01*
X132599500Y-60720943D01*
X132599500Y-60879057D01*
X132638755Y-61025557D01*
X132640423Y-61031783D01*
X132640426Y-61031790D01*
X132719475Y-61168709D01*
X132719479Y-61168714D01*
X132719480Y-61168716D01*
X132831284Y-61280520D01*
X132831286Y-61280521D01*
X132831290Y-61280524D01*
X132916666Y-61329815D01*
X132968216Y-61359577D01*
X133120943Y-61400500D01*
X133120945Y-61400500D01*
X133279055Y-61400500D01*
X133279057Y-61400500D01*
X133431784Y-61359577D01*
X133568716Y-61280520D01*
X133680520Y-61168716D01*
X133759577Y-61031784D01*
X133800500Y-60879057D01*
X133800500Y-60720943D01*
X133759577Y-60568216D01*
X133750408Y-60552334D01*
X133680524Y-60431290D01*
X133680521Y-60431287D01*
X133680520Y-60431284D01*
X133680517Y-60431281D01*
X133676125Y-60425557D01*
X133650930Y-60360388D01*
X133650500Y-60350069D01*
X133650500Y-58449930D01*
X133670185Y-58382891D01*
X133676128Y-58374438D01*
X133680512Y-58368723D01*
X133680520Y-58368716D01*
X133759577Y-58231784D01*
X133800500Y-58079057D01*
X133800500Y-57920943D01*
X133759577Y-57768216D01*
X133751887Y-57754897D01*
X133680524Y-57631290D01*
X133680518Y-57631282D01*
X133568717Y-57519481D01*
X133568709Y-57519475D01*
X133431790Y-57440426D01*
X133431786Y-57440424D01*
X133431784Y-57440423D01*
X133279057Y-57399500D01*
X133120943Y-57399500D01*
X132968216Y-57440423D01*
X132968209Y-57440426D01*
X132831290Y-57519475D01*
X132831282Y-57519481D01*
X132719481Y-57631282D01*
X132719475Y-57631290D01*
X132640426Y-57768209D01*
X132640423Y-57768216D01*
X132599500Y-57920943D01*
X126000500Y-57920943D01*
X126000500Y-57511275D01*
X126000500Y-57511273D01*
X125973207Y-57409413D01*
X125973207Y-57409412D01*
X125920480Y-57318087D01*
X124776819Y-56174426D01*
X124743334Y-56113103D01*
X124740500Y-56086745D01*
X124740500Y-56024945D01*
X124740500Y-56024943D01*
X124699577Y-55872216D01*
X124699573Y-55872209D01*
X124620524Y-55735290D01*
X124620518Y-55735282D01*
X124508717Y-55623481D01*
X124508709Y-55623475D01*
X124371790Y-55544426D01*
X124371786Y-55544424D01*
X124371784Y-55544423D01*
X124219057Y-55503500D01*
X124060943Y-55503500D01*
X123908216Y-55544423D01*
X123908209Y-55544426D01*
X123771290Y-55623475D01*
X123771282Y-55623481D01*
X123659481Y-55735282D01*
X123659475Y-55735290D01*
X123580426Y-55872209D01*
X123580423Y-55872216D01*
X123539500Y-56024943D01*
X122266500Y-56024943D01*
X122266500Y-55920943D01*
X122225577Y-55768216D01*
X122225573Y-55768209D01*
X122146524Y-55631290D01*
X122146518Y-55631282D01*
X122034717Y-55519481D01*
X122034709Y-55519475D01*
X121897790Y-55440426D01*
X121897786Y-55440424D01*
X121897784Y-55440423D01*
X121745057Y-55399500D01*
X121586943Y-55399500D01*
X121434216Y-55440423D01*
X121434209Y-55440426D01*
X121297290Y-55519475D01*
X121297282Y-55519481D01*
X121185481Y-55631282D01*
X121185475Y-55631290D01*
X121106426Y-55768209D01*
X121106423Y-55768216D01*
X121065500Y-55920943D01*
X117222627Y-55920943D01*
X114125509Y-52823825D01*
X114092024Y-52762502D01*
X114097008Y-52692810D01*
X114138880Y-52636877D01*
X114204344Y-52612460D01*
X114215342Y-52612163D01*
X121119259Y-52733284D01*
X121185940Y-52754142D01*
X121230762Y-52807740D01*
X121236856Y-52825171D01*
X121265423Y-52931785D01*
X121265426Y-52931790D01*
X121344475Y-53068709D01*
X121344479Y-53068714D01*
X121344480Y-53068716D01*
X121456284Y-53180520D01*
X121456286Y-53180521D01*
X121456290Y-53180524D01*
X121526112Y-53220835D01*
X121593216Y-53259577D01*
X121745943Y-53300500D01*
X121745945Y-53300500D01*
X121904055Y-53300500D01*
X121904057Y-53300500D01*
X122056784Y-53259577D01*
X122193716Y-53180520D01*
X122305520Y-53068716D01*
X122384577Y-52931784D01*
X122406519Y-52849891D01*
X122442882Y-52790235D01*
X122505729Y-52759705D01*
X122528458Y-52758007D01*
X124501841Y-52792628D01*
X124605550Y-52794448D01*
X124605550Y-52794447D01*
X144665678Y-53146380D01*
X144732359Y-53167237D01*
X144777181Y-53220835D01*
X144787500Y-53270360D01*
X144787500Y-95133500D01*
X144767815Y-95200539D01*
X144715011Y-95246294D01*
X144663500Y-95257500D01*
X138515207Y-95257500D01*
X138448168Y-95237815D01*
X138402413Y-95185011D01*
X138392469Y-95115853D01*
X138421494Y-95052297D01*
X138427526Y-95045819D01*
X138430420Y-95042924D01*
X138521860Y-94922343D01*
X138521859Y-94922343D01*
X138521861Y-94922342D01*
X138577377Y-94781564D01*
X138588000Y-94693102D01*
X138588000Y-93306898D01*
X138577377Y-93218436D01*
X138521861Y-93077658D01*
X138521860Y-93077657D01*
X138521860Y-93077656D01*
X138430422Y-92957077D01*
X138309843Y-92865639D01*
X138169061Y-92810122D01*
X138122522Y-92804534D01*
X138080602Y-92799500D01*
X137169398Y-92799500D01*
X137130353Y-92804188D01*
X137080938Y-92810122D01*
X136940156Y-92865639D01*
X136819577Y-92957077D01*
X136728139Y-93077656D01*
X136672622Y-93218438D01*
X136669631Y-93243350D01*
X136662000Y-93306898D01*
X136662000Y-94693102D01*
X136667626Y-94739954D01*
X136672622Y-94781561D01*
X136728139Y-94922343D01*
X136819579Y-95042924D01*
X136822474Y-95045819D01*
X136824273Y-95049114D01*
X136824703Y-95049681D01*
X136824618Y-95049745D01*
X136855959Y-95107142D01*
X136850975Y-95176834D01*
X136809103Y-95232767D01*
X136743639Y-95257184D01*
X136734793Y-95257500D01*
X135390207Y-95257500D01*
X135323168Y-95237815D01*
X135277413Y-95185011D01*
X135267469Y-95115853D01*
X135296494Y-95052297D01*
X135302526Y-95045819D01*
X135305420Y-95042924D01*
X135396860Y-94922343D01*
X135396859Y-94922343D01*
X135396861Y-94922342D01*
X135452377Y-94781564D01*
X135463000Y-94693102D01*
X135463000Y-93306898D01*
X135452377Y-93218436D01*
X135396861Y-93077658D01*
X135396860Y-93077657D01*
X135396860Y-93077656D01*
X135305422Y-92957077D01*
X135184843Y-92865639D01*
X135044061Y-92810122D01*
X134997522Y-92804534D01*
X134955602Y-92799500D01*
X134955597Y-92799500D01*
X134399099Y-92799500D01*
X134332060Y-92779815D01*
X134286305Y-92727011D01*
X134276361Y-92657853D01*
X134305386Y-92594297D01*
X134311417Y-92587819D01*
X134320180Y-92579056D01*
X134380520Y-92518716D01*
X134459577Y-92381784D01*
X134500500Y-92229057D01*
X134500500Y-92070943D01*
X134459577Y-91918216D01*
X134449838Y-91901348D01*
X134380524Y-91781290D01*
X134380518Y-91781282D01*
X134268717Y-91669481D01*
X134268709Y-91669475D01*
X134131790Y-91590426D01*
X134131786Y-91590424D01*
X134131784Y-91590423D01*
X133979057Y-91549500D01*
X133820943Y-91549500D01*
X133668216Y-91590423D01*
X133668209Y-91590426D01*
X133531290Y-91669475D01*
X133531282Y-91669481D01*
X133419481Y-91781282D01*
X133419475Y-91781290D01*
X133340426Y-91918209D01*
X133340423Y-91918216D01*
X133318302Y-92000776D01*
X133316475Y-92007593D01*
X133280110Y-92067254D01*
X133217263Y-92097783D01*
X133196700Y-92099500D01*
X131536819Y-92099500D01*
X131469780Y-92079815D01*
X131424025Y-92027011D01*
X131414081Y-91957853D01*
X131433717Y-91906609D01*
X131437235Y-91901343D01*
X131437235Y-91901342D01*
X131437239Y-91901337D01*
X131495698Y-91760205D01*
X131525500Y-91610380D01*
X131525500Y-91457620D01*
X131495698Y-91307795D01*
X131437239Y-91166663D01*
X131437238Y-91166662D01*
X131437235Y-91166656D01*
X131352370Y-91039648D01*
X131352367Y-91039644D01*
X131244355Y-90931632D01*
X131244351Y-90931629D01*
X131117343Y-90846764D01*
X131117334Y-90846759D01*
X130976205Y-90788302D01*
X130976197Y-90788300D01*
X130826384Y-90758500D01*
X130826380Y-90758500D01*
X130373620Y-90758500D01*
X130373615Y-90758500D01*
X130223802Y-90788300D01*
X130223794Y-90788302D01*
X130082665Y-90846759D01*
X130082656Y-90846764D01*
X129955648Y-90931629D01*
X129955644Y-90931632D01*
X129847632Y-91039644D01*
X129847629Y-91039648D01*
X129762764Y-91166656D01*
X129762759Y-91166665D01*
X129704302Y-91307794D01*
X129704300Y-91307802D01*
X129674500Y-91457615D01*
X129674500Y-91610384D01*
X129704300Y-91760197D01*
X129704302Y-91760205D01*
X129762759Y-91901334D01*
X129762767Y-91901348D01*
X129801018Y-91958595D01*
X129821896Y-92025272D01*
X129803411Y-92092652D01*
X129785599Y-92115164D01*
X129769482Y-92131281D01*
X129769475Y-92131290D01*
X129690426Y-92268209D01*
X129690423Y-92268216D01*
X129649500Y-92420943D01*
X129649500Y-92579057D01*
X129671166Y-92659913D01*
X129690423Y-92731783D01*
X129690426Y-92731790D01*
X129769475Y-92868709D01*
X129769479Y-92868714D01*
X129769480Y-92868716D01*
X129881284Y-92980520D01*
X129881286Y-92980521D01*
X129881290Y-92980524D01*
X129988026Y-93042147D01*
X130018216Y-93059577D01*
X130170943Y-93100500D01*
X130170945Y-93100500D01*
X130329055Y-93100500D01*
X130329057Y-93100500D01*
X130481784Y-93059577D01*
X130618716Y-92980520D01*
X130662417Y-92936819D01*
X130723740Y-92903334D01*
X130750098Y-92900500D01*
X133490808Y-92900500D01*
X133557847Y-92920185D01*
X133603602Y-92972989D01*
X133613546Y-93042147D01*
X133606163Y-93069990D01*
X133547622Y-93218438D01*
X133544631Y-93243350D01*
X133537000Y-93306898D01*
X133537000Y-94693102D01*
X133542626Y-94739954D01*
X133547622Y-94781561D01*
X133603139Y-94922343D01*
X133694579Y-95042924D01*
X133697474Y-95045819D01*
X133699273Y-95049114D01*
X133699703Y-95049681D01*
X133699618Y-95049745D01*
X133730959Y-95107142D01*
X133725975Y-95176834D01*
X133684103Y-95232767D01*
X133618639Y-95257184D01*
X133609793Y-95257500D01*
X132260159Y-95257500D01*
X132193120Y-95237815D01*
X132147365Y-95185011D01*
X132137421Y-95115853D01*
X132166446Y-95052297D01*
X132172478Y-95045819D01*
X132179065Y-95039231D01*
X132179068Y-95039228D01*
X132260653Y-94917127D01*
X132316851Y-94781454D01*
X132345500Y-94637425D01*
X132345500Y-93830575D01*
X132316851Y-93686546D01*
X132260653Y-93550873D01*
X132260652Y-93550872D01*
X132260649Y-93550866D01*
X132179068Y-93428772D01*
X132179065Y-93428768D01*
X132075231Y-93324934D01*
X132075227Y-93324931D01*
X131953133Y-93243350D01*
X131953124Y-93243345D01*
X131817454Y-93187149D01*
X131817446Y-93187147D01*
X131673429Y-93158500D01*
X131673425Y-93158500D01*
X131526575Y-93158500D01*
X131526570Y-93158500D01*
X131382553Y-93187147D01*
X131382545Y-93187149D01*
X131246875Y-93243345D01*
X131246866Y-93243350D01*
X131124772Y-93324931D01*
X131124768Y-93324934D01*
X131020934Y-93428768D01*
X131020931Y-93428772D01*
X130939350Y-93550866D01*
X130939345Y-93550875D01*
X130883149Y-93686545D01*
X130883147Y-93686553D01*
X130854500Y-93830570D01*
X130854500Y-94637429D01*
X130883147Y-94781446D01*
X130883149Y-94781454D01*
X130939345Y-94917124D01*
X130939350Y-94917133D01*
X131020931Y-95039227D01*
X131020934Y-95039231D01*
X131027522Y-95045819D01*
X131061007Y-95107142D01*
X131056023Y-95176834D01*
X131014151Y-95232767D01*
X130948687Y-95257184D01*
X130939841Y-95257500D01*
X125260159Y-95257500D01*
X125193120Y-95237815D01*
X125147365Y-95185011D01*
X125137421Y-95115853D01*
X125166446Y-95052297D01*
X125172478Y-95045819D01*
X125179065Y-95039231D01*
X125179068Y-95039228D01*
X125260653Y-94917127D01*
X125316851Y-94781454D01*
X125345500Y-94637425D01*
X125345500Y-93830575D01*
X125316851Y-93686546D01*
X125260653Y-93550873D01*
X125260652Y-93550872D01*
X125260649Y-93550866D01*
X125179068Y-93428772D01*
X125179065Y-93428768D01*
X125075231Y-93324934D01*
X125075227Y-93324931D01*
X124953133Y-93243350D01*
X124953124Y-93243345D01*
X124817454Y-93187149D01*
X124817446Y-93187147D01*
X124673429Y-93158500D01*
X124673425Y-93158500D01*
X124526575Y-93158500D01*
X124526570Y-93158500D01*
X124382553Y-93187147D01*
X124382545Y-93187149D01*
X124246875Y-93243345D01*
X124246866Y-93243350D01*
X124124772Y-93324931D01*
X124124768Y-93324934D01*
X124020934Y-93428768D01*
X124020931Y-93428772D01*
X123939350Y-93550866D01*
X123939345Y-93550875D01*
X123883149Y-93686545D01*
X123883147Y-93686553D01*
X123854500Y-93830570D01*
X123854500Y-94637429D01*
X123883147Y-94781446D01*
X123883149Y-94781454D01*
X123939345Y-94917124D01*
X123939350Y-94917133D01*
X124020931Y-95039227D01*
X124020934Y-95039231D01*
X124027522Y-95045819D01*
X124061007Y-95107142D01*
X124056023Y-95176834D01*
X124014151Y-95232767D01*
X123948687Y-95257184D01*
X123939841Y-95257500D01*
X108066500Y-95257500D01*
X107999461Y-95237815D01*
X107953706Y-95185011D01*
X107942500Y-95133500D01*
X107942500Y-77156900D01*
X110324500Y-77156900D01*
X110324500Y-78043104D01*
X110330126Y-78089956D01*
X110335122Y-78131563D01*
X110335122Y-78131565D01*
X110335123Y-78131566D01*
X110347611Y-78163232D01*
X110390639Y-78272345D01*
X110482077Y-78392924D01*
X110602656Y-78484362D01*
X110602657Y-78484362D01*
X110602658Y-78484363D01*
X110743436Y-78539879D01*
X110831898Y-78550502D01*
X110975500Y-78550502D01*
X111042539Y-78570187D01*
X111088294Y-78622991D01*
X111099500Y-78674502D01*
X111099500Y-81148612D01*
X111099500Y-81254066D01*
X111107174Y-81282706D01*
X111126793Y-81355928D01*
X111134466Y-81369217D01*
X111179520Y-81447252D01*
X111179522Y-81447254D01*
X113784421Y-84052153D01*
X113817906Y-84113476D01*
X113812922Y-84183168D01*
X113771050Y-84239101D01*
X113705586Y-84263518D01*
X113680555Y-84262773D01*
X113579744Y-84249501D01*
X113579739Y-84249500D01*
X113579734Y-84249500D01*
X113350266Y-84249500D01*
X113350258Y-84249500D01*
X113133715Y-84278009D01*
X113122762Y-84279452D01*
X113029076Y-84304554D01*
X112901112Y-84338842D01*
X112689123Y-84426650D01*
X112689109Y-84426657D01*
X112490382Y-84541392D01*
X112308338Y-84681081D01*
X112146081Y-84843338D01*
X112006392Y-85025382D01*
X111891657Y-85224109D01*
X111891650Y-85224123D01*
X111803842Y-85436112D01*
X111784730Y-85507440D01*
X111745156Y-85655137D01*
X111744453Y-85657759D01*
X111744451Y-85657770D01*
X111714500Y-85885258D01*
X111714500Y-86114741D01*
X111728293Y-86219500D01*
X111744452Y-86342238D01*
X111780573Y-86477046D01*
X111803842Y-86563887D01*
X111891650Y-86775876D01*
X111891657Y-86775890D01*
X112006392Y-86974617D01*
X112146081Y-87156661D01*
X112146089Y-87156670D01*
X112308330Y-87318911D01*
X112308338Y-87318918D01*
X112490382Y-87458607D01*
X112490385Y-87458608D01*
X112490388Y-87458611D01*
X112689112Y-87573344D01*
X112689117Y-87573346D01*
X112689123Y-87573349D01*
X112780480Y-87611190D01*
X112901113Y-87661158D01*
X113122762Y-87720548D01*
X113350266Y-87750500D01*
X113350273Y-87750500D01*
X113579727Y-87750500D01*
X113579734Y-87750500D01*
X113807238Y-87720548D01*
X114028887Y-87661158D01*
X114240888Y-87573344D01*
X114439612Y-87458611D01*
X114621661Y-87318919D01*
X114621665Y-87318914D01*
X114621670Y-87318911D01*
X114783911Y-87156670D01*
X114783914Y-87156665D01*
X114783919Y-87156661D01*
X114923611Y-86974612D01*
X115038344Y-86775888D01*
X115126158Y-86563887D01*
X115185548Y-86342238D01*
X115215500Y-86114734D01*
X115215500Y-85885266D01*
X115202226Y-85784443D01*
X115212991Y-85715410D01*
X115259371Y-85663154D01*
X115326640Y-85644268D01*
X115393440Y-85664748D01*
X115412846Y-85680578D01*
X117348181Y-87615913D01*
X117362884Y-87642840D01*
X117379477Y-87668659D01*
X117380368Y-87674859D01*
X117381666Y-87677236D01*
X117384500Y-87703594D01*
X117384500Y-87825500D01*
X117364815Y-87892539D01*
X117312011Y-87938294D01*
X117260506Y-87949500D01*
X117241908Y-87949500D01*
X117153437Y-87960123D01*
X117012657Y-88015639D01*
X117012655Y-88015640D01*
X116892077Y-88107077D01*
X116800640Y-88227655D01*
X116745124Y-88368437D01*
X116745123Y-88368438D01*
X116734500Y-88456900D01*
X116734500Y-89543091D01*
X116745123Y-89631562D01*
X116800639Y-89772342D01*
X116800640Y-89772344D01*
X116892077Y-89892922D01*
X117012655Y-89984359D01*
X117012658Y-89984361D01*
X117153436Y-90039876D01*
X117241901Y-90050500D01*
X118328098Y-90050499D01*
X118416564Y-90039876D01*
X118557342Y-89984361D01*
X118677922Y-89892922D01*
X118769361Y-89772342D01*
X118824876Y-89631564D01*
X118835500Y-89543099D01*
X118835499Y-88896530D01*
X119734500Y-88896530D01*
X119734500Y-89103469D01*
X119772257Y-89293284D01*
X119774870Y-89306420D01*
X119854059Y-89497598D01*
X119890894Y-89552726D01*
X119969024Y-89669657D01*
X120115342Y-89815975D01*
X120115345Y-89815977D01*
X120287402Y-89930941D01*
X120301593Y-89936819D01*
X120307952Y-89939453D01*
X120362356Y-89983293D01*
X120384421Y-90049587D01*
X120384500Y-90054014D01*
X120384500Y-91474953D01*
X120364815Y-91541992D01*
X120348181Y-91562634D01*
X120258032Y-91652782D01*
X120258028Y-91652786D01*
X120137715Y-91818386D01*
X120044781Y-92000776D01*
X119981522Y-92195465D01*
X119949500Y-92397648D01*
X119949500Y-92602351D01*
X119981522Y-92804534D01*
X120044781Y-92999223D01*
X120137715Y-93181613D01*
X120258028Y-93347213D01*
X120402786Y-93491971D01*
X120557749Y-93604556D01*
X120568390Y-93612287D01*
X120684607Y-93671503D01*
X120750776Y-93705218D01*
X120750778Y-93705218D01*
X120750781Y-93705220D01*
X120855137Y-93739127D01*
X120945465Y-93768477D01*
X121046557Y-93784488D01*
X121147648Y-93800500D01*
X121147649Y-93800500D01*
X121352351Y-93800500D01*
X121352352Y-93800500D01*
X121554534Y-93768477D01*
X121749219Y-93705220D01*
X121931610Y-93612287D01*
X122024590Y-93544732D01*
X122097213Y-93491971D01*
X122097215Y-93491968D01*
X122097219Y-93491966D01*
X122241966Y-93347219D01*
X122241968Y-93347215D01*
X122241971Y-93347213D01*
X122294732Y-93274590D01*
X122362287Y-93181610D01*
X122455220Y-92999219D01*
X122518477Y-92804534D01*
X122550500Y-92602352D01*
X122550500Y-92397648D01*
X122536538Y-92309499D01*
X122518477Y-92195465D01*
X122464178Y-92028351D01*
X122455220Y-92000781D01*
X122455218Y-92000778D01*
X122455218Y-92000776D01*
X122404556Y-91901348D01*
X122362287Y-91818390D01*
X122354556Y-91807749D01*
X122241971Y-91652786D01*
X122097213Y-91508028D01*
X122027824Y-91457615D01*
X124674500Y-91457615D01*
X124674500Y-91610384D01*
X124704300Y-91760197D01*
X124704302Y-91760205D01*
X124762759Y-91901334D01*
X124762764Y-91901343D01*
X124847629Y-92028351D01*
X124847632Y-92028355D01*
X124955644Y-92136367D01*
X124955648Y-92136370D01*
X125082656Y-92221235D01*
X125082662Y-92221238D01*
X125082663Y-92221239D01*
X125223795Y-92279698D01*
X125373615Y-92309499D01*
X125373619Y-92309500D01*
X125373620Y-92309500D01*
X125826381Y-92309500D01*
X125826382Y-92309499D01*
X125976205Y-92279698D01*
X126117337Y-92221239D01*
X126244352Y-92136370D01*
X126352370Y-92028352D01*
X126437239Y-91901337D01*
X126495698Y-91760205D01*
X126525500Y-91610380D01*
X126525500Y-91457620D01*
X126495698Y-91307795D01*
X126437239Y-91166663D01*
X126437238Y-91166662D01*
X126437235Y-91166656D01*
X126352370Y-91039648D01*
X126352367Y-91039644D01*
X126244355Y-90931632D01*
X126244351Y-90931629D01*
X126117343Y-90846764D01*
X126117334Y-90846759D01*
X125976205Y-90788302D01*
X125976197Y-90788300D01*
X125826384Y-90758500D01*
X125826380Y-90758500D01*
X125373620Y-90758500D01*
X125373615Y-90758500D01*
X125223802Y-90788300D01*
X125223794Y-90788302D01*
X125082665Y-90846759D01*
X125082656Y-90846764D01*
X124955648Y-90931629D01*
X124955644Y-90931632D01*
X124847632Y-91039644D01*
X124847629Y-91039648D01*
X124762764Y-91166656D01*
X124762759Y-91166665D01*
X124704302Y-91307794D01*
X124704300Y-91307802D01*
X124674500Y-91457615D01*
X122027824Y-91457615D01*
X121931613Y-91387715D01*
X121931612Y-91387714D01*
X121931610Y-91387713D01*
X121874653Y-91358691D01*
X121749223Y-91294781D01*
X121554534Y-91231522D01*
X121379995Y-91203878D01*
X121352352Y-91199500D01*
X121352351Y-91199500D01*
X121309500Y-91199500D01*
X121242461Y-91179815D01*
X121196706Y-91127011D01*
X121185500Y-91075500D01*
X121185500Y-90054014D01*
X121205185Y-89986975D01*
X121257989Y-89941220D01*
X121262048Y-89939453D01*
X121282598Y-89930941D01*
X121454655Y-89815977D01*
X121524719Y-89745913D01*
X121600976Y-89669657D01*
X121658914Y-89582945D01*
X121715941Y-89497598D01*
X121795130Y-89306420D01*
X121835500Y-89103465D01*
X121835500Y-88896535D01*
X121795130Y-88693580D01*
X121715941Y-88502402D01*
X121600977Y-88330345D01*
X121600975Y-88330342D01*
X121454657Y-88184024D01*
X121308268Y-88086211D01*
X121282598Y-88069059D01*
X121162904Y-88019480D01*
X121091420Y-87989870D01*
X121091412Y-87989868D01*
X120888469Y-87949500D01*
X120888465Y-87949500D01*
X120681535Y-87949500D01*
X120681530Y-87949500D01*
X120478587Y-87989868D01*
X120478579Y-87989870D01*
X120287403Y-88069058D01*
X120115342Y-88184024D01*
X119969024Y-88330342D01*
X119854058Y-88502403D01*
X119774870Y-88693579D01*
X119774868Y-88693587D01*
X119734500Y-88896530D01*
X118835499Y-88896530D01*
X118835499Y-88456902D01*
X118824876Y-88368436D01*
X118769361Y-88227658D01*
X118769359Y-88227655D01*
X118677922Y-88107077D01*
X118557344Y-88015640D01*
X118557342Y-88015639D01*
X118416564Y-87960124D01*
X118416561Y-87960123D01*
X118328099Y-87949500D01*
X118309500Y-87949500D01*
X118242461Y-87929815D01*
X118196706Y-87877011D01*
X118185500Y-87825500D01*
X118185500Y-87433615D01*
X118185500Y-87433612D01*
X118169315Y-87373207D01*
X118158207Y-87331751D01*
X118105480Y-87240426D01*
X118069742Y-87204688D01*
X118036257Y-87143365D01*
X118041241Y-87073673D01*
X118083113Y-87017740D01*
X118109968Y-87002447D01*
X118282598Y-86930941D01*
X118454655Y-86815977D01*
X118600977Y-86669655D01*
X118715941Y-86497598D01*
X118795130Y-86306420D01*
X118835500Y-86103465D01*
X118835500Y-85896535D01*
X118835499Y-85896530D01*
X119734500Y-85896530D01*
X119734500Y-86103469D01*
X119774868Y-86306412D01*
X119774870Y-86306420D01*
X119814278Y-86401560D01*
X119854059Y-86497598D01*
X119889744Y-86551005D01*
X119969024Y-86669657D01*
X120115342Y-86815975D01*
X120115345Y-86815977D01*
X120287402Y-86930941D01*
X120478580Y-87010130D01*
X120658937Y-87046005D01*
X120681530Y-87050499D01*
X120681534Y-87050500D01*
X120681535Y-87050500D01*
X120888466Y-87050500D01*
X120888467Y-87050499D01*
X121091420Y-87010130D01*
X121282598Y-86930941D01*
X121454655Y-86815977D01*
X121600977Y-86669655D01*
X121715941Y-86497598D01*
X121724454Y-86477045D01*
X121736997Y-86461480D01*
X121745302Y-86443297D01*
X121758472Y-86434832D01*
X121768296Y-86422643D01*
X121787263Y-86416330D01*
X121804080Y-86405523D01*
X121831642Y-86401560D01*
X121834590Y-86400579D01*
X121839015Y-86400500D01*
X122032745Y-86400500D01*
X122099784Y-86420185D01*
X122120426Y-86436819D01*
X122778198Y-87094591D01*
X122811683Y-87155914D01*
X122806699Y-87225606D01*
X122801005Y-87238560D01*
X122794780Y-87250777D01*
X122794779Y-87250781D01*
X122731523Y-87445461D01*
X122731523Y-87445464D01*
X122699500Y-87647648D01*
X122699500Y-87852351D01*
X122731522Y-88054534D01*
X122794781Y-88249223D01*
X122887715Y-88431613D01*
X123008028Y-88597213D01*
X123152786Y-88741971D01*
X123300790Y-88849500D01*
X123318390Y-88862287D01*
X123391425Y-88899500D01*
X123500776Y-88955218D01*
X123500778Y-88955218D01*
X123500781Y-88955220D01*
X123578659Y-88980524D01*
X123695465Y-89018477D01*
X123796557Y-89034488D01*
X123897648Y-89050500D01*
X123897649Y-89050500D01*
X124102351Y-89050500D01*
X124102352Y-89050500D01*
X124304534Y-89018477D01*
X124499219Y-88955220D01*
X124681610Y-88862287D01*
X124774590Y-88794732D01*
X124847213Y-88741971D01*
X124847215Y-88741968D01*
X124847219Y-88741966D01*
X124991966Y-88597219D01*
X124991968Y-88597215D01*
X124991971Y-88597213D01*
X125060854Y-88502402D01*
X125112287Y-88431610D01*
X125205220Y-88249219D01*
X125268477Y-88054534D01*
X125300500Y-87852352D01*
X125300500Y-87647648D01*
X125295474Y-87615913D01*
X125268477Y-87445465D01*
X125205218Y-87250776D01*
X125156883Y-87155914D01*
X125112287Y-87068390D01*
X125099289Y-87050499D01*
X124991971Y-86902786D01*
X124847213Y-86758028D01*
X124681613Y-86637715D01*
X124681612Y-86637714D01*
X124681610Y-86637713D01*
X124591703Y-86591903D01*
X124499223Y-86544781D01*
X124304534Y-86481522D01*
X124129995Y-86453878D01*
X124102352Y-86449500D01*
X123897648Y-86449500D01*
X123830254Y-86460174D01*
X123695464Y-86481523D01*
X123695461Y-86481523D01*
X123500781Y-86544779D01*
X123500777Y-86544780D01*
X123488560Y-86551005D01*
X123419891Y-86563897D01*
X123355152Y-86537617D01*
X123344591Y-86528198D01*
X122495915Y-85679522D01*
X122495913Y-85679520D01*
X122450250Y-85653156D01*
X122404589Y-85626793D01*
X122353657Y-85613146D01*
X122302727Y-85599500D01*
X122302726Y-85599500D01*
X121839015Y-85599500D01*
X121771976Y-85579815D01*
X121726221Y-85527011D01*
X121724454Y-85522954D01*
X121722147Y-85517384D01*
X121715941Y-85502402D01*
X121715938Y-85502397D01*
X121715937Y-85502395D01*
X121600977Y-85330344D01*
X121454657Y-85184024D01*
X121303459Y-85082998D01*
X121282598Y-85069059D01*
X121212062Y-85039842D01*
X121091420Y-84989870D01*
X121091412Y-84989868D01*
X120888469Y-84949500D01*
X120888465Y-84949500D01*
X120681535Y-84949500D01*
X120681530Y-84949500D01*
X120478587Y-84989868D01*
X120478579Y-84989870D01*
X120287403Y-85069058D01*
X120115342Y-85184024D01*
X119969024Y-85330342D01*
X119854058Y-85502403D01*
X119774870Y-85693579D01*
X119774868Y-85693587D01*
X119734500Y-85896530D01*
X118835499Y-85896530D01*
X118795130Y-85693580D01*
X118715941Y-85502402D01*
X118600977Y-85330345D01*
X118600976Y-85330344D01*
X118600975Y-85330342D01*
X118454657Y-85184024D01*
X118303459Y-85082998D01*
X118282598Y-85069059D01*
X118212062Y-85039842D01*
X118091420Y-84989870D01*
X118091412Y-84989868D01*
X117888469Y-84949500D01*
X117888465Y-84949500D01*
X117681535Y-84949500D01*
X117681530Y-84949500D01*
X117478587Y-84989868D01*
X117478579Y-84989870D01*
X117287403Y-85069058D01*
X117115342Y-85184024D01*
X116969024Y-85330342D01*
X116854057Y-85502404D01*
X116782553Y-85675029D01*
X116738711Y-85729433D01*
X116672417Y-85751497D01*
X116604718Y-85734217D01*
X116580311Y-85715257D01*
X113761584Y-82896530D01*
X119734500Y-82896530D01*
X119734500Y-83103469D01*
X119774868Y-83306412D01*
X119774870Y-83306420D01*
X119819343Y-83413788D01*
X119854059Y-83497598D01*
X119911541Y-83583626D01*
X119969024Y-83669657D01*
X120115342Y-83815975D01*
X120115345Y-83815977D01*
X120287402Y-83930941D01*
X120478580Y-84010130D01*
X120620508Y-84038361D01*
X120681530Y-84050499D01*
X120681534Y-84050500D01*
X120681535Y-84050500D01*
X120888466Y-84050500D01*
X120888467Y-84050499D01*
X121091420Y-84010130D01*
X121282598Y-83930941D01*
X121454655Y-83815977D01*
X121600977Y-83669655D01*
X121715941Y-83497598D01*
X121750657Y-83413788D01*
X121776230Y-83352048D01*
X121788772Y-83336483D01*
X121797078Y-83318297D01*
X121810248Y-83309832D01*
X121820071Y-83297644D01*
X121839038Y-83291331D01*
X121855856Y-83280523D01*
X121883416Y-83276560D01*
X121886365Y-83275579D01*
X121890791Y-83275500D01*
X121932883Y-83275500D01*
X121999922Y-83295185D01*
X122045677Y-83347989D01*
X122055997Y-83384713D01*
X122057951Y-83400978D01*
X122060122Y-83419061D01*
X122115639Y-83559843D01*
X122207077Y-83680422D01*
X122327656Y-83771860D01*
X122327657Y-83771860D01*
X122327658Y-83771861D01*
X122468436Y-83827377D01*
X122556898Y-83838000D01*
X122556903Y-83838000D01*
X123943097Y-83838000D01*
X123943102Y-83838000D01*
X124031564Y-83827377D01*
X124172342Y-83771861D01*
X124292922Y-83680422D01*
X124384361Y-83559842D01*
X124439877Y-83419064D01*
X124450500Y-83330602D01*
X124450500Y-82419398D01*
X124439877Y-82330936D01*
X124384361Y-82190158D01*
X124384360Y-82190157D01*
X124384360Y-82190156D01*
X124292922Y-82069577D01*
X124172343Y-81978139D01*
X124031561Y-81922622D01*
X123985926Y-81917142D01*
X123943102Y-81912000D01*
X122556898Y-81912000D01*
X122517853Y-81916688D01*
X122468438Y-81922622D01*
X122327656Y-81978139D01*
X122207077Y-82069577D01*
X122115639Y-82190156D01*
X122060122Y-82330938D01*
X122057775Y-82350483D01*
X122055998Y-82365284D01*
X122055407Y-82366662D01*
X122055621Y-82368147D01*
X122041680Y-82398671D01*
X122028462Y-82429497D01*
X122027219Y-82430336D01*
X122026596Y-82431703D01*
X121998358Y-82449850D01*
X121970580Y-82468631D01*
X121968672Y-82468928D01*
X121967818Y-82469477D01*
X121932883Y-82474500D01*
X121763578Y-82474500D01*
X121696539Y-82454815D01*
X121660476Y-82419391D01*
X121600977Y-82330345D01*
X121600974Y-82330341D01*
X121454657Y-82184024D01*
X121329653Y-82100500D01*
X121282598Y-82069059D01*
X121259704Y-82059576D01*
X121091420Y-81989870D01*
X121091412Y-81989868D01*
X120888469Y-81949500D01*
X120888465Y-81949500D01*
X120681535Y-81949500D01*
X120681530Y-81949500D01*
X120478587Y-81989868D01*
X120478579Y-81989870D01*
X120287403Y-82069058D01*
X120115342Y-82184024D01*
X119969024Y-82330342D01*
X119854058Y-82502403D01*
X119774870Y-82693579D01*
X119774868Y-82693587D01*
X119734500Y-82896530D01*
X113761584Y-82896530D01*
X111936819Y-81071765D01*
X111903334Y-81010442D01*
X111900500Y-80984084D01*
X111900500Y-78674502D01*
X111920185Y-78607463D01*
X111972989Y-78561708D01*
X112024500Y-78550502D01*
X112168097Y-78550502D01*
X112168102Y-78550502D01*
X112256564Y-78539879D01*
X112397342Y-78484363D01*
X112517922Y-78392924D01*
X112609361Y-78272344D01*
X112664877Y-78131566D01*
X112675500Y-78043104D01*
X112675500Y-77156900D01*
X112664877Y-77068438D01*
X112609361Y-76927660D01*
X112609360Y-76927659D01*
X112609360Y-76927658D01*
X112517922Y-76807079D01*
X112397343Y-76715641D01*
X112256561Y-76660124D01*
X112210926Y-76654644D01*
X112168102Y-76649502D01*
X110831898Y-76649502D01*
X110792853Y-76654190D01*
X110743438Y-76660124D01*
X110602656Y-76715641D01*
X110482077Y-76807079D01*
X110390639Y-76927658D01*
X110335122Y-77068440D01*
X110330189Y-77109523D01*
X110324500Y-77156900D01*
X107942500Y-77156900D01*
X107942500Y-52628307D01*
X107962185Y-52561268D01*
X108014989Y-52515513D01*
X108068669Y-52504327D01*
X110782633Y-52551940D01*
G37*
%TD.AperFunction*%
%TA.AperFunction,Conductor*%
G36*
X132949783Y-83770184D02*
G01*
X132970425Y-83786818D01*
X133572019Y-84388412D01*
X133572020Y-84388413D01*
X133646587Y-84462980D01*
X133737913Y-84515707D01*
X133839773Y-84543000D01*
X133945227Y-84543000D01*
X134325500Y-84543000D01*
X134392539Y-84562685D01*
X134438294Y-84615489D01*
X134449500Y-84667000D01*
X134449500Y-84810602D01*
X134453431Y-84843338D01*
X134460122Y-84899061D01*
X134515639Y-85039843D01*
X134607077Y-85160422D01*
X134727656Y-85251860D01*
X134727657Y-85251860D01*
X134727658Y-85251861D01*
X134868436Y-85307377D01*
X134956898Y-85318000D01*
X134956903Y-85318000D01*
X135843097Y-85318000D01*
X135843102Y-85318000D01*
X135931564Y-85307377D01*
X135931567Y-85307376D01*
X135939268Y-85305430D01*
X135939694Y-85307116D01*
X135999593Y-85301707D01*
X136061530Y-85334042D01*
X136096153Y-85394730D01*
X136099500Y-85423344D01*
X136099500Y-88810365D01*
X136079815Y-88877404D01*
X136027011Y-88923159D01*
X135957853Y-88933103D01*
X135943407Y-88930140D01*
X135941093Y-88929520D01*
X135829057Y-88899500D01*
X135670943Y-88899500D01*
X135518216Y-88940423D01*
X135518215Y-88940423D01*
X135434894Y-88988528D01*
X135366993Y-89004999D01*
X135300967Y-88982147D01*
X135285214Y-88968821D01*
X135245914Y-88929521D01*
X135245913Y-88929520D01*
X135179059Y-88890922D01*
X135154589Y-88876794D01*
X135154588Y-88876793D01*
X135154587Y-88876793D01*
X135052727Y-88849500D01*
X135052726Y-88849500D01*
X132467255Y-88849500D01*
X132400216Y-88829815D01*
X132379574Y-88813181D01*
X132256157Y-88689764D01*
X132222672Y-88628441D01*
X132227656Y-88558749D01*
X132269528Y-88502816D01*
X132334992Y-88478399D01*
X132403265Y-88493251D01*
X132405829Y-88494691D01*
X132518216Y-88559577D01*
X132670943Y-88600500D01*
X132670945Y-88600500D01*
X132829055Y-88600500D01*
X132829057Y-88600500D01*
X132981784Y-88559577D01*
X133118716Y-88480520D01*
X133230520Y-88368716D01*
X133309577Y-88231784D01*
X133350500Y-88079057D01*
X133350500Y-87920943D01*
X133309577Y-87768216D01*
X133272268Y-87703594D01*
X133230524Y-87631290D01*
X133230518Y-87631282D01*
X133118717Y-87519481D01*
X133118709Y-87519475D01*
X132981790Y-87440426D01*
X132981786Y-87440424D01*
X132981784Y-87440423D01*
X132829057Y-87399500D01*
X132670943Y-87399500D01*
X132556593Y-87430140D01*
X132486743Y-87428477D01*
X132428881Y-87389314D01*
X132401377Y-87325086D01*
X132400500Y-87310365D01*
X132400500Y-86432622D01*
X132404725Y-86400529D01*
X132404733Y-86400500D01*
X132424500Y-86326727D01*
X132424500Y-86221273D01*
X132424500Y-83874499D01*
X132444185Y-83807460D01*
X132496989Y-83761705D01*
X132548500Y-83750499D01*
X132882744Y-83750499D01*
X132949783Y-83770184D01*
G37*
%TD.AperFunction*%
%TA.AperFunction,Conductor*%
G36*
X131918893Y-77850186D02*
G01*
X131964648Y-77902990D01*
X131975311Y-77942920D01*
X131976737Y-77958126D01*
X131977354Y-77964703D01*
X132022206Y-78092880D01*
X132022207Y-78092882D01*
X132102850Y-78202150D01*
X132188321Y-78265230D01*
X132230571Y-78320877D01*
X132236030Y-78390534D01*
X132202962Y-78452083D01*
X132188321Y-78464769D01*
X132161773Y-78484363D01*
X132102850Y-78527850D01*
X132022207Y-78637117D01*
X132022206Y-78637119D01*
X131977353Y-78765298D01*
X131977353Y-78765300D01*
X131974500Y-78795730D01*
X131974500Y-79204269D01*
X131977353Y-79234699D01*
X131977353Y-79234701D01*
X132022206Y-79362880D01*
X132022207Y-79362882D01*
X132102850Y-79472150D01*
X132188321Y-79535230D01*
X132230571Y-79590877D01*
X132236030Y-79660534D01*
X132202962Y-79722083D01*
X132188321Y-79734769D01*
X132137728Y-79772109D01*
X132102850Y-79797850D01*
X132022207Y-79907117D01*
X132022206Y-79907119D01*
X131977353Y-80035298D01*
X131977353Y-80035300D01*
X131974500Y-80065730D01*
X131974500Y-80474269D01*
X131977353Y-80504699D01*
X131977353Y-80504701D01*
X132022206Y-80632880D01*
X132022207Y-80632882D01*
X132102850Y-80742150D01*
X132171036Y-80792473D01*
X132188321Y-80805230D01*
X132201929Y-80823153D01*
X132218948Y-80837876D01*
X132222649Y-80850443D01*
X132230571Y-80860877D01*
X132232329Y-80883311D01*
X132238687Y-80904899D01*
X132235006Y-80917472D01*
X132236030Y-80930534D01*
X132225379Y-80950357D01*
X132219057Y-80971955D01*
X132206671Y-80985177D01*
X132202962Y-80992083D01*
X132195966Y-80998647D01*
X132192265Y-81001858D01*
X132102850Y-81067850D01*
X132079001Y-81100163D01*
X132068651Y-81109147D01*
X132048843Y-81118212D01*
X132031494Y-81131385D01*
X132012381Y-81134900D01*
X132005119Y-81138224D01*
X131999037Y-81137354D01*
X131987372Y-81139500D01*
X131907312Y-81139500D01*
X131840273Y-81119815D01*
X131819631Y-81103181D01*
X129120524Y-78404074D01*
X129087039Y-78342751D01*
X129092023Y-78273059D01*
X129120524Y-78228712D01*
X129152991Y-78196245D01*
X129230520Y-78118716D01*
X129309577Y-77981784D01*
X129325487Y-77922405D01*
X129361851Y-77862748D01*
X129424697Y-77832218D01*
X129445261Y-77830501D01*
X131851854Y-77830501D01*
X131918893Y-77850186D01*
G37*
%TD.AperFunction*%
%TA.AperFunction,Conductor*%
G36*
X113792539Y-60569185D02*
G01*
X113838294Y-60621989D01*
X113849500Y-60673500D01*
X113849500Y-61679269D01*
X113852353Y-61709699D01*
X113852353Y-61709701D01*
X113897206Y-61837880D01*
X113897207Y-61837882D01*
X113928674Y-61880518D01*
X113971596Y-61938677D01*
X113977850Y-61947150D01*
X113999132Y-61962857D01*
X114041384Y-62018503D01*
X114049500Y-62062628D01*
X114049500Y-62365048D01*
X114029815Y-62432087D01*
X113977011Y-62477842D01*
X113907853Y-62487786D01*
X113867566Y-62474682D01*
X113862883Y-62472207D01*
X113734700Y-62427353D01*
X113704270Y-62424500D01*
X113704266Y-62424500D01*
X113295734Y-62424500D01*
X113295730Y-62424500D01*
X113265300Y-62427353D01*
X113265298Y-62427353D01*
X113137119Y-62472206D01*
X113137117Y-62472207D01*
X113027850Y-62552850D01*
X112947207Y-62662117D01*
X112947206Y-62662119D01*
X112902353Y-62790298D01*
X112902353Y-62790300D01*
X112899500Y-62820730D01*
X112899500Y-63954269D01*
X112902353Y-63984699D01*
X112902353Y-63984701D01*
X112947206Y-64112880D01*
X112947207Y-64112882D01*
X113027850Y-64222150D01*
X113137118Y-64302793D01*
X113168063Y-64313621D01*
X113265295Y-64347645D01*
X113265299Y-64347645D01*
X113265301Y-64347646D01*
X113287078Y-64349688D01*
X113351984Y-64375544D01*
X113392610Y-64432388D01*
X113399500Y-64473146D01*
X113399500Y-66267805D01*
X113399500Y-66373259D01*
X113410763Y-66415293D01*
X113426793Y-66475121D01*
X113452403Y-66519478D01*
X113479520Y-66566445D01*
X113479522Y-66566447D01*
X113592054Y-66678979D01*
X113625539Y-66740302D01*
X113620555Y-66809994D01*
X113578683Y-66865927D01*
X113578007Y-66866430D01*
X113477850Y-66940350D01*
X113397207Y-67049617D01*
X113397206Y-67049619D01*
X113352353Y-67177798D01*
X113352353Y-67177800D01*
X113349500Y-67208230D01*
X113349500Y-68341769D01*
X113352353Y-68372199D01*
X113352353Y-68372201D01*
X113397206Y-68500380D01*
X113397207Y-68500382D01*
X113477850Y-68609650D01*
X113499132Y-68625357D01*
X113541384Y-68681003D01*
X113549500Y-68725128D01*
X113549500Y-71832745D01*
X113529815Y-71899784D01*
X113513181Y-71920426D01*
X111920426Y-73513181D01*
X111859103Y-73546666D01*
X111832745Y-73549500D01*
X110831898Y-73549500D01*
X110792853Y-73554188D01*
X110743438Y-73560122D01*
X110602656Y-73615639D01*
X110482077Y-73707077D01*
X110422304Y-73785901D01*
X110366111Y-73827425D01*
X110296390Y-73831976D01*
X110235276Y-73798111D01*
X110202172Y-73736581D01*
X110199500Y-73710976D01*
X110199500Y-62776288D01*
X110219185Y-62709249D01*
X110235819Y-62688607D01*
X112338607Y-60585819D01*
X112399930Y-60552334D01*
X112426288Y-60549500D01*
X113725500Y-60549500D01*
X113792539Y-60569185D01*
G37*
%TD.AperFunction*%
%TD*%
%TA.AperFunction,Conductor*%
%TO.N,/M+*%
G36*
X134980315Y-38338777D02*
G01*
X134973880Y-38347866D01*
X134737233Y-38652128D01*
X134680537Y-38692961D01*
X134639353Y-38700000D01*
X129300000Y-38700000D01*
X128336926Y-39514908D01*
X128273036Y-39543185D01*
X128256831Y-39544248D01*
X126950251Y-39544248D01*
X126948903Y-39544320D01*
X126936988Y-39544383D01*
X125739292Y-39493120D01*
X125673156Y-39470586D01*
X125656914Y-39456914D01*
X125036319Y-38836319D01*
X125002834Y-38774996D01*
X125000000Y-38748638D01*
X125000000Y-38600000D01*
X134987401Y-38314644D01*
X134980315Y-38338777D01*
G37*
%TD.AperFunction*%
%TD*%
%TA.AperFunction,Conductor*%
%TO.N,/M-*%
G36*
X134208509Y-40069433D02*
G01*
X134237201Y-40094934D01*
X134871731Y-40865663D01*
X134899144Y-40929931D01*
X134900000Y-40944477D01*
X134900000Y-46848638D01*
X134880315Y-46915677D01*
X134863681Y-46936319D01*
X134436319Y-47363681D01*
X134374996Y-47397166D01*
X134348638Y-47400000D01*
X130551362Y-47400000D01*
X130484323Y-47380315D01*
X130463681Y-47363681D01*
X128936319Y-45836319D01*
X128902834Y-45774996D01*
X128900000Y-45748638D01*
X128900000Y-45700000D01*
X128182574Y-45700000D01*
X128120574Y-45683387D01*
X128030643Y-45631465D01*
X128030634Y-45631461D01*
X127812585Y-45541142D01*
X127584602Y-45480054D01*
X127350612Y-45449249D01*
X127350609Y-45449248D01*
X127350603Y-45449248D01*
X127114581Y-45449248D01*
X127114575Y-45449248D01*
X127114571Y-45449249D01*
X126880581Y-45480054D01*
X126652598Y-45541142D01*
X126434549Y-45631461D01*
X126434540Y-45631465D01*
X126344610Y-45683387D01*
X126282610Y-45700000D01*
X126177272Y-45700000D01*
X126100000Y-45700000D01*
X124800000Y-44400000D01*
X124800000Y-42200000D01*
X126950252Y-40049748D01*
X134141470Y-40049748D01*
X134208509Y-40069433D01*
G37*
%TD.AperFunction*%
%TD*%
%TA.AperFunction,Conductor*%
%TO.N,/M+*%
G36*
X125375132Y-33219685D02*
G01*
X125420887Y-33272489D01*
X125432093Y-33324000D01*
X125432093Y-33949766D01*
X125442592Y-34052544D01*
X125442593Y-34052547D01*
X125497777Y-34219079D01*
X125497778Y-34219082D01*
X125589880Y-34368404D01*
X125713936Y-34492460D01*
X125863258Y-34584562D01*
X126029795Y-34639747D01*
X126132583Y-34650248D01*
X128332600Y-34650247D01*
X128435389Y-34639747D01*
X128601926Y-34584562D01*
X128751248Y-34492460D01*
X128875304Y-34368404D01*
X128967406Y-34219082D01*
X129022591Y-34052545D01*
X129033092Y-33949757D01*
X129033092Y-33324000D01*
X129052777Y-33256961D01*
X129105581Y-33211206D01*
X129157092Y-33200000D01*
X134338000Y-33200000D01*
X134405039Y-33219685D01*
X134437200Y-33249600D01*
X134962324Y-33949766D01*
X134975200Y-33966933D01*
X134999676Y-34032375D01*
X135000000Y-34041333D01*
X135000000Y-38271738D01*
X134993449Y-38294046D01*
X134991604Y-38314524D01*
X125000000Y-38600000D01*
X124380514Y-38600000D01*
X124313475Y-38580315D01*
X124311623Y-38579102D01*
X124179185Y-38490609D01*
X124179172Y-38490602D01*
X124033501Y-38430264D01*
X124033489Y-38430261D01*
X123878845Y-38399500D01*
X123878842Y-38399500D01*
X120490995Y-38399500D01*
X120423956Y-38379815D01*
X120395736Y-38354883D01*
X120128741Y-38034489D01*
X120100945Y-37970386D01*
X120100000Y-37955106D01*
X120100000Y-33651362D01*
X120119685Y-33584323D01*
X120136319Y-33563681D01*
X120463681Y-33236319D01*
X120525004Y-33202834D01*
X120551362Y-33200000D01*
X125308093Y-33200000D01*
X125375132Y-33219685D01*
G37*
%TD.AperFunction*%
%TD*%
%TA.AperFunction,Conductor*%
%TO.N,GND*%
G36*
X127325538Y-45955809D02*
G01*
X127477719Y-45975843D01*
X127493610Y-45979004D01*
X127614228Y-46011323D01*
X127641894Y-46018737D01*
X127657253Y-46023951D01*
X127799079Y-46082697D01*
X127813627Y-46089872D01*
X127867810Y-46121155D01*
X127867815Y-46121158D01*
X127867818Y-46121159D01*
X127867823Y-46121162D01*
X127989740Y-46171662D01*
X128051740Y-46188275D01*
X128182574Y-46205500D01*
X128254138Y-46205500D01*
X128321177Y-46225185D01*
X128341819Y-46241819D01*
X128563681Y-46463681D01*
X128597166Y-46525004D01*
X128600000Y-46551362D01*
X128600000Y-51500000D01*
X129598138Y-52882037D01*
X124605551Y-52794448D01*
X125900000Y-51500000D01*
X125880189Y-46515818D01*
X125899607Y-46448702D01*
X125919806Y-46424466D01*
X126119935Y-46238631D01*
X126182454Y-46207441D01*
X126204309Y-46205500D01*
X126282603Y-46205500D01*
X126282610Y-46205500D01*
X126413444Y-46188275D01*
X126475444Y-46171662D01*
X126597363Y-46121161D01*
X126651559Y-46089869D01*
X126666103Y-46082696D01*
X126737018Y-46053323D01*
X126807929Y-46023951D01*
X126823287Y-46018737D01*
X126971574Y-45979003D01*
X126987462Y-45975843D01*
X127108985Y-45959845D01*
X127139646Y-45955809D01*
X127155830Y-45954748D01*
X127309353Y-45954748D01*
X127325538Y-45955809D01*
G37*
%TD.AperFunction*%
%TD*%
M02*
