%TF.GenerationSoftware,KiCad,Pcbnew,9.0.4*%
%TF.CreationDate,2025-10-29T20:44:18-05:00*%
%TF.ProjectId,FWS_20A,4657535f-3230-4412-9e6b-696361645f70,rev?*%
%TF.SameCoordinates,Original*%
%TF.FileFunction,Soldermask,Bot*%
%TF.FilePolarity,Negative*%
%FSLAX46Y46*%
G04 Gerber Fmt 4.6, Leading zero omitted, Abs format (unit mm)*
G04 Created by KiCad (PCBNEW 9.0.4) date 2025-10-29 20:44:18*
%MOMM*%
%LPD*%
G01*
G04 APERTURE LIST*
G04 Aperture macros list*
%AMRoundRect*
0 Rectangle with rounded corners*
0 $1 Rounding radius*
0 $2 $3 $4 $5 $6 $7 $8 $9 X,Y pos of 4 corners*
0 Add a 4 corners polygon primitive as box body*
4,1,4,$2,$3,$4,$5,$6,$7,$8,$9,$2,$3,0*
0 Add four circle primitives for the rounded corners*
1,1,$1+$1,$2,$3*
1,1,$1+$1,$4,$5*
1,1,$1+$1,$6,$7*
1,1,$1+$1,$8,$9*
0 Add four rect primitives between the rounded corners*
20,1,$1+$1,$2,$3,$4,$5,0*
20,1,$1+$1,$4,$5,$6,$7,0*
20,1,$1+$1,$6,$7,$8,$9,0*
20,1,$1+$1,$8,$9,$2,$3,0*%
G04 Aperture macros list end*
%ADD10RoundRect,0.250000X-1.050000X1.050000X-1.050000X-1.050000X1.050000X-1.050000X1.050000X1.050000X0*%
%ADD11C,2.600000*%
%ADD12C,3.000000*%
%ADD13RoundRect,0.250001X0.499999X-0.499999X0.499999X0.499999X-0.499999X0.499999X-0.499999X-0.499999X0*%
%ADD14C,1.500000*%
%ADD15O,0.890000X1.550000*%
%ADD16O,1.250000X0.950000*%
%ADD17C,2.200000*%
%ADD18C,2.000000*%
%ADD19RoundRect,0.250000X0.550000X0.550000X-0.550000X0.550000X-0.550000X-0.550000X0.550000X-0.550000X0*%
%ADD20C,1.600000*%
%ADD21R,1.700000X1.700000*%
%ADD22C,1.700000*%
%ADD23RoundRect,0.250000X-0.550000X-0.550000X0.550000X-0.550000X0.550000X0.550000X-0.550000X0.550000X0*%
%ADD24RoundRect,0.150000X-0.150000X0.512500X-0.150000X-0.512500X0.150000X-0.512500X0.150000X0.512500X0*%
%ADD25RoundRect,0.250000X-0.400000X-0.625000X0.400000X-0.625000X0.400000X0.625000X-0.400000X0.625000X0*%
%ADD26RoundRect,0.150000X-0.825000X-0.150000X0.825000X-0.150000X0.825000X0.150000X-0.825000X0.150000X0*%
%ADD27RoundRect,0.250000X0.412500X0.650000X-0.412500X0.650000X-0.412500X-0.650000X0.412500X-0.650000X0*%
%ADD28RoundRect,0.218750X0.256250X-0.218750X0.256250X0.218750X-0.256250X0.218750X-0.256250X-0.218750X0*%
%ADD29RoundRect,0.250000X0.650000X-0.412500X0.650000X0.412500X-0.650000X0.412500X-0.650000X-0.412500X0*%
%ADD30RoundRect,0.250000X-0.625000X0.400000X-0.625000X-0.400000X0.625000X-0.400000X0.625000X0.400000X0*%
%ADD31RoundRect,0.250000X-1.400000X-2.000000X1.400000X-2.000000X1.400000X2.000000X-1.400000X2.000000X0*%
%ADD32RoundRect,0.250000X1.400000X2.000000X-1.400000X2.000000X-1.400000X-2.000000X1.400000X-2.000000X0*%
G04 APERTURE END LIST*
D10*
%TO.C,J1*%
X127232592Y-32849748D03*
D11*
X127232592Y-37649749D03*
X127232592Y-42449748D03*
X127232592Y-47249748D03*
%TD*%
D12*
%TO.C,J5*%
X113465000Y-86000000D03*
D13*
X117785000Y-89000000D03*
D14*
X117785000Y-86000000D03*
X117785000Y-83000000D03*
X120785000Y-89000000D03*
X120785000Y-86000000D03*
X120785000Y-83000000D03*
%TD*%
D15*
%TO.C,J16*%
X124600000Y-94234000D03*
D16*
X125600000Y-91534000D03*
X130600000Y-91534000D03*
D15*
X131600000Y-94234000D03*
%TD*%
D17*
%TO.C,H3*%
X143002000Y-31496000D03*
%TD*%
D18*
%TO.C,TP1*%
X124000000Y-87750000D03*
%TD*%
D19*
%TO.C,C2*%
X140782381Y-44700000D03*
D20*
X138282381Y-44700000D03*
%TD*%
D21*
%TO.C,J3*%
X142800000Y-89560000D03*
D22*
X142800000Y-87020000D03*
X142800000Y-84480001D03*
X142800000Y-81940000D03*
X142800000Y-79400000D03*
X142800000Y-76860000D03*
X142800000Y-74320000D03*
X142800000Y-71779999D03*
X142800000Y-69240000D03*
%TD*%
D23*
%TO.C,C7*%
X113817620Y-45600000D03*
D20*
X116317620Y-45600000D03*
%TD*%
D18*
%TO.C,TP2*%
X121250000Y-92500000D03*
%TD*%
D17*
%TO.C,H2*%
X109728000Y-31496000D03*
%TD*%
D24*
%TO.C,D15*%
X113000000Y-65500000D03*
X114900000Y-65500000D03*
X113950000Y-67775000D03*
%TD*%
D25*
%TO.C,R11*%
X135400000Y-84142500D03*
X138500002Y-84142500D03*
%TD*%
D26*
%TO.C,U13*%
X133250000Y-81540000D03*
X133250000Y-80270000D03*
X133250000Y-79000000D03*
X133250000Y-77730000D03*
X138200000Y-77730000D03*
X138200000Y-79000000D03*
X138200000Y-80270000D03*
X138200000Y-81540000D03*
%TD*%
D27*
%TO.C,C10*%
X137625000Y-94000000D03*
X134500000Y-94000000D03*
%TD*%
%TO.C,C19*%
X126000000Y-72000000D03*
X122875000Y-72000000D03*
%TD*%
D28*
%TO.C,D11*%
X132800000Y-84587501D03*
X132800000Y-83012499D03*
%TD*%
D29*
%TO.C,C12*%
X120142000Y-76962000D03*
X120142000Y-73837000D03*
%TD*%
D24*
%TO.C,D17*%
X112550000Y-61112500D03*
X114450000Y-61112500D03*
X113500000Y-63387500D03*
%TD*%
D30*
%TO.C,R10*%
X111500000Y-74500000D03*
X111500000Y-77600002D03*
%TD*%
D31*
%TO.C,D7*%
X132300001Y-45050000D03*
X132300001Y-36250000D03*
%TD*%
D32*
%TO.C,D6*%
X122100000Y-36050000D03*
X122100000Y-44850000D03*
%TD*%
D29*
%TO.C,C21*%
X123250000Y-82875000D03*
X123250000Y-79750000D03*
%TD*%
M02*
