  0
SECTION
  2
HEADER
  9
$ANGBASE
  50
0.0
  9
$ANGDIR
  70
1
  9
$MEASUREMENT
  70
0
  0
ENDSEC
  0
SECTION
  2
TABLES
  0
TABLE
  2
LTYPE
  70
4
  0
LTYPE
  5
40F
  2
CONTINUOUS
  70
0
  3
Solid line
  72
65
  73
0
  40
0.0
  0
LTYPE
  5
410
  2
DASHDOT
 70
0
  3
Dash Dot ____ _ ____ _
 72
65
 73
4
 40
2.0
 49
1.25
 49
-0.25
 49
0.25
 49
-0.25
  0
LTYPE
  5
411
  2
DASHED
 70
0
  3
Dashed __ __ __ __ __
 72
65
 73
2
 40
0.75
 49
0.5
 49
-0.25
  0
LTYPE
  5
43B
  2
DOTTED
 70
0
  3
Dotted .  .  .  .
 72
65
 73
2
 40
0.2
 49
0.0
 49
-0.2
  0
ENDTAB
  0
TABLE
  2
STYLE
  70
4
  0
STYLE
  2
KICAD
  70
0
  40
0
  41
1
  42
1
  50
0
  71
0
  3
isocp.shx
  0
STYLE
  2
KICADB
  70
0
  40
0
  41
1
  42
1
  50
0
  71
0
  3
isocp.shx
  0
STYLE
  2
KICADI
  70
0
  40
0
  41
1
  42
1
  50
15
  71
0
  3
isocp.shx
  0
STYLE
  2
KICADBI
  70
0
  40
0
  41
1
  42
1
  50
15
  71
0
  3
isocp.shx
  0
ENDTAB
  0
TABLE
  2
LAYER
  70
1
  0
LAYER
  2
BLACK
  70
0
  62
7
  6
CONTINUOUS
  0
ENDTAB
  0
ENDSEC
  0
SECTION
  2
ENTITIES
0
LINE
8
BLACK
6
CONTINUOUS
10
5.7203766535433074
20
-1.1490906692913385
11
5.7209093307086611
21
-1.149623346456693
0
LINE
8
BLACK
6
CONTINUOUS
10
5.7209093307086611
20
-1.149623346456693
11
5.7209842519685035
21
-1.1499999999999999
0
LINE
8
BLACK
6
CONTINUOUS
10
5.7209842519685035
20
-1.1499999999999999
11
5.7209842519685035
21
-3.77
0
LINE
8
BLACK
6
CONTINUOUS
10
5.7209842519685035
20
-3.77
11
5.7209093307086611
21
-3.7703766535433072
0
LINE
8
BLACK
6
CONTINUOUS
10
5.7209093307086611
20
-3.7703766535433072
11
5.7203766535433074
21
-3.7709093307086614
0
LINE
8
BLACK
6
CONTINUOUS
10
5.7203766535433074
20
-3.7709093307086614
11
5.7199999999999998
21
-3.7709842519685037
0
LINE
8
BLACK
6
CONTINUOUS
10
5.7199999999999998
20
-3.7709842519685037
11
4.2299999999999995
21
-3.7709842519685037
0
LINE
8
BLACK
6
CONTINUOUS
10
4.2299999999999995
20
-3.7709842519685037
11
4.2296233464566928
21
-3.7709093307086614
0
LINE
8
BLACK
6
CONTINUOUS
10
4.2296233464566928
20
-3.7709093307086614
11
4.2290906692913381
21
-3.7703766535433072
0
LINE
8
BLACK
6
CONTINUOUS
10
4.2290906692913381
20
-3.7703766535433072
11
4.2290157480314958
21
-3.77
0
LINE
8
BLACK
6
CONTINUOUS
10
4.2290157480314958
20
-3.77
11
4.2290157480314958
21
-1.1499999999999999
0
LINE
8
BLACK
6
CONTINUOUS
10
4.2290157480314958
20
-1.1499999999999999
11
4.2290906692913381
21
-1.149623346456693
0
LINE
8
BLACK
6
CONTINUOUS
10
4.2290906692913381
20
-1.149623346456693
11
4.2296233464566928
21
-1.1490906692913385
0
LINE
8
BLACK
6
CONTINUOUS
10
4.2296233464566928
20
-1.1490906692913385
11
4.2299999999999995
21
-1.149015748031496
0
LINE
8
BLACK
6
CONTINUOUS
10
4.2299999999999995
20
-1.149015748031496
11
5.7199999999999998
21
-1.149015748031496
0
LINE
8
BLACK
6
CONTINUOUS
10
5.7199999999999998
20
-1.149015748031496
11
5.7203766535433074
21
-1.1490906692913385
0
LINE
8
BLACK
6
CONTINUOUS
10
4.2309842519685041
20
-1.1509842519685038
11
4.2309842519685041
21
-3.7690157480314959
0
LINE
8
BLACK
6
CONTINUOUS
10
4.2309842519685041
20
-3.7690157480314959
11
5.719015748031496
21
-3.7690157480314959
0
LINE
8
BLACK
6
CONTINUOUS
10
5.719015748031496
20
-3.7690157480314959
11
5.719015748031496
21
-1.1509842519685038
0
LINE
8
BLACK
6
CONTINUOUS
10
5.719015748031496
20
-1.1509842519685038
11
4.2309842519685041
21
-1.1509842519685038
  0
ENDSEC
  0
EOF
