%TF.GenerationSoftware,KiCad,Pcbnew,9.0.4*%
%TF.CreationDate,2025-12-11T20:36:47-06:00*%
%TF.ProjectId,FWS_20A,4657535f-3230-4412-9e6b-696361645f70,rev?*%
%TF.SameCoordinates,Original*%
%TF.FileFunction,Soldermask,Top*%
%TF.FilePolarity,Negative*%
%FSLAX46Y46*%
G04 Gerber Fmt 4.6, Leading zero omitted, Abs format (unit mm)*
G04 Created by KiCad (PCBNEW 9.0.4) date 2025-12-11 20:36:47*
%MOMM*%
%LPD*%
G01*
G04 APERTURE LIST*
G04 Aperture macros list*
%AMRoundRect*
0 Rectangle with rounded corners*
0 $1 Rounding radius*
0 $2 $3 $4 $5 $6 $7 $8 $9 X,Y pos of 4 corners*
0 Add a 4 corners polygon primitive as box body*
4,1,4,$2,$3,$4,$5,$6,$7,$8,$9,$2,$3,0*
0 Add four circle primitives for the rounded corners*
1,1,$1+$1,$2,$3*
1,1,$1+$1,$4,$5*
1,1,$1+$1,$6,$7*
1,1,$1+$1,$8,$9*
0 Add four rect primitives between the rounded corners*
20,1,$1+$1,$2,$3,$4,$5,0*
20,1,$1+$1,$4,$5,$6,$7,0*
20,1,$1+$1,$6,$7,$8,$9,0*
20,1,$1+$1,$8,$9,$2,$3,0*%
%AMRotRect*
0 Rectangle, with rotation*
0 The origin of the aperture is its center*
0 $1 length*
0 $2 width*
0 $3 Rotation angle, in degrees counterclockwise*
0 Add horizontal line*
21,1,$1,$2,0,0,$3*%
%AMFreePoly0*
4,1,9,2.100000,-2.000000,2.350000,-2.000000,2.350000,-3.500000,-2.350000,-3.500000,-2.350000,-2.000000,-2.100000,-2.000000,-2.100000,1.100000,2.100000,1.100000,2.100000,-2.000000,2.100000,-2.000000,$1*%
%AMFreePoly1*
4,1,9,3.862500,-0.866500,0.737500,-0.866500,0.737500,-0.450000,-0.737500,-0.450000,-0.737500,0.450000,0.737500,0.450000,0.737500,0.866500,3.862500,0.866500,3.862500,-0.866500,3.862500,-0.866500,$1*%
G04 Aperture macros list end*
%ADD10RoundRect,0.175000X0.175000X0.400000X-0.175000X0.400000X-0.175000X-0.400000X0.175000X-0.400000X0*%
%ADD11FreePoly0,180.000000*%
%ADD12RoundRect,0.268750X0.268750X-0.406250X0.268750X0.406250X-0.268750X0.406250X-0.268750X-0.406250X0*%
%ADD13RoundRect,0.212500X0.362500X-0.212500X0.362500X0.212500X-0.362500X0.212500X-0.362500X-0.212500X0*%
%ADD14RoundRect,0.250000X-1.050000X1.050000X-1.050000X-1.050000X1.050000X-1.050000X1.050000X1.050000X0*%
%ADD15C,2.600000*%
%ADD16R,1.200000X0.400000*%
%ADD17RoundRect,0.268750X-0.268750X0.406250X-0.268750X-0.406250X0.268750X-0.406250X0.268750X0.406250X0*%
%ADD18RoundRect,0.212500X-0.362500X0.212500X-0.362500X-0.212500X0.362500X-0.212500X0.362500X0.212500X0*%
%ADD19RoundRect,0.100000X-0.100000X-0.575000X0.100000X-0.575000X0.100000X0.575000X-0.100000X0.575000X0*%
%ADD20O,0.890000X1.550000*%
%ADD21RoundRect,0.250000X-0.475000X-0.525000X0.475000X-0.525000X0.475000X0.525000X-0.475000X0.525000X0*%
%ADD22O,1.250000X0.950000*%
%ADD23RoundRect,0.250000X-0.500000X-0.525000X0.500000X-0.525000X0.500000X0.525000X-0.500000X0.525000X0*%
%ADD24RoundRect,0.150000X-0.825000X-0.150000X0.825000X-0.150000X0.825000X0.150000X-0.825000X0.150000X0*%
%ADD25RoundRect,0.218750X-0.218750X-0.256250X0.218750X-0.256250X0.218750X0.256250X-0.218750X0.256250X0*%
%ADD26RoundRect,0.250000X-0.400000X-0.625000X0.400000X-0.625000X0.400000X0.625000X-0.400000X0.625000X0*%
%ADD27RoundRect,0.150000X0.150000X-0.825000X0.150000X0.825000X-0.150000X0.825000X-0.150000X-0.825000X0*%
%ADD28RoundRect,0.250000X0.400000X0.625000X-0.400000X0.625000X-0.400000X-0.625000X0.400000X-0.625000X0*%
%ADD29RoundRect,0.200000X-0.200000X-0.275000X0.200000X-0.275000X0.200000X0.275000X-0.200000X0.275000X0*%
%ADD30RoundRect,0.218750X0.256250X-0.218750X0.256250X0.218750X-0.256250X0.218750X-0.256250X-0.218750X0*%
%ADD31RoundRect,0.250000X0.625000X-0.400000X0.625000X0.400000X-0.625000X0.400000X-0.625000X-0.400000X0*%
%ADD32RoundRect,0.250000X-0.650000X0.412500X-0.650000X-0.412500X0.650000X-0.412500X0.650000X0.412500X0*%
%ADD33RotRect,0.254000X0.812800X315.000000*%
%ADD34RotRect,0.254000X0.812800X225.000000*%
%ADD35RotRect,2.540000X2.540000X225.000000*%
%ADD36RoundRect,0.200000X0.200000X0.275000X-0.200000X0.275000X-0.200000X-0.275000X0.200000X-0.275000X0*%
%ADD37RoundRect,0.250000X-0.412500X-0.650000X0.412500X-0.650000X0.412500X0.650000X-0.412500X0.650000X0*%
%ADD38RoundRect,0.250000X-0.247487X-1.166726X1.166726X0.247487X0.247487X1.166726X-1.166726X-0.247487X0*%
%ADD39C,2.200000*%
%ADD40RoundRect,0.250000X-0.625000X0.400000X-0.625000X-0.400000X0.625000X-0.400000X0.625000X0.400000X0*%
%ADD41RoundRect,0.250000X0.412500X0.650000X-0.412500X0.650000X-0.412500X-0.650000X0.412500X-0.650000X0*%
%ADD42R,1.700000X1.700000*%
%ADD43C,1.700000*%
%ADD44RoundRect,0.250000X-0.350000X-0.450000X0.350000X-0.450000X0.350000X0.450000X-0.350000X0.450000X0*%
%ADD45C,2.000000*%
%ADD46RoundRect,0.250000X0.650000X-0.412500X0.650000X0.412500X-0.650000X0.412500X-0.650000X-0.412500X0*%
%ADD47RoundRect,0.225000X-0.375000X0.225000X-0.375000X-0.225000X0.375000X-0.225000X0.375000X0.225000X0*%
%ADD48RoundRect,0.250000X0.550000X0.550000X-0.550000X0.550000X-0.550000X-0.550000X0.550000X-0.550000X0*%
%ADD49C,1.600000*%
%ADD50RoundRect,0.150000X0.150000X-0.512500X0.150000X0.512500X-0.150000X0.512500X-0.150000X-0.512500X0*%
%ADD51RoundRect,0.075000X0.075000X-0.362500X0.075000X0.362500X-0.075000X0.362500X-0.075000X-0.362500X0*%
%ADD52R,3.000000X2.600000*%
%ADD53C,3.000000*%
%ADD54RoundRect,0.250001X0.499999X-0.499999X0.499999X0.499999X-0.499999X0.499999X-0.499999X-0.499999X0*%
%ADD55C,1.500000*%
%ADD56RoundRect,0.250000X-0.550000X-0.550000X0.550000X-0.550000X0.550000X0.550000X-0.550000X0.550000X0*%
%ADD57RoundRect,0.150000X-0.512500X-0.150000X0.512500X-0.150000X0.512500X0.150000X-0.512500X0.150000X0*%
%ADD58RoundRect,0.218750X0.218750X0.256250X-0.218750X0.256250X-0.218750X-0.256250X0.218750X-0.256250X0*%
%ADD59RoundRect,0.200000X0.275000X-0.200000X0.275000X0.200000X-0.275000X0.200000X-0.275000X-0.200000X0*%
%ADD60RoundRect,0.225000X0.225000X-0.425000X0.225000X0.425000X-0.225000X0.425000X-0.225000X-0.425000X0*%
%ADD61FreePoly1,90.000000*%
%ADD62RoundRect,0.250000X-0.525000X-0.400000X0.525000X-0.400000X0.525000X0.400000X-0.525000X0.400000X0*%
%ADD63RoundRect,0.100000X0.100000X-0.225000X0.100000X0.225000X-0.100000X0.225000X-0.100000X-0.225000X0*%
G04 APERTURE END LIST*
D10*
%TO.C,U7*%
X117830598Y-35239800D03*
X119100597Y-35239800D03*
X120370598Y-35239800D03*
X121640597Y-35239800D03*
D11*
X119735600Y-32514801D03*
%TD*%
D12*
%TO.C,D9*%
X110591600Y-38185600D03*
D13*
X110591600Y-36260600D03*
%TD*%
D14*
%TO.C,J1*%
X127203200Y-30455800D03*
D15*
X127203200Y-35255801D03*
X127203200Y-40055800D03*
X127203200Y-44855800D03*
%TD*%
D16*
%TO.C,U17*%
X134797800Y-92659200D03*
X134797800Y-93294200D03*
X134797800Y-93929200D03*
X134797800Y-94564200D03*
X134797800Y-95199200D03*
X134797800Y-95834200D03*
X134797800Y-96469200D03*
X134797800Y-97104200D03*
X139997800Y-97104200D03*
X139997800Y-96469200D03*
X139997800Y-95834200D03*
X139997800Y-95199200D03*
X139997800Y-94564200D03*
X139997800Y-93929200D03*
X139997800Y-93294200D03*
X139997800Y-92659200D03*
%TD*%
D17*
%TO.C,D8*%
X107518200Y-47599600D03*
D18*
X107518200Y-49524600D03*
%TD*%
D19*
%TO.C,J16*%
X133534000Y-99110800D03*
X134184000Y-99110800D03*
X134834000Y-99110800D03*
X135484000Y-99110800D03*
X136134000Y-99110800D03*
D20*
X131334000Y-101810800D03*
D21*
X131809000Y-101810800D03*
D22*
X132334000Y-99110800D03*
D23*
X133834000Y-101810800D03*
X135834000Y-101810800D03*
D22*
X137334000Y-99110800D03*
D21*
X137859000Y-101810800D03*
D20*
X138334000Y-101810800D03*
%TD*%
D24*
%TO.C,U6*%
X128752600Y-83413600D03*
X128752600Y-84683600D03*
X128752600Y-85953600D03*
X128752600Y-87223600D03*
X133702600Y-87223600D03*
X133702600Y-85953600D03*
X133702600Y-84683600D03*
X133702600Y-83413600D03*
%TD*%
D25*
%TO.C,D13*%
X123684201Y-61448464D03*
X125259201Y-61448464D03*
%TD*%
D26*
%TO.C,R15*%
X122402600Y-71145400D03*
X125502600Y-71145400D03*
%TD*%
D27*
%TO.C,U14*%
X114757200Y-71929800D03*
X116027200Y-71929800D03*
X117297200Y-71929800D03*
X118567200Y-71929800D03*
X118567200Y-66979800D03*
X117297200Y-66979800D03*
X116027200Y-66979800D03*
X114757200Y-66979800D03*
%TD*%
D28*
%TO.C,R14*%
X125528000Y-67335400D03*
X122428000Y-67335400D03*
%TD*%
D12*
%TO.C,D4*%
X142494000Y-37668200D03*
D13*
X142494000Y-35743200D03*
%TD*%
D17*
%TO.C,D2*%
X142875000Y-59461400D03*
D18*
X142875000Y-61386400D03*
%TD*%
D29*
%TO.C,R9*%
X133173200Y-62712600D03*
X134823200Y-62712600D03*
%TD*%
D30*
%TO.C,D11*%
X144602200Y-78689400D03*
X144602200Y-77114400D03*
%TD*%
D31*
%TO.C,R19*%
X132486400Y-77039400D03*
X132486400Y-73939400D03*
%TD*%
D32*
%TO.C,C1*%
X106730800Y-67538600D03*
X106730800Y-70663600D03*
%TD*%
D33*
%TO.C,U1*%
X133659559Y-69001567D03*
X133306006Y-68648015D03*
X132952453Y-68294461D03*
X132598898Y-67940906D03*
X132245344Y-67587353D03*
X131891792Y-67233800D03*
D34*
X130911600Y-67233800D03*
X130558048Y-67587353D03*
X130204494Y-67940906D03*
X129850939Y-68294461D03*
X129497386Y-68648015D03*
X129143833Y-69001567D03*
D33*
X129143833Y-69981759D03*
X129497386Y-70335311D03*
X129850939Y-70688865D03*
X130204494Y-71042420D03*
X130558048Y-71395973D03*
X130911600Y-71749526D03*
D34*
X131891792Y-71749526D03*
X132245344Y-71395973D03*
X132598898Y-71042420D03*
X132952453Y-70688865D03*
X133306006Y-70335311D03*
X133659559Y-69981759D03*
D35*
X131401696Y-69491663D03*
%TD*%
D10*
%TO.C,U8*%
X118287798Y-46212600D03*
X119557797Y-46212600D03*
X120827798Y-46212600D03*
X122097797Y-46212600D03*
D11*
X120192800Y-43487601D03*
%TD*%
D36*
%TO.C,R13*%
X131139200Y-53898800D03*
X129489200Y-53898800D03*
%TD*%
D37*
%TO.C,C3*%
X134568400Y-59817000D03*
X137693400Y-59817000D03*
%TD*%
D38*
%TO.C,D3*%
X109228186Y-33392814D03*
X112056614Y-30564386D03*
%TD*%
D37*
%TO.C,C5*%
X118617200Y-56311800D03*
X121742200Y-56311800D03*
%TD*%
D39*
%TO.C,H3*%
X148000000Y-27000000D03*
%TD*%
D36*
%TO.C,R17*%
X126009400Y-54686200D03*
X124359400Y-54686200D03*
%TD*%
D39*
%TO.C,H1*%
X106000000Y-100000000D03*
%TD*%
D40*
%TO.C,R8*%
X119888000Y-50114200D03*
X119888000Y-53214202D03*
%TD*%
D41*
%TO.C,C13*%
X108357200Y-75107800D03*
X105232200Y-75107800D03*
%TD*%
D42*
%TO.C,J3*%
X148818600Y-94919800D03*
D43*
X148818600Y-92379800D03*
X148818600Y-89839800D03*
X148818600Y-87299800D03*
X148818600Y-84759800D03*
X148818600Y-82219800D03*
X148818600Y-79679800D03*
X148818600Y-77139800D03*
X148818600Y-74599800D03*
%TD*%
D41*
%TO.C,C6*%
X121742200Y-59740800D03*
X118617200Y-59740800D03*
%TD*%
D37*
%TO.C,C8*%
X136067800Y-69646800D03*
X139192800Y-69646800D03*
%TD*%
D30*
%TO.C,D16*%
X111353600Y-72060000D03*
X111353600Y-70485000D03*
%TD*%
%TO.C,D14*%
X132435600Y-80365800D03*
X132435600Y-78790800D03*
%TD*%
D37*
%TO.C,C14*%
X114452400Y-64236600D03*
X117577400Y-64236600D03*
%TD*%
D44*
%TO.C,R5*%
X110572800Y-63931800D03*
X112572800Y-63931800D03*
%TD*%
D12*
%TO.C,D10*%
X122326400Y-51816000D03*
D13*
X122326400Y-49891000D03*
%TD*%
D45*
%TO.C,TP1*%
X122377200Y-98374200D03*
%TD*%
D31*
%TO.C,R7*%
X113665000Y-38608601D03*
X113665000Y-35508599D03*
%TD*%
D46*
%TO.C,C15*%
X147332746Y-60919046D03*
X147332746Y-57794046D03*
%TD*%
D26*
%TO.C,R20*%
X135991600Y-66116200D03*
X139091600Y-66116200D03*
%TD*%
D47*
%TO.C,D1*%
X106832400Y-62560200D03*
X106832400Y-65860200D03*
%TD*%
D48*
%TO.C,C2*%
X143586200Y-44704000D03*
D49*
X140086200Y-44704000D03*
%TD*%
D26*
%TO.C,R10*%
X123392600Y-81305400D03*
X126492600Y-81305400D03*
%TD*%
D50*
%TO.C,U9*%
X121056400Y-77306600D03*
X122006400Y-77306600D03*
X122956400Y-77306600D03*
X122956400Y-75031600D03*
X122006400Y-75031600D03*
X121056400Y-75031600D03*
%TD*%
D51*
%TO.C,U4*%
X140843000Y-56351400D03*
X141643000Y-56351400D03*
X142443000Y-56351400D03*
X143243000Y-56351400D03*
X143243000Y-52476400D03*
X142443000Y-52476400D03*
X141643000Y-52476400D03*
X140843000Y-52476400D03*
D52*
X142043000Y-54413900D03*
%TD*%
D10*
%TO.C,U2*%
X133121400Y-35189001D03*
X131851400Y-35189000D03*
X134391400Y-35189000D03*
X135661400Y-35189000D03*
D11*
X133756400Y-32464000D03*
%TD*%
D53*
%TO.C,J5*%
X110132400Y-90147400D03*
D54*
X114452400Y-93147400D03*
D55*
X114452400Y-90147400D03*
X114452400Y-87147400D03*
X117452400Y-93147400D03*
X117452400Y-90147400D03*
X117452400Y-87147400D03*
%TD*%
D56*
%TO.C,C7*%
X110767749Y-45008800D03*
D49*
X114267749Y-45008800D03*
%TD*%
D57*
%TO.C,D17*%
X108534200Y-78638400D03*
X108534200Y-80538400D03*
X110809200Y-79588400D03*
%TD*%
D51*
%TO.C,U5*%
X113588800Y-54903600D03*
X114388800Y-54903600D03*
X115188800Y-54903600D03*
X115988800Y-54903600D03*
X115988800Y-51028600D03*
X115188800Y-51028600D03*
X114388800Y-51028600D03*
X113588800Y-51028600D03*
D52*
X114788800Y-52966100D03*
%TD*%
D24*
%TO.C,U18*%
X121640600Y-89865200D03*
X121640600Y-91135200D03*
X121640600Y-92405200D03*
X121640600Y-93675200D03*
X126590600Y-93675200D03*
X126590600Y-92405200D03*
X126590600Y-91135200D03*
X126590600Y-89865200D03*
%TD*%
D31*
%TO.C,R3*%
X138912600Y-38279002D03*
X138912600Y-35179000D03*
%TD*%
D25*
%TO.C,D18*%
X129590800Y-51206400D03*
X131165800Y-51206400D03*
%TD*%
D10*
%TO.C,U3*%
X133400800Y-46212601D03*
X132130800Y-46212600D03*
X134670800Y-46212600D03*
X135940800Y-46212600D03*
D11*
X134035800Y-43487600D03*
%TD*%
D40*
%TO.C,R6*%
X108585000Y-51028600D03*
X108585000Y-54128602D03*
%TD*%
D36*
%TO.C,R16*%
X120980200Y-62966600D03*
X119330200Y-62966600D03*
%TD*%
D41*
%TO.C,C9*%
X141859000Y-72186800D03*
X138734000Y-72186800D03*
%TD*%
D57*
%TO.C,D15*%
X118846600Y-80264000D03*
X118846600Y-82164000D03*
X121121600Y-81214000D03*
%TD*%
D39*
%TO.C,H4*%
X148000000Y-100000000D03*
%TD*%
D12*
%TO.C,D5*%
X137210800Y-51810600D03*
D13*
X137210800Y-49885600D03*
%TD*%
D24*
%TO.C,U13*%
X135966200Y-77419200D03*
X135966200Y-78689200D03*
X135966200Y-79959200D03*
X135966200Y-81229200D03*
X140916200Y-81229200D03*
X140916200Y-79959200D03*
X140916200Y-78689200D03*
X140916200Y-77419200D03*
%TD*%
D58*
%TO.C,D12*%
X125806200Y-51720264D03*
X124231200Y-51720264D03*
%TD*%
D59*
%TO.C,R21*%
X111379000Y-68529200D03*
X111379000Y-66879200D03*
%TD*%
D37*
%TO.C,C11*%
X126136400Y-76657200D03*
X129261400Y-76657200D03*
%TD*%
D60*
%TO.C,U11*%
X108151800Y-60903400D03*
D61*
X109651800Y-60815900D03*
D60*
X111151800Y-60903400D03*
%TD*%
D50*
%TO.C,U10*%
X113817400Y-77408200D03*
X114767400Y-77408200D03*
X115717400Y-77408200D03*
X115717400Y-75133200D03*
X114767400Y-75133200D03*
X113817400Y-75133200D03*
%TD*%
D40*
%TO.C,R4*%
X133477000Y-49301400D03*
X133477000Y-52401402D03*
%TD*%
D62*
%TO.C,SW2*%
X141274800Y-64334000D03*
X149234800Y-64334000D03*
X141274800Y-68834000D03*
X149234800Y-68834000D03*
%TD*%
D39*
%TO.C,H2*%
X106000000Y-27000000D03*
%TD*%
D63*
%TO.C,Q6*%
X129717800Y-58465800D03*
X130367800Y-58465800D03*
X131017800Y-58465800D03*
X131017800Y-56565800D03*
X129717800Y-56565800D03*
%TD*%
D45*
%TO.C,TP2*%
X117551200Y-98374200D03*
%TD*%
D31*
%TO.C,R2*%
X140208000Y-61417200D03*
X140208000Y-58317200D03*
%TD*%
D41*
%TO.C,C4*%
X137668000Y-56108600D03*
X134543000Y-56108600D03*
%TD*%
D46*
%TO.C,C21*%
X121132600Y-87401400D03*
X121132600Y-84276400D03*
%TD*%
D63*
%TO.C,Q1*%
X124497001Y-58878064D03*
X125147001Y-58878064D03*
X125797001Y-58878064D03*
X125797001Y-56978064D03*
X124497001Y-56978064D03*
%TD*%
D26*
%TO.C,R12*%
X113284000Y-80822800D03*
X116384000Y-80822800D03*
%TD*%
D31*
%TO.C,R11*%
X144678400Y-75363000D03*
X144678400Y-72263000D03*
%TD*%
D32*
%TO.C,C10*%
X143205200Y-91770200D03*
X143205200Y-94895200D03*
%TD*%
D58*
%TO.C,D19*%
X131013400Y-61417200D03*
X129438400Y-61417200D03*
%TD*%
M02*
