M48
; DRILL file {KiCad 9.0.4} date 2025-12-11T20:36:51-0600
; FORMAT={-:-/ absolute / metric / decimal}
; #@! TF.CreationDate,2025-12-11T20:36:51-06:00
; #@! TF.GenerationSoftware,Kicad,Pcbnew,9.0.4
; #@! TF.FileFunction,Plated,1,2,PTH
FMAT,2
METRIC
; #@! TA.AperFunction,Plated,PTH,ViaDrill
T1C0.300
; #@! TA.AperFunction,Plated,PTH,ComponentDrill
T2C0.500
; #@! TA.AperFunction,Plated,PTH,ComponentDrill
T3C0.550
; #@! TA.AperFunction,Plated,PTH,ComponentDrill
T4C0.800
; #@! TA.AperFunction,Plated,PTH,ComponentDrill
T5C1.000
; #@! TA.AperFunction,Plated,PTH,ComponentDrill
T6C1.020
; #@! TA.AperFunction,Plated,PTH,ComponentDrill
T7C1.600
%
G90
G05
T1
X105.791Y-53.848
X110.795Y-53.162
X113.716Y-38.608
X114.389Y-51.029
X114.452Y-56.744
X115.717Y-75.133
X115.717Y-77.408
X116.027Y-55.931
X118.288Y-46.213
X119.558Y-46.213
X120.828Y-46.213
X120.98Y-62.967
X121.971Y-42.545
X122.072Y-61.595
X122.555Y-58.064
X122.936Y-79.35
X122.956Y-75.032
X122.956Y-77.307
X123.673Y-59.893
X123.684Y-61.448
X124.308Y-73.05
X124.497Y-56.978
X125.259Y-61.448
X125.797Y-56.978
X125.806Y-51.72
X126.493Y-81.305
X126.721Y-79.578
X127.406Y-61.366
X127.991Y-71.247
X128.067Y-72.72
X129.591Y-51.206
X129.718Y-56.566
X129.794Y-59.995
X130.336Y-72.607
X131.402Y-69.492
X131.712Y-64.884
X132.131Y-46.213
X132.182Y-58.674
X133.045Y-66.396
X133.401Y-46.213
X134.671Y-46.213
X134.747Y-70.282
X134.823Y-69.165
X135.966Y-78.689
X136.112Y-95.663
X136.601Y-94.945
X136.931Y-52.039
X138.354Y-89.23
X138.405Y-93.65
X138.913Y-38.279
X139.092Y-66.116
X139.598Y-76.403
X140.919Y-80.01
X140.981Y-50.597
X141.643Y-52.476
X141.656Y-57.455
X142.043Y-54.414
X142.596Y-77.521
X142.735Y-57.645
X142.824Y-62.662
X143.205Y-94.895
X143.243Y-52.476
X144.196Y-51.714
X145.898Y-53.721
X146.152Y-82.321
X147.333Y-60.919
X149.149Y-70.815
T4
X110.768Y-45.009
X114.268Y-45.009
X140.086Y-44.704
X143.586Y-44.704
T5
X117.551Y-98.374
X122.377Y-98.374
X148.819Y-74.6
X148.819Y-77.14
X148.819Y-79.68
X148.819Y-82.22
X148.819Y-84.76
X148.819Y-87.3
X148.819Y-89.84
X148.819Y-92.38
X148.819Y-94.92
T6
X114.452Y-87.147
X114.452Y-90.147
X114.452Y-93.147
X117.452Y-87.147
X117.452Y-90.147
X117.452Y-93.147
T7
X127.203Y-30.456
X127.203Y-35.256
X127.203Y-40.056
X127.203Y-44.856
T2
G00X131.334Y-101.486
M15
G01X131.334Y-102.136
M16
G05
G00X138.334Y-101.486
M15
G01X138.334Y-102.136
M16
G05
T3
G00X132.184Y-99.111
M15
G01X132.484Y-99.111
M16
G05
G00X137.184Y-99.111
M15
G01X137.484Y-99.111
M16
G05
M30
