%TF.GenerationSoftware,KiCad,Pcbnew,9.0.4*%
%TF.CreationDate,2025-12-11T20:36:47-06:00*%
%TF.ProjectId,FWS_20A,4657535f-3230-4412-9e6b-696361645f70,rev?*%
%TF.SameCoordinates,Original*%
%TF.FileFunction,Legend,Bot*%
%TF.FilePolarity,Positive*%
%FSLAX46Y46*%
G04 Gerber Fmt 4.6, Leading zero omitted, Abs format (unit mm)*
G04 Created by KiCad (PCBNEW 9.0.4) date 2025-12-11 20:36:47*
%MOMM*%
%LPD*%
G01*
G04 APERTURE LIST*
%ADD10C,0.100000*%
%ADD11C,0.150000*%
%ADD12C,0.120000*%
G04 APERTURE END LIST*
D10*
X148557064Y-33528000D02*
G75*
G02*
X147708536Y-33528000I-424264J0D01*
G01*
X147708536Y-33528000D02*
G75*
G02*
X148557064Y-33528000I424264J0D01*
G01*
X148658664Y-29946600D02*
G75*
G02*
X147810136Y-29946600I-424264J0D01*
G01*
X147810136Y-29946600D02*
G75*
G02*
X148658664Y-29946600I424264J0D01*
G01*
X148506264Y-35433000D02*
G75*
G02*
X147657736Y-35433000I-424264J0D01*
G01*
X147657736Y-35433000D02*
G75*
G02*
X148506264Y-35433000I424264J0D01*
G01*
X148684064Y-31750000D02*
G75*
G02*
X147835536Y-31750000I-424264J0D01*
G01*
X147835536Y-31750000D02*
G75*
G02*
X148684064Y-31750000I424264J0D01*
G01*
X146733534Y-80088800D02*
X146590677Y-80136419D01*
X146590677Y-80136419D02*
X146352582Y-80136419D01*
X146352582Y-80136419D02*
X146257344Y-80088800D01*
X146257344Y-80088800D02*
X146209725Y-80041180D01*
X146209725Y-80041180D02*
X146162106Y-79945942D01*
X146162106Y-79945942D02*
X146162106Y-79850704D01*
X146162106Y-79850704D02*
X146209725Y-79755466D01*
X146209725Y-79755466D02*
X146257344Y-79707847D01*
X146257344Y-79707847D02*
X146352582Y-79660228D01*
X146352582Y-79660228D02*
X146543058Y-79612609D01*
X146543058Y-79612609D02*
X146638296Y-79564990D01*
X146638296Y-79564990D02*
X146685915Y-79517371D01*
X146685915Y-79517371D02*
X146733534Y-79422133D01*
X146733534Y-79422133D02*
X146733534Y-79326895D01*
X146733534Y-79326895D02*
X146685915Y-79231657D01*
X146685915Y-79231657D02*
X146638296Y-79184038D01*
X146638296Y-79184038D02*
X146543058Y-79136419D01*
X146543058Y-79136419D02*
X146304963Y-79136419D01*
X146304963Y-79136419D02*
X146162106Y-79184038D01*
X145828772Y-79136419D02*
X145590677Y-80136419D01*
X145590677Y-80136419D02*
X145400201Y-79422133D01*
X145400201Y-79422133D02*
X145209725Y-80136419D01*
X145209725Y-80136419D02*
X144971630Y-79136419D01*
X144590677Y-80136419D02*
X144590677Y-79136419D01*
X144590677Y-79136419D02*
X144352582Y-79136419D01*
X144352582Y-79136419D02*
X144209725Y-79184038D01*
X144209725Y-79184038D02*
X144114487Y-79279276D01*
X144114487Y-79279276D02*
X144066868Y-79374514D01*
X144066868Y-79374514D02*
X144019249Y-79564990D01*
X144019249Y-79564990D02*
X144019249Y-79707847D01*
X144019249Y-79707847D02*
X144066868Y-79898323D01*
X144066868Y-79898323D02*
X144114487Y-79993561D01*
X144114487Y-79993561D02*
X144209725Y-80088800D01*
X144209725Y-80088800D02*
X144352582Y-80136419D01*
X144352582Y-80136419D02*
X144590677Y-80136419D01*
X143590677Y-80136419D02*
X143590677Y-79136419D01*
X142924011Y-79136419D02*
X142733535Y-79136419D01*
X142733535Y-79136419D02*
X142638297Y-79184038D01*
X142638297Y-79184038D02*
X142543059Y-79279276D01*
X142543059Y-79279276D02*
X142495440Y-79469752D01*
X142495440Y-79469752D02*
X142495440Y-79803085D01*
X142495440Y-79803085D02*
X142543059Y-79993561D01*
X142543059Y-79993561D02*
X142638297Y-80088800D01*
X142638297Y-80088800D02*
X142733535Y-80136419D01*
X142733535Y-80136419D02*
X142924011Y-80136419D01*
X142924011Y-80136419D02*
X143019249Y-80088800D01*
X143019249Y-80088800D02*
X143114487Y-79993561D01*
X143114487Y-79993561D02*
X143162106Y-79803085D01*
X143162106Y-79803085D02*
X143162106Y-79469752D01*
X143162106Y-79469752D02*
X143114487Y-79279276D01*
X143114487Y-79279276D02*
X143019249Y-79184038D01*
X143019249Y-79184038D02*
X142924011Y-79136419D01*
X112804616Y-91099778D02*
X113040318Y-90864075D01*
X113410708Y-91234465D02*
X112703601Y-90527358D01*
X112703601Y-90527358D02*
X112366883Y-90864075D01*
X112400555Y-92244617D02*
X112299540Y-91672198D01*
X112804616Y-91840556D02*
X112097509Y-91133450D01*
X112097509Y-91133450D02*
X111828135Y-91402824D01*
X111828135Y-91402824D02*
X111794463Y-91503839D01*
X111794463Y-91503839D02*
X111794463Y-91571182D01*
X111794463Y-91571182D02*
X111828135Y-91672198D01*
X111828135Y-91672198D02*
X111929150Y-91773213D01*
X111929150Y-91773213D02*
X112030166Y-91806885D01*
X112030166Y-91806885D02*
X112097509Y-91806885D01*
X112097509Y-91806885D02*
X112198524Y-91773213D01*
X112198524Y-91773213D02*
X112467898Y-91503839D01*
X111255715Y-91975243D02*
X111121028Y-92109930D01*
X111121028Y-92109930D02*
X111087357Y-92210946D01*
X111087357Y-92210946D02*
X111087357Y-92345633D01*
X111087357Y-92345633D02*
X111188372Y-92513991D01*
X111188372Y-92513991D02*
X111424074Y-92749694D01*
X111424074Y-92749694D02*
X111592433Y-92850709D01*
X111592433Y-92850709D02*
X111727120Y-92850709D01*
X111727120Y-92850709D02*
X111828135Y-92817037D01*
X111828135Y-92817037D02*
X111962822Y-92682350D01*
X111962822Y-92682350D02*
X111996494Y-92581335D01*
X111996494Y-92581335D02*
X111996494Y-92446648D01*
X111996494Y-92446648D02*
X111895479Y-92278289D01*
X111895479Y-92278289D02*
X111659776Y-92042587D01*
X111659776Y-92042587D02*
X111491418Y-91941572D01*
X111491418Y-91941572D02*
X111356731Y-91941572D01*
X111356731Y-91941572D02*
X111255715Y-91975243D01*
X111356731Y-93288442D02*
X110649624Y-92581335D01*
X110649624Y-92581335D02*
X110952670Y-93692503D01*
X110952670Y-93692503D02*
X110245563Y-92985396D01*
X110009861Y-93221098D02*
X109605800Y-93625159D01*
X110514937Y-94130235D02*
X109807830Y-93423129D01*
X109370097Y-94871014D02*
X109033379Y-95207732D01*
X109639471Y-95005701D02*
X108696662Y-94534297D01*
X108696662Y-94534297D02*
X109168066Y-95477106D01*
X108932364Y-95712808D02*
X108225257Y-95005701D01*
X108225257Y-95005701D02*
X108528303Y-96116869D01*
X108528303Y-96116869D02*
X107821196Y-95409762D01*
X107147761Y-96150541D02*
X107181433Y-96049526D01*
X107181433Y-96049526D02*
X107282448Y-95948510D01*
X107282448Y-95948510D02*
X107417135Y-95881167D01*
X107417135Y-95881167D02*
X107551822Y-95881167D01*
X107551822Y-95881167D02*
X107652838Y-95914839D01*
X107652838Y-95914839D02*
X107821196Y-96015854D01*
X107821196Y-96015854D02*
X107922212Y-96116869D01*
X107922212Y-96116869D02*
X108023227Y-96285228D01*
X108023227Y-96285228D02*
X108056899Y-96386243D01*
X108056899Y-96386243D02*
X108056899Y-96520930D01*
X108056899Y-96520930D02*
X107989555Y-96655617D01*
X107989555Y-96655617D02*
X107922212Y-96722961D01*
X107922212Y-96722961D02*
X107787525Y-96790304D01*
X107787525Y-96790304D02*
X107720181Y-96790304D01*
X107720181Y-96790304D02*
X107484479Y-96554602D01*
X107484479Y-96554602D02*
X107619166Y-96419915D01*
X107147761Y-97497411D02*
X107484479Y-97160693D01*
X107484479Y-97160693D02*
X106777372Y-96453587D01*
X106541670Y-97362724D02*
X106305967Y-97598426D01*
X106575341Y-98069831D02*
X106912059Y-97733113D01*
X106912059Y-97733113D02*
X106204952Y-97026007D01*
X106204952Y-97026007D02*
X105868235Y-97362724D01*
X114161115Y-29501187D02*
X114161115Y-30310710D01*
X114161115Y-30310710D02*
X114113496Y-30405948D01*
X114113496Y-30405948D02*
X114065877Y-30453568D01*
X114065877Y-30453568D02*
X113970639Y-30501187D01*
X113970639Y-30501187D02*
X113780163Y-30501187D01*
X113780163Y-30501187D02*
X113684925Y-30453568D01*
X113684925Y-30453568D02*
X113637306Y-30405948D01*
X113637306Y-30405948D02*
X113589687Y-30310710D01*
X113589687Y-30310710D02*
X113589687Y-29501187D01*
X113256353Y-29501187D02*
X112684925Y-29501187D01*
X112970639Y-30501187D02*
X112970639Y-29501187D01*
X112399210Y-30215472D02*
X111923020Y-30215472D01*
X112494448Y-30501187D02*
X112161115Y-29501187D01*
X112161115Y-29501187D02*
X111827782Y-30501187D01*
X110161115Y-30501187D02*
X110494448Y-30024996D01*
X110732543Y-30501187D02*
X110732543Y-29501187D01*
X110732543Y-29501187D02*
X110351591Y-29501187D01*
X110351591Y-29501187D02*
X110256353Y-29548806D01*
X110256353Y-29548806D02*
X110208734Y-29596425D01*
X110208734Y-29596425D02*
X110161115Y-29691663D01*
X110161115Y-29691663D02*
X110161115Y-29834520D01*
X110161115Y-29834520D02*
X110208734Y-29929758D01*
X110208734Y-29929758D02*
X110256353Y-29977377D01*
X110256353Y-29977377D02*
X110351591Y-30024996D01*
X110351591Y-30024996D02*
X110732543Y-30024996D01*
X109780162Y-30215472D02*
X109303972Y-30215472D01*
X109875400Y-30501187D02*
X109542067Y-29501187D01*
X109542067Y-29501187D02*
X109208734Y-30501187D01*
X108303972Y-30405948D02*
X108351591Y-30453568D01*
X108351591Y-30453568D02*
X108494448Y-30501187D01*
X108494448Y-30501187D02*
X108589686Y-30501187D01*
X108589686Y-30501187D02*
X108732543Y-30453568D01*
X108732543Y-30453568D02*
X108827781Y-30358329D01*
X108827781Y-30358329D02*
X108875400Y-30263091D01*
X108875400Y-30263091D02*
X108923019Y-30072615D01*
X108923019Y-30072615D02*
X108923019Y-29929758D01*
X108923019Y-29929758D02*
X108875400Y-29739282D01*
X108875400Y-29739282D02*
X108827781Y-29644044D01*
X108827781Y-29644044D02*
X108732543Y-29548806D01*
X108732543Y-29548806D02*
X108589686Y-29501187D01*
X108589686Y-29501187D02*
X108494448Y-29501187D01*
X108494448Y-29501187D02*
X108351591Y-29548806D01*
X108351591Y-29548806D02*
X108303972Y-29596425D01*
X107875400Y-30501187D02*
X107875400Y-29501187D01*
X107399210Y-30501187D02*
X107399210Y-29501187D01*
X107399210Y-29501187D02*
X106827782Y-30501187D01*
X106827782Y-30501187D02*
X106827782Y-29501187D01*
X105827782Y-29548806D02*
X105923020Y-29501187D01*
X105923020Y-29501187D02*
X106065877Y-29501187D01*
X106065877Y-29501187D02*
X106208734Y-29548806D01*
X106208734Y-29548806D02*
X106303972Y-29644044D01*
X106303972Y-29644044D02*
X106351591Y-29739282D01*
X106351591Y-29739282D02*
X106399210Y-29929758D01*
X106399210Y-29929758D02*
X106399210Y-30072615D01*
X106399210Y-30072615D02*
X106351591Y-30263091D01*
X106351591Y-30263091D02*
X106303972Y-30358329D01*
X106303972Y-30358329D02*
X106208734Y-30453568D01*
X106208734Y-30453568D02*
X106065877Y-30501187D01*
X106065877Y-30501187D02*
X105970639Y-30501187D01*
X105970639Y-30501187D02*
X105827782Y-30453568D01*
X105827782Y-30453568D02*
X105780163Y-30405948D01*
X105780163Y-30405948D02*
X105780163Y-30072615D01*
X105780163Y-30072615D02*
X105970639Y-30072615D01*
X113637306Y-31158750D02*
X113732544Y-31111131D01*
X113732544Y-31111131D02*
X113875401Y-31111131D01*
X113875401Y-31111131D02*
X114018258Y-31158750D01*
X114018258Y-31158750D02*
X114113496Y-31253988D01*
X114113496Y-31253988D02*
X114161115Y-31349226D01*
X114161115Y-31349226D02*
X114208734Y-31539702D01*
X114208734Y-31539702D02*
X114208734Y-31682559D01*
X114208734Y-31682559D02*
X114161115Y-31873035D01*
X114161115Y-31873035D02*
X114113496Y-31968273D01*
X114113496Y-31968273D02*
X114018258Y-32063512D01*
X114018258Y-32063512D02*
X113875401Y-32111131D01*
X113875401Y-32111131D02*
X113780163Y-32111131D01*
X113780163Y-32111131D02*
X113637306Y-32063512D01*
X113637306Y-32063512D02*
X113589687Y-32015892D01*
X113589687Y-32015892D02*
X113589687Y-31682559D01*
X113589687Y-31682559D02*
X113780163Y-31682559D01*
X113161115Y-32015892D02*
X113113496Y-32063512D01*
X113113496Y-32063512D02*
X113161115Y-32111131D01*
X113161115Y-32111131D02*
X113208734Y-32063512D01*
X113208734Y-32063512D02*
X113161115Y-32015892D01*
X113161115Y-32015892D02*
X113161115Y-32111131D01*
X111589687Y-31587321D02*
X111446830Y-31634940D01*
X111446830Y-31634940D02*
X111399211Y-31682559D01*
X111399211Y-31682559D02*
X111351592Y-31777797D01*
X111351592Y-31777797D02*
X111351592Y-31920654D01*
X111351592Y-31920654D02*
X111399211Y-32015892D01*
X111399211Y-32015892D02*
X111446830Y-32063512D01*
X111446830Y-32063512D02*
X111542068Y-32111131D01*
X111542068Y-32111131D02*
X111923020Y-32111131D01*
X111923020Y-32111131D02*
X111923020Y-31111131D01*
X111923020Y-31111131D02*
X111589687Y-31111131D01*
X111589687Y-31111131D02*
X111494449Y-31158750D01*
X111494449Y-31158750D02*
X111446830Y-31206369D01*
X111446830Y-31206369D02*
X111399211Y-31301607D01*
X111399211Y-31301607D02*
X111399211Y-31396845D01*
X111399211Y-31396845D02*
X111446830Y-31492083D01*
X111446830Y-31492083D02*
X111494449Y-31539702D01*
X111494449Y-31539702D02*
X111589687Y-31587321D01*
X111589687Y-31587321D02*
X111923020Y-31587321D01*
X110732544Y-31111131D02*
X110542068Y-31111131D01*
X110542068Y-31111131D02*
X110446830Y-31158750D01*
X110446830Y-31158750D02*
X110351592Y-31253988D01*
X110351592Y-31253988D02*
X110303973Y-31444464D01*
X110303973Y-31444464D02*
X110303973Y-31777797D01*
X110303973Y-31777797D02*
X110351592Y-31968273D01*
X110351592Y-31968273D02*
X110446830Y-32063512D01*
X110446830Y-32063512D02*
X110542068Y-32111131D01*
X110542068Y-32111131D02*
X110732544Y-32111131D01*
X110732544Y-32111131D02*
X110827782Y-32063512D01*
X110827782Y-32063512D02*
X110923020Y-31968273D01*
X110923020Y-31968273D02*
X110970639Y-31777797D01*
X110970639Y-31777797D02*
X110970639Y-31444464D01*
X110970639Y-31444464D02*
X110923020Y-31253988D01*
X110923020Y-31253988D02*
X110827782Y-31158750D01*
X110827782Y-31158750D02*
X110732544Y-31111131D01*
X109684925Y-31111131D02*
X109494449Y-31111131D01*
X109494449Y-31111131D02*
X109399211Y-31158750D01*
X109399211Y-31158750D02*
X109303973Y-31253988D01*
X109303973Y-31253988D02*
X109256354Y-31444464D01*
X109256354Y-31444464D02*
X109256354Y-31777797D01*
X109256354Y-31777797D02*
X109303973Y-31968273D01*
X109303973Y-31968273D02*
X109399211Y-32063512D01*
X109399211Y-32063512D02*
X109494449Y-32111131D01*
X109494449Y-32111131D02*
X109684925Y-32111131D01*
X109684925Y-32111131D02*
X109780163Y-32063512D01*
X109780163Y-32063512D02*
X109875401Y-31968273D01*
X109875401Y-31968273D02*
X109923020Y-31777797D01*
X109923020Y-31777797D02*
X109923020Y-31444464D01*
X109923020Y-31444464D02*
X109875401Y-31253988D01*
X109875401Y-31253988D02*
X109780163Y-31158750D01*
X109780163Y-31158750D02*
X109684925Y-31111131D01*
X108827782Y-32111131D02*
X108827782Y-31111131D01*
X108827782Y-31111131D02*
X108256354Y-32111131D01*
X108256354Y-32111131D02*
X108256354Y-31111131D01*
X107780163Y-31587321D02*
X107446830Y-31587321D01*
X107303973Y-32111131D02*
X107780163Y-32111131D01*
X107780163Y-32111131D02*
X107780163Y-31111131D01*
X107780163Y-31111131D02*
X107303973Y-31111131D01*
X114208734Y-33435360D02*
X113732544Y-33435360D01*
X114303972Y-33721075D02*
X113970639Y-32721075D01*
X113970639Y-32721075D02*
X113637306Y-33721075D01*
X113303972Y-33721075D02*
X113303972Y-32721075D01*
X113303972Y-32721075D02*
X112970639Y-33435360D01*
X112970639Y-33435360D02*
X112637306Y-32721075D01*
X112637306Y-32721075D02*
X112637306Y-33721075D01*
X111446829Y-33435360D02*
X110970639Y-33435360D01*
X111542067Y-33721075D02*
X111208734Y-32721075D01*
X111208734Y-32721075D02*
X110875401Y-33721075D01*
X110113496Y-33054408D02*
X110113496Y-33863932D01*
X110113496Y-33863932D02*
X110161115Y-33959170D01*
X110161115Y-33959170D02*
X110208734Y-34006789D01*
X110208734Y-34006789D02*
X110303972Y-34054408D01*
X110303972Y-34054408D02*
X110446829Y-34054408D01*
X110446829Y-34054408D02*
X110542067Y-34006789D01*
X110113496Y-33673456D02*
X110208734Y-33721075D01*
X110208734Y-33721075D02*
X110399210Y-33721075D01*
X110399210Y-33721075D02*
X110494448Y-33673456D01*
X110494448Y-33673456D02*
X110542067Y-33625836D01*
X110542067Y-33625836D02*
X110589686Y-33530598D01*
X110589686Y-33530598D02*
X110589686Y-33244884D01*
X110589686Y-33244884D02*
X110542067Y-33149646D01*
X110542067Y-33149646D02*
X110494448Y-33102027D01*
X110494448Y-33102027D02*
X110399210Y-33054408D01*
X110399210Y-33054408D02*
X110208734Y-33054408D01*
X110208734Y-33054408D02*
X110113496Y-33102027D01*
X109637305Y-33721075D02*
X109637305Y-32721075D01*
X109637305Y-33102027D02*
X109542067Y-33054408D01*
X109542067Y-33054408D02*
X109351591Y-33054408D01*
X109351591Y-33054408D02*
X109256353Y-33102027D01*
X109256353Y-33102027D02*
X109208734Y-33149646D01*
X109208734Y-33149646D02*
X109161115Y-33244884D01*
X109161115Y-33244884D02*
X109161115Y-33530598D01*
X109161115Y-33530598D02*
X109208734Y-33625836D01*
X109208734Y-33625836D02*
X109256353Y-33673456D01*
X109256353Y-33673456D02*
X109351591Y-33721075D01*
X109351591Y-33721075D02*
X109542067Y-33721075D01*
X109542067Y-33721075D02*
X109637305Y-33673456D01*
X108589686Y-33721075D02*
X108684924Y-33673456D01*
X108684924Y-33673456D02*
X108732543Y-33625836D01*
X108732543Y-33625836D02*
X108780162Y-33530598D01*
X108780162Y-33530598D02*
X108780162Y-33244884D01*
X108780162Y-33244884D02*
X108732543Y-33149646D01*
X108732543Y-33149646D02*
X108684924Y-33102027D01*
X108684924Y-33102027D02*
X108589686Y-33054408D01*
X108589686Y-33054408D02*
X108446829Y-33054408D01*
X108446829Y-33054408D02*
X108351591Y-33102027D01*
X108351591Y-33102027D02*
X108303972Y-33149646D01*
X108303972Y-33149646D02*
X108256353Y-33244884D01*
X108256353Y-33244884D02*
X108256353Y-33530598D01*
X108256353Y-33530598D02*
X108303972Y-33625836D01*
X108303972Y-33625836D02*
X108351591Y-33673456D01*
X108351591Y-33673456D02*
X108446829Y-33721075D01*
X108446829Y-33721075D02*
X108589686Y-33721075D01*
X107684924Y-33721075D02*
X107780162Y-33673456D01*
X107780162Y-33673456D02*
X107827781Y-33625836D01*
X107827781Y-33625836D02*
X107875400Y-33530598D01*
X107875400Y-33530598D02*
X107875400Y-33244884D01*
X107875400Y-33244884D02*
X107827781Y-33149646D01*
X107827781Y-33149646D02*
X107780162Y-33102027D01*
X107780162Y-33102027D02*
X107684924Y-33054408D01*
X107684924Y-33054408D02*
X107542067Y-33054408D01*
X107542067Y-33054408D02*
X107446829Y-33102027D01*
X107446829Y-33102027D02*
X107399210Y-33149646D01*
X107399210Y-33149646D02*
X107351591Y-33244884D01*
X107351591Y-33244884D02*
X107351591Y-33530598D01*
X107351591Y-33530598D02*
X107399210Y-33625836D01*
X107399210Y-33625836D02*
X107446829Y-33673456D01*
X107446829Y-33673456D02*
X107542067Y-33721075D01*
X107542067Y-33721075D02*
X107684924Y-33721075D01*
X106780162Y-33721075D02*
X106875400Y-33673456D01*
X106875400Y-33673456D02*
X106923019Y-33578217D01*
X106923019Y-33578217D02*
X106923019Y-32721075D01*
X105970638Y-33721075D02*
X105970638Y-33197265D01*
X105970638Y-33197265D02*
X106018257Y-33102027D01*
X106018257Y-33102027D02*
X106113495Y-33054408D01*
X106113495Y-33054408D02*
X106303971Y-33054408D01*
X106303971Y-33054408D02*
X106399209Y-33102027D01*
X105970638Y-33673456D02*
X106065876Y-33721075D01*
X106065876Y-33721075D02*
X106303971Y-33721075D01*
X106303971Y-33721075D02*
X106399209Y-33673456D01*
X106399209Y-33673456D02*
X106446828Y-33578217D01*
X106446828Y-33578217D02*
X106446828Y-33482979D01*
X106446828Y-33482979D02*
X106399209Y-33387741D01*
X106399209Y-33387741D02*
X106303971Y-33340122D01*
X106303971Y-33340122D02*
X106065876Y-33340122D01*
X106065876Y-33340122D02*
X105970638Y-33292503D01*
X114161115Y-35331019D02*
X114161115Y-34331019D01*
X114161115Y-34331019D02*
X113923020Y-34331019D01*
X113923020Y-34331019D02*
X113780163Y-34378638D01*
X113780163Y-34378638D02*
X113684925Y-34473876D01*
X113684925Y-34473876D02*
X113637306Y-34569114D01*
X113637306Y-34569114D02*
X113589687Y-34759590D01*
X113589687Y-34759590D02*
X113589687Y-34902447D01*
X113589687Y-34902447D02*
X113637306Y-35092923D01*
X113637306Y-35092923D02*
X113684925Y-35188161D01*
X113684925Y-35188161D02*
X113780163Y-35283400D01*
X113780163Y-35283400D02*
X113923020Y-35331019D01*
X113923020Y-35331019D02*
X114161115Y-35331019D01*
X112780163Y-35283400D02*
X112875401Y-35331019D01*
X112875401Y-35331019D02*
X113065877Y-35331019D01*
X113065877Y-35331019D02*
X113161115Y-35283400D01*
X113161115Y-35283400D02*
X113208734Y-35188161D01*
X113208734Y-35188161D02*
X113208734Y-34807209D01*
X113208734Y-34807209D02*
X113161115Y-34711971D01*
X113161115Y-34711971D02*
X113065877Y-34664352D01*
X113065877Y-34664352D02*
X112875401Y-34664352D01*
X112875401Y-34664352D02*
X112780163Y-34711971D01*
X112780163Y-34711971D02*
X112732544Y-34807209D01*
X112732544Y-34807209D02*
X112732544Y-34902447D01*
X112732544Y-34902447D02*
X113208734Y-34997685D01*
X111875401Y-35283400D02*
X111970639Y-35331019D01*
X111970639Y-35331019D02*
X112161115Y-35331019D01*
X112161115Y-35331019D02*
X112256353Y-35283400D01*
X112256353Y-35283400D02*
X112303972Y-35235780D01*
X112303972Y-35235780D02*
X112351591Y-35140542D01*
X112351591Y-35140542D02*
X112351591Y-34854828D01*
X112351591Y-34854828D02*
X112303972Y-34759590D01*
X112303972Y-34759590D02*
X112256353Y-34711971D01*
X112256353Y-34711971D02*
X112161115Y-34664352D01*
X112161115Y-34664352D02*
X111970639Y-34664352D01*
X111970639Y-34664352D02*
X111875401Y-34711971D01*
X111446829Y-35235780D02*
X111399210Y-35283400D01*
X111399210Y-35283400D02*
X111446829Y-35331019D01*
X111446829Y-35331019D02*
X111494448Y-35283400D01*
X111494448Y-35283400D02*
X111446829Y-35235780D01*
X111446829Y-35235780D02*
X111446829Y-35331019D01*
X109684925Y-35331019D02*
X110256353Y-35331019D01*
X109970639Y-35331019D02*
X109970639Y-34331019D01*
X109970639Y-34331019D02*
X110065877Y-34473876D01*
X110065877Y-34473876D02*
X110161115Y-34569114D01*
X110161115Y-34569114D02*
X110256353Y-34616733D01*
X108732544Y-35331019D02*
X109303972Y-35331019D01*
X109018258Y-35331019D02*
X109018258Y-34331019D01*
X109018258Y-34331019D02*
X109113496Y-34473876D01*
X109113496Y-34473876D02*
X109208734Y-34569114D01*
X109208734Y-34569114D02*
X109303972Y-34616733D01*
X107589686Y-34426257D02*
X107542067Y-34378638D01*
X107542067Y-34378638D02*
X107446829Y-34331019D01*
X107446829Y-34331019D02*
X107208734Y-34331019D01*
X107208734Y-34331019D02*
X107113496Y-34378638D01*
X107113496Y-34378638D02*
X107065877Y-34426257D01*
X107065877Y-34426257D02*
X107018258Y-34521495D01*
X107018258Y-34521495D02*
X107018258Y-34616733D01*
X107018258Y-34616733D02*
X107065877Y-34759590D01*
X107065877Y-34759590D02*
X107637305Y-35331019D01*
X107637305Y-35331019D02*
X107018258Y-35331019D01*
X106399210Y-34331019D02*
X106303972Y-34331019D01*
X106303972Y-34331019D02*
X106208734Y-34378638D01*
X106208734Y-34378638D02*
X106161115Y-34426257D01*
X106161115Y-34426257D02*
X106113496Y-34521495D01*
X106113496Y-34521495D02*
X106065877Y-34711971D01*
X106065877Y-34711971D02*
X106065877Y-34950066D01*
X106065877Y-34950066D02*
X106113496Y-35140542D01*
X106113496Y-35140542D02*
X106161115Y-35235780D01*
X106161115Y-35235780D02*
X106208734Y-35283400D01*
X106208734Y-35283400D02*
X106303972Y-35331019D01*
X106303972Y-35331019D02*
X106399210Y-35331019D01*
X106399210Y-35331019D02*
X106494448Y-35283400D01*
X106494448Y-35283400D02*
X106542067Y-35235780D01*
X106542067Y-35235780D02*
X106589686Y-35140542D01*
X106589686Y-35140542D02*
X106637305Y-34950066D01*
X106637305Y-34950066D02*
X106637305Y-34711971D01*
X106637305Y-34711971D02*
X106589686Y-34521495D01*
X106589686Y-34521495D02*
X106542067Y-34426257D01*
X106542067Y-34426257D02*
X106494448Y-34378638D01*
X106494448Y-34378638D02*
X106399210Y-34331019D01*
X105684924Y-34426257D02*
X105637305Y-34378638D01*
X105637305Y-34378638D02*
X105542067Y-34331019D01*
X105542067Y-34331019D02*
X105303972Y-34331019D01*
X105303972Y-34331019D02*
X105208734Y-34378638D01*
X105208734Y-34378638D02*
X105161115Y-34426257D01*
X105161115Y-34426257D02*
X105113496Y-34521495D01*
X105113496Y-34521495D02*
X105113496Y-34616733D01*
X105113496Y-34616733D02*
X105161115Y-34759590D01*
X105161115Y-34759590D02*
X105732543Y-35331019D01*
X105732543Y-35331019D02*
X105113496Y-35331019D01*
X104208734Y-34331019D02*
X104684924Y-34331019D01*
X104684924Y-34331019D02*
X104732543Y-34807209D01*
X104732543Y-34807209D02*
X104684924Y-34759590D01*
X104684924Y-34759590D02*
X104589686Y-34711971D01*
X104589686Y-34711971D02*
X104351591Y-34711971D01*
X104351591Y-34711971D02*
X104256353Y-34759590D01*
X104256353Y-34759590D02*
X104208734Y-34807209D01*
X104208734Y-34807209D02*
X104161115Y-34902447D01*
X104161115Y-34902447D02*
X104161115Y-35140542D01*
X104161115Y-35140542D02*
X104208734Y-35235780D01*
X104208734Y-35235780D02*
X104256353Y-35283400D01*
X104256353Y-35283400D02*
X104351591Y-35331019D01*
X104351591Y-35331019D02*
X104589686Y-35331019D01*
X104589686Y-35331019D02*
X104684924Y-35283400D01*
X104684924Y-35283400D02*
X104732543Y-35235780D01*
X146762115Y-32003419D02*
X146762115Y-31003419D01*
X146762115Y-31003419D02*
X146428782Y-31717704D01*
X146428782Y-31717704D02*
X146095449Y-31003419D01*
X146095449Y-31003419D02*
X146095449Y-32003419D01*
X145619258Y-31622466D02*
X144857354Y-31622466D01*
X145238306Y-32003419D02*
X145238306Y-31241514D01*
X146885934Y-77523400D02*
X146743077Y-77571019D01*
X146743077Y-77571019D02*
X146504982Y-77571019D01*
X146504982Y-77571019D02*
X146409744Y-77523400D01*
X146409744Y-77523400D02*
X146362125Y-77475780D01*
X146362125Y-77475780D02*
X146314506Y-77380542D01*
X146314506Y-77380542D02*
X146314506Y-77285304D01*
X146314506Y-77285304D02*
X146362125Y-77190066D01*
X146362125Y-77190066D02*
X146409744Y-77142447D01*
X146409744Y-77142447D02*
X146504982Y-77094828D01*
X146504982Y-77094828D02*
X146695458Y-77047209D01*
X146695458Y-77047209D02*
X146790696Y-76999590D01*
X146790696Y-76999590D02*
X146838315Y-76951971D01*
X146838315Y-76951971D02*
X146885934Y-76856733D01*
X146885934Y-76856733D02*
X146885934Y-76761495D01*
X146885934Y-76761495D02*
X146838315Y-76666257D01*
X146838315Y-76666257D02*
X146790696Y-76618638D01*
X146790696Y-76618638D02*
X146695458Y-76571019D01*
X146695458Y-76571019D02*
X146457363Y-76571019D01*
X146457363Y-76571019D02*
X146314506Y-76618638D01*
X145981172Y-76571019D02*
X145743077Y-77571019D01*
X145743077Y-77571019D02*
X145552601Y-76856733D01*
X145552601Y-76856733D02*
X145362125Y-77571019D01*
X145362125Y-77571019D02*
X145124030Y-76571019D01*
X144743077Y-77571019D02*
X144743077Y-76571019D01*
X144743077Y-76571019D02*
X144504982Y-76571019D01*
X144504982Y-76571019D02*
X144362125Y-76618638D01*
X144362125Y-76618638D02*
X144266887Y-76713876D01*
X144266887Y-76713876D02*
X144219268Y-76809114D01*
X144219268Y-76809114D02*
X144171649Y-76999590D01*
X144171649Y-76999590D02*
X144171649Y-77142447D01*
X144171649Y-77142447D02*
X144219268Y-77332923D01*
X144219268Y-77332923D02*
X144266887Y-77428161D01*
X144266887Y-77428161D02*
X144362125Y-77523400D01*
X144362125Y-77523400D02*
X144504982Y-77571019D01*
X144504982Y-77571019D02*
X144743077Y-77571019D01*
X143171649Y-77475780D02*
X143219268Y-77523400D01*
X143219268Y-77523400D02*
X143362125Y-77571019D01*
X143362125Y-77571019D02*
X143457363Y-77571019D01*
X143457363Y-77571019D02*
X143600220Y-77523400D01*
X143600220Y-77523400D02*
X143695458Y-77428161D01*
X143695458Y-77428161D02*
X143743077Y-77332923D01*
X143743077Y-77332923D02*
X143790696Y-77142447D01*
X143790696Y-77142447D02*
X143790696Y-76999590D01*
X143790696Y-76999590D02*
X143743077Y-76809114D01*
X143743077Y-76809114D02*
X143695458Y-76713876D01*
X143695458Y-76713876D02*
X143600220Y-76618638D01*
X143600220Y-76618638D02*
X143457363Y-76571019D01*
X143457363Y-76571019D02*
X143362125Y-76571019D01*
X143362125Y-76571019D02*
X143219268Y-76618638D01*
X143219268Y-76618638D02*
X143171649Y-76666257D01*
X142266887Y-77571019D02*
X142743077Y-77571019D01*
X142743077Y-77571019D02*
X142743077Y-76571019D01*
X141933553Y-77571019D02*
X141933553Y-76571019D01*
X141362125Y-77571019D02*
X141790696Y-76999590D01*
X141362125Y-76571019D02*
X141933553Y-77142447D01*
X146990715Y-92430066D02*
X146228811Y-92430066D01*
X146609763Y-92811019D02*
X146609763Y-92049114D01*
X145276430Y-91811019D02*
X145752620Y-91811019D01*
X145752620Y-91811019D02*
X145800239Y-92287209D01*
X145800239Y-92287209D02*
X145752620Y-92239590D01*
X145752620Y-92239590D02*
X145657382Y-92191971D01*
X145657382Y-92191971D02*
X145419287Y-92191971D01*
X145419287Y-92191971D02*
X145324049Y-92239590D01*
X145324049Y-92239590D02*
X145276430Y-92287209D01*
X145276430Y-92287209D02*
X145228811Y-92382447D01*
X145228811Y-92382447D02*
X145228811Y-92620542D01*
X145228811Y-92620542D02*
X145276430Y-92715780D01*
X145276430Y-92715780D02*
X145324049Y-92763400D01*
X145324049Y-92763400D02*
X145419287Y-92811019D01*
X145419287Y-92811019D02*
X145657382Y-92811019D01*
X145657382Y-92811019D02*
X145752620Y-92763400D01*
X145752620Y-92763400D02*
X145800239Y-92715780D01*
X144943096Y-91811019D02*
X144609763Y-92811019D01*
X144609763Y-92811019D02*
X144276430Y-91811019D01*
X142990715Y-91811019D02*
X142800239Y-91811019D01*
X142800239Y-91811019D02*
X142705001Y-91858638D01*
X142705001Y-91858638D02*
X142609763Y-91953876D01*
X142609763Y-91953876D02*
X142562144Y-92144352D01*
X142562144Y-92144352D02*
X142562144Y-92477685D01*
X142562144Y-92477685D02*
X142609763Y-92668161D01*
X142609763Y-92668161D02*
X142705001Y-92763400D01*
X142705001Y-92763400D02*
X142800239Y-92811019D01*
X142800239Y-92811019D02*
X142990715Y-92811019D01*
X142990715Y-92811019D02*
X143085953Y-92763400D01*
X143085953Y-92763400D02*
X143181191Y-92668161D01*
X143181191Y-92668161D02*
X143228810Y-92477685D01*
X143228810Y-92477685D02*
X143228810Y-92144352D01*
X143228810Y-92144352D02*
X143181191Y-91953876D01*
X143181191Y-91953876D02*
X143085953Y-91858638D01*
X143085953Y-91858638D02*
X142990715Y-91811019D01*
X142133572Y-91811019D02*
X142133572Y-92620542D01*
X142133572Y-92620542D02*
X142085953Y-92715780D01*
X142085953Y-92715780D02*
X142038334Y-92763400D01*
X142038334Y-92763400D02*
X141943096Y-92811019D01*
X141943096Y-92811019D02*
X141752620Y-92811019D01*
X141752620Y-92811019D02*
X141657382Y-92763400D01*
X141657382Y-92763400D02*
X141609763Y-92715780D01*
X141609763Y-92715780D02*
X141562144Y-92620542D01*
X141562144Y-92620542D02*
X141562144Y-91811019D01*
X141228810Y-91811019D02*
X140657382Y-91811019D01*
X140943096Y-92811019D02*
X140943096Y-91811019D01*
X147117715Y-89966266D02*
X146355811Y-89966266D01*
X146736763Y-90347219D02*
X146736763Y-89585314D01*
X145974858Y-89347219D02*
X145355811Y-89347219D01*
X145355811Y-89347219D02*
X145689144Y-89728171D01*
X145689144Y-89728171D02*
X145546287Y-89728171D01*
X145546287Y-89728171D02*
X145451049Y-89775790D01*
X145451049Y-89775790D02*
X145403430Y-89823409D01*
X145403430Y-89823409D02*
X145355811Y-89918647D01*
X145355811Y-89918647D02*
X145355811Y-90156742D01*
X145355811Y-90156742D02*
X145403430Y-90251980D01*
X145403430Y-90251980D02*
X145451049Y-90299600D01*
X145451049Y-90299600D02*
X145546287Y-90347219D01*
X145546287Y-90347219D02*
X145832001Y-90347219D01*
X145832001Y-90347219D02*
X145927239Y-90299600D01*
X145927239Y-90299600D02*
X145974858Y-90251980D01*
X145070096Y-89347219D02*
X144736763Y-90347219D01*
X144736763Y-90347219D02*
X144403430Y-89347219D01*
X144165334Y-89347219D02*
X143546287Y-89347219D01*
X143546287Y-89347219D02*
X143879620Y-89728171D01*
X143879620Y-89728171D02*
X143736763Y-89728171D01*
X143736763Y-89728171D02*
X143641525Y-89775790D01*
X143641525Y-89775790D02*
X143593906Y-89823409D01*
X143593906Y-89823409D02*
X143546287Y-89918647D01*
X143546287Y-89918647D02*
X143546287Y-90156742D01*
X143546287Y-90156742D02*
X143593906Y-90251980D01*
X143593906Y-90251980D02*
X143641525Y-90299600D01*
X143641525Y-90299600D02*
X143736763Y-90347219D01*
X143736763Y-90347219D02*
X144022477Y-90347219D01*
X144022477Y-90347219D02*
X144117715Y-90299600D01*
X144117715Y-90299600D02*
X144165334Y-90251980D01*
X146593906Y-34810238D02*
X146689144Y-34762619D01*
X146689144Y-34762619D02*
X146832001Y-34762619D01*
X146832001Y-34762619D02*
X146974858Y-34810238D01*
X146974858Y-34810238D02*
X147070096Y-34905476D01*
X147070096Y-34905476D02*
X147117715Y-35000714D01*
X147117715Y-35000714D02*
X147165334Y-35191190D01*
X147165334Y-35191190D02*
X147165334Y-35334047D01*
X147165334Y-35334047D02*
X147117715Y-35524523D01*
X147117715Y-35524523D02*
X147070096Y-35619761D01*
X147070096Y-35619761D02*
X146974858Y-35715000D01*
X146974858Y-35715000D02*
X146832001Y-35762619D01*
X146832001Y-35762619D02*
X146736763Y-35762619D01*
X146736763Y-35762619D02*
X146593906Y-35715000D01*
X146593906Y-35715000D02*
X146546287Y-35667380D01*
X146546287Y-35667380D02*
X146546287Y-35334047D01*
X146546287Y-35334047D02*
X146736763Y-35334047D01*
X146117715Y-35762619D02*
X146117715Y-34762619D01*
X146117715Y-34762619D02*
X145546287Y-35762619D01*
X145546287Y-35762619D02*
X145546287Y-34762619D01*
X145070096Y-35762619D02*
X145070096Y-34762619D01*
X145070096Y-34762619D02*
X144832001Y-34762619D01*
X144832001Y-34762619D02*
X144689144Y-34810238D01*
X144689144Y-34810238D02*
X144593906Y-34905476D01*
X144593906Y-34905476D02*
X144546287Y-35000714D01*
X144546287Y-35000714D02*
X144498668Y-35191190D01*
X144498668Y-35191190D02*
X144498668Y-35334047D01*
X144498668Y-35334047D02*
X144546287Y-35524523D01*
X144546287Y-35524523D02*
X144593906Y-35619761D01*
X144593906Y-35619761D02*
X144689144Y-35715000D01*
X144689144Y-35715000D02*
X144832001Y-35762619D01*
X144832001Y-35762619D02*
X145070096Y-35762619D01*
X115165647Y-95499326D02*
X115064631Y-94926906D01*
X115569708Y-95095265D02*
X114862601Y-94388158D01*
X114862601Y-94388158D02*
X114593227Y-94657532D01*
X114593227Y-94657532D02*
X114559555Y-94758547D01*
X114559555Y-94758547D02*
X114559555Y-94825891D01*
X114559555Y-94825891D02*
X114593227Y-94926906D01*
X114593227Y-94926906D02*
X114694242Y-95027921D01*
X114694242Y-95027921D02*
X114795257Y-95061593D01*
X114795257Y-95061593D02*
X114862601Y-95061593D01*
X114862601Y-95061593D02*
X114963616Y-95027921D01*
X114963616Y-95027921D02*
X115232990Y-94758547D01*
X114492211Y-95431982D02*
X114256509Y-95667685D01*
X114525883Y-96139089D02*
X114862601Y-95802372D01*
X114862601Y-95802372D02*
X114155494Y-95095265D01*
X114155494Y-95095265D02*
X113818776Y-95431982D01*
X114054479Y-96206433D02*
X113717761Y-96543150D01*
X114323853Y-96341120D02*
X113381044Y-95869715D01*
X113381044Y-95869715D02*
X113852448Y-96812524D01*
X113212685Y-97452288D02*
X113111670Y-96879868D01*
X113616746Y-97048227D02*
X112909639Y-96341120D01*
X112909639Y-96341120D02*
X112640265Y-96610494D01*
X112640265Y-96610494D02*
X112606593Y-96711509D01*
X112606593Y-96711509D02*
X112606593Y-96778852D01*
X112606593Y-96778852D02*
X112640265Y-96879868D01*
X112640265Y-96879868D02*
X112741280Y-96980883D01*
X112741280Y-96980883D02*
X112842295Y-97014555D01*
X112842295Y-97014555D02*
X112909639Y-97014555D01*
X112909639Y-97014555D02*
X113010654Y-96980883D01*
X113010654Y-96980883D02*
X113280028Y-96711509D01*
X112202532Y-98058379D02*
X111865815Y-98395097D01*
X112471906Y-98193066D02*
X111529097Y-97721662D01*
X111529097Y-97721662D02*
X112000502Y-98664471D01*
X111764799Y-98900173D02*
X111057692Y-98193066D01*
X111057692Y-98193066D02*
X111360738Y-99304234D01*
X111360738Y-99304234D02*
X110653631Y-98597127D01*
X109980196Y-99337906D02*
X110013868Y-99236891D01*
X110013868Y-99236891D02*
X110114883Y-99135875D01*
X110114883Y-99135875D02*
X110249570Y-99068532D01*
X110249570Y-99068532D02*
X110384257Y-99068532D01*
X110384257Y-99068532D02*
X110485273Y-99102204D01*
X110485273Y-99102204D02*
X110653631Y-99203219D01*
X110653631Y-99203219D02*
X110754647Y-99304234D01*
X110754647Y-99304234D02*
X110855662Y-99472593D01*
X110855662Y-99472593D02*
X110889334Y-99573608D01*
X110889334Y-99573608D02*
X110889334Y-99708295D01*
X110889334Y-99708295D02*
X110821990Y-99842982D01*
X110821990Y-99842982D02*
X110754647Y-99910326D01*
X110754647Y-99910326D02*
X110619960Y-99977669D01*
X110619960Y-99977669D02*
X110552616Y-99977669D01*
X110552616Y-99977669D02*
X110316914Y-99741967D01*
X110316914Y-99741967D02*
X110451601Y-99607280D01*
X109980196Y-100684776D02*
X110316914Y-100348058D01*
X110316914Y-100348058D02*
X109609807Y-99640952D01*
X109374105Y-100550089D02*
X109138402Y-100785791D01*
X109407776Y-101257196D02*
X109744494Y-100920478D01*
X109744494Y-100920478D02*
X109037387Y-100213372D01*
X109037387Y-100213372D02*
X108700670Y-100550089D01*
X146336725Y-30377819D02*
X146812915Y-30377819D01*
X146812915Y-30377819D02*
X146812915Y-29377819D01*
X146146248Y-29377819D02*
X145812915Y-30377819D01*
X145812915Y-30377819D02*
X145479582Y-29377819D01*
X145146248Y-29996866D02*
X144384344Y-29996866D01*
X144765296Y-30377819D02*
X144765296Y-29615914D01*
X142860534Y-30758771D02*
X142908153Y-30711152D01*
X142908153Y-30711152D02*
X143003391Y-30568295D01*
X143003391Y-30568295D02*
X143051010Y-30473057D01*
X143051010Y-30473057D02*
X143098629Y-30330200D01*
X143098629Y-30330200D02*
X143146248Y-30092104D01*
X143146248Y-30092104D02*
X143146248Y-29901628D01*
X143146248Y-29901628D02*
X143098629Y-29663533D01*
X143098629Y-29663533D02*
X143051010Y-29520676D01*
X143051010Y-29520676D02*
X143003391Y-29425438D01*
X143003391Y-29425438D02*
X142908153Y-29282580D01*
X142908153Y-29282580D02*
X142860534Y-29234961D01*
X142622438Y-29996866D02*
X142574819Y-29949247D01*
X142574819Y-29949247D02*
X142479581Y-29901628D01*
X142479581Y-29901628D02*
X142289105Y-29996866D01*
X142289105Y-29996866D02*
X142193867Y-29949247D01*
X142193867Y-29949247D02*
X142146248Y-29901628D01*
X141241486Y-30377819D02*
X141812914Y-30377819D01*
X141527200Y-30377819D02*
X141527200Y-29377819D01*
X141527200Y-29377819D02*
X141622438Y-29520676D01*
X141622438Y-29520676D02*
X141717676Y-29615914D01*
X141717676Y-29615914D02*
X141812914Y-29663533D01*
X140860533Y-29473057D02*
X140812914Y-29425438D01*
X140812914Y-29425438D02*
X140717676Y-29377819D01*
X140717676Y-29377819D02*
X140479581Y-29377819D01*
X140479581Y-29377819D02*
X140384343Y-29425438D01*
X140384343Y-29425438D02*
X140336724Y-29473057D01*
X140336724Y-29473057D02*
X140289105Y-29568295D01*
X140289105Y-29568295D02*
X140289105Y-29663533D01*
X140289105Y-29663533D02*
X140336724Y-29806390D01*
X140336724Y-29806390D02*
X140908152Y-30377819D01*
X140908152Y-30377819D02*
X140289105Y-30377819D01*
X140003390Y-29377819D02*
X139670057Y-30377819D01*
X139670057Y-30377819D02*
X139336724Y-29377819D01*
X139098628Y-30758771D02*
X139051009Y-30711152D01*
X139051009Y-30711152D02*
X138955771Y-30568295D01*
X138955771Y-30568295D02*
X138908152Y-30473057D01*
X138908152Y-30473057D02*
X138860533Y-30330200D01*
X138860533Y-30330200D02*
X138812914Y-30092104D01*
X138812914Y-30092104D02*
X138812914Y-29901628D01*
X138812914Y-29901628D02*
X138860533Y-29663533D01*
X138860533Y-29663533D02*
X138908152Y-29520676D01*
X138908152Y-29520676D02*
X138955771Y-29425438D01*
X138955771Y-29425438D02*
X139051009Y-29282580D01*
X139051009Y-29282580D02*
X139098628Y-29234961D01*
X145987487Y-87654819D02*
X146320820Y-87178628D01*
X146558915Y-87654819D02*
X146558915Y-86654819D01*
X146558915Y-86654819D02*
X146177963Y-86654819D01*
X146177963Y-86654819D02*
X146082725Y-86702438D01*
X146082725Y-86702438D02*
X146035106Y-86750057D01*
X146035106Y-86750057D02*
X145987487Y-86845295D01*
X145987487Y-86845295D02*
X145987487Y-86988152D01*
X145987487Y-86988152D02*
X146035106Y-87083390D01*
X146035106Y-87083390D02*
X146082725Y-87131009D01*
X146082725Y-87131009D02*
X146177963Y-87178628D01*
X146177963Y-87178628D02*
X146558915Y-87178628D01*
X145654153Y-86654819D02*
X144987487Y-87654819D01*
X144987487Y-86654819D02*
X145654153Y-87654819D01*
X144606534Y-87654819D02*
X144606534Y-86654819D01*
X144606534Y-86654819D02*
X144368439Y-86654819D01*
X144368439Y-86654819D02*
X144225582Y-86702438D01*
X144225582Y-86702438D02*
X144130344Y-86797676D01*
X144130344Y-86797676D02*
X144082725Y-86892914D01*
X144082725Y-86892914D02*
X144035106Y-87083390D01*
X144035106Y-87083390D02*
X144035106Y-87226247D01*
X144035106Y-87226247D02*
X144082725Y-87416723D01*
X144082725Y-87416723D02*
X144130344Y-87511961D01*
X144130344Y-87511961D02*
X144225582Y-87607200D01*
X144225582Y-87607200D02*
X144368439Y-87654819D01*
X144368439Y-87654819D02*
X144606534Y-87654819D01*
X146473172Y-84114819D02*
X145901744Y-84114819D01*
X146187458Y-85114819D02*
X146187458Y-84114819D01*
X145663648Y-84114819D02*
X144996982Y-85114819D01*
X144996982Y-84114819D02*
X145663648Y-85114819D01*
X144616029Y-85114819D02*
X144616029Y-84114819D01*
X144616029Y-84114819D02*
X144377934Y-84114819D01*
X144377934Y-84114819D02*
X144235077Y-84162438D01*
X144235077Y-84162438D02*
X144139839Y-84257676D01*
X144139839Y-84257676D02*
X144092220Y-84352914D01*
X144092220Y-84352914D02*
X144044601Y-84543390D01*
X144044601Y-84543390D02*
X144044601Y-84686247D01*
X144044601Y-84686247D02*
X144092220Y-84876723D01*
X144092220Y-84876723D02*
X144139839Y-84971961D01*
X144139839Y-84971961D02*
X144235077Y-85067200D01*
X144235077Y-85067200D02*
X144377934Y-85114819D01*
X144377934Y-85114819D02*
X144616029Y-85114819D01*
X145920782Y-74431009D02*
X145777925Y-74478628D01*
X145777925Y-74478628D02*
X145730306Y-74526247D01*
X145730306Y-74526247D02*
X145682687Y-74621485D01*
X145682687Y-74621485D02*
X145682687Y-74764342D01*
X145682687Y-74764342D02*
X145730306Y-74859580D01*
X145730306Y-74859580D02*
X145777925Y-74907200D01*
X145777925Y-74907200D02*
X145873163Y-74954819D01*
X145873163Y-74954819D02*
X146254115Y-74954819D01*
X146254115Y-74954819D02*
X146254115Y-73954819D01*
X146254115Y-73954819D02*
X145920782Y-73954819D01*
X145920782Y-73954819D02*
X145825544Y-74002438D01*
X145825544Y-74002438D02*
X145777925Y-74050057D01*
X145777925Y-74050057D02*
X145730306Y-74145295D01*
X145730306Y-74145295D02*
X145730306Y-74240533D01*
X145730306Y-74240533D02*
X145777925Y-74335771D01*
X145777925Y-74335771D02*
X145825544Y-74383390D01*
X145825544Y-74383390D02*
X145920782Y-74431009D01*
X145920782Y-74431009D02*
X146254115Y-74431009D01*
X145301734Y-74907200D02*
X145158877Y-74954819D01*
X145158877Y-74954819D02*
X144920782Y-74954819D01*
X144920782Y-74954819D02*
X144825544Y-74907200D01*
X144825544Y-74907200D02*
X144777925Y-74859580D01*
X144777925Y-74859580D02*
X144730306Y-74764342D01*
X144730306Y-74764342D02*
X144730306Y-74669104D01*
X144730306Y-74669104D02*
X144777925Y-74573866D01*
X144777925Y-74573866D02*
X144825544Y-74526247D01*
X144825544Y-74526247D02*
X144920782Y-74478628D01*
X144920782Y-74478628D02*
X145111258Y-74431009D01*
X145111258Y-74431009D02*
X145206496Y-74383390D01*
X145206496Y-74383390D02*
X145254115Y-74335771D01*
X145254115Y-74335771D02*
X145301734Y-74240533D01*
X145301734Y-74240533D02*
X145301734Y-74145295D01*
X145301734Y-74145295D02*
X145254115Y-74050057D01*
X145254115Y-74050057D02*
X145206496Y-74002438D01*
X145206496Y-74002438D02*
X145111258Y-73954819D01*
X145111258Y-73954819D02*
X144873163Y-73954819D01*
X144873163Y-73954819D02*
X144730306Y-74002438D01*
X143825544Y-74954819D02*
X144301734Y-74954819D01*
X144301734Y-74954819D02*
X144301734Y-73954819D01*
X119966334Y-85663700D02*
X119823477Y-85711319D01*
X119823477Y-85711319D02*
X119585382Y-85711319D01*
X119585382Y-85711319D02*
X119490144Y-85663700D01*
X119490144Y-85663700D02*
X119442525Y-85616080D01*
X119442525Y-85616080D02*
X119394906Y-85520842D01*
X119394906Y-85520842D02*
X119394906Y-85425604D01*
X119394906Y-85425604D02*
X119442525Y-85330366D01*
X119442525Y-85330366D02*
X119490144Y-85282747D01*
X119490144Y-85282747D02*
X119585382Y-85235128D01*
X119585382Y-85235128D02*
X119775858Y-85187509D01*
X119775858Y-85187509D02*
X119871096Y-85139890D01*
X119871096Y-85139890D02*
X119918715Y-85092271D01*
X119918715Y-85092271D02*
X119966334Y-84997033D01*
X119966334Y-84997033D02*
X119966334Y-84901795D01*
X119966334Y-84901795D02*
X119918715Y-84806557D01*
X119918715Y-84806557D02*
X119871096Y-84758938D01*
X119871096Y-84758938D02*
X119775858Y-84711319D01*
X119775858Y-84711319D02*
X119537763Y-84711319D01*
X119537763Y-84711319D02*
X119394906Y-84758938D01*
X118966334Y-85187509D02*
X118633001Y-85187509D01*
X118490144Y-85711319D02*
X118966334Y-85711319D01*
X118966334Y-85711319D02*
X118966334Y-84711319D01*
X118966334Y-84711319D02*
X118490144Y-84711319D01*
X118061572Y-85711319D02*
X118061572Y-84711319D01*
X118061572Y-84711319D02*
X117490144Y-85711319D01*
X117490144Y-85711319D02*
X117490144Y-84711319D01*
X117061572Y-85663700D02*
X116918715Y-85711319D01*
X116918715Y-85711319D02*
X116680620Y-85711319D01*
X116680620Y-85711319D02*
X116585382Y-85663700D01*
X116585382Y-85663700D02*
X116537763Y-85616080D01*
X116537763Y-85616080D02*
X116490144Y-85520842D01*
X116490144Y-85520842D02*
X116490144Y-85425604D01*
X116490144Y-85425604D02*
X116537763Y-85330366D01*
X116537763Y-85330366D02*
X116585382Y-85282747D01*
X116585382Y-85282747D02*
X116680620Y-85235128D01*
X116680620Y-85235128D02*
X116871096Y-85187509D01*
X116871096Y-85187509D02*
X116966334Y-85139890D01*
X116966334Y-85139890D02*
X117013953Y-85092271D01*
X117013953Y-85092271D02*
X117061572Y-84997033D01*
X117061572Y-84997033D02*
X117061572Y-84901795D01*
X117061572Y-84901795D02*
X117013953Y-84806557D01*
X117013953Y-84806557D02*
X116966334Y-84758938D01*
X116966334Y-84758938D02*
X116871096Y-84711319D01*
X116871096Y-84711319D02*
X116633001Y-84711319D01*
X116633001Y-84711319D02*
X116490144Y-84758938D01*
X115871096Y-84711319D02*
X115680620Y-84711319D01*
X115680620Y-84711319D02*
X115585382Y-84758938D01*
X115585382Y-84758938D02*
X115490144Y-84854176D01*
X115490144Y-84854176D02*
X115442525Y-85044652D01*
X115442525Y-85044652D02*
X115442525Y-85377985D01*
X115442525Y-85377985D02*
X115490144Y-85568461D01*
X115490144Y-85568461D02*
X115585382Y-85663700D01*
X115585382Y-85663700D02*
X115680620Y-85711319D01*
X115680620Y-85711319D02*
X115871096Y-85711319D01*
X115871096Y-85711319D02*
X115966334Y-85663700D01*
X115966334Y-85663700D02*
X116061572Y-85568461D01*
X116061572Y-85568461D02*
X116109191Y-85377985D01*
X116109191Y-85377985D02*
X116109191Y-85044652D01*
X116109191Y-85044652D02*
X116061572Y-84854176D01*
X116061572Y-84854176D02*
X115966334Y-84758938D01*
X115966334Y-84758938D02*
X115871096Y-84711319D01*
X114442525Y-85711319D02*
X114775858Y-85235128D01*
X115013953Y-85711319D02*
X115013953Y-84711319D01*
X115013953Y-84711319D02*
X114633001Y-84711319D01*
X114633001Y-84711319D02*
X114537763Y-84758938D01*
X114537763Y-84758938D02*
X114490144Y-84806557D01*
X114490144Y-84806557D02*
X114442525Y-84901795D01*
X114442525Y-84901795D02*
X114442525Y-85044652D01*
X114442525Y-85044652D02*
X114490144Y-85139890D01*
X114490144Y-85139890D02*
X114537763Y-85187509D01*
X114537763Y-85187509D02*
X114633001Y-85235128D01*
X114633001Y-85235128D02*
X115013953Y-85235128D01*
X146635115Y-33883019D02*
X146635115Y-32883019D01*
X146635115Y-32883019D02*
X146301782Y-33597304D01*
X146301782Y-33597304D02*
X145968449Y-32883019D01*
X145968449Y-32883019D02*
X145968449Y-33883019D01*
X145492258Y-33502066D02*
X144730354Y-33502066D01*
X146038287Y-82524019D02*
X146371620Y-82047828D01*
X146609715Y-82524019D02*
X146609715Y-81524019D01*
X146609715Y-81524019D02*
X146228763Y-81524019D01*
X146228763Y-81524019D02*
X146133525Y-81571638D01*
X146133525Y-81571638D02*
X146085906Y-81619257D01*
X146085906Y-81619257D02*
X146038287Y-81714495D01*
X146038287Y-81714495D02*
X146038287Y-81857352D01*
X146038287Y-81857352D02*
X146085906Y-81952590D01*
X146085906Y-81952590D02*
X146133525Y-82000209D01*
X146133525Y-82000209D02*
X146228763Y-82047828D01*
X146228763Y-82047828D02*
X146609715Y-82047828D01*
X145609715Y-82000209D02*
X145276382Y-82000209D01*
X145133525Y-82524019D02*
X145609715Y-82524019D01*
X145609715Y-82524019D02*
X145609715Y-81524019D01*
X145609715Y-81524019D02*
X145133525Y-81524019D01*
X144752572Y-82476400D02*
X144609715Y-82524019D01*
X144609715Y-82524019D02*
X144371620Y-82524019D01*
X144371620Y-82524019D02*
X144276382Y-82476400D01*
X144276382Y-82476400D02*
X144228763Y-82428780D01*
X144228763Y-82428780D02*
X144181144Y-82333542D01*
X144181144Y-82333542D02*
X144181144Y-82238304D01*
X144181144Y-82238304D02*
X144228763Y-82143066D01*
X144228763Y-82143066D02*
X144276382Y-82095447D01*
X144276382Y-82095447D02*
X144371620Y-82047828D01*
X144371620Y-82047828D02*
X144562096Y-82000209D01*
X144562096Y-82000209D02*
X144657334Y-81952590D01*
X144657334Y-81952590D02*
X144704953Y-81904971D01*
X144704953Y-81904971D02*
X144752572Y-81809733D01*
X144752572Y-81809733D02*
X144752572Y-81714495D01*
X144752572Y-81714495D02*
X144704953Y-81619257D01*
X144704953Y-81619257D02*
X144657334Y-81571638D01*
X144657334Y-81571638D02*
X144562096Y-81524019D01*
X144562096Y-81524019D02*
X144324001Y-81524019D01*
X144324001Y-81524019D02*
X144181144Y-81571638D01*
X143752572Y-82000209D02*
X143419239Y-82000209D01*
X143276382Y-82524019D02*
X143752572Y-82524019D01*
X143752572Y-82524019D02*
X143752572Y-81524019D01*
X143752572Y-81524019D02*
X143276382Y-81524019D01*
X142990667Y-81524019D02*
X142419239Y-81524019D01*
X142704953Y-82524019D02*
X142704953Y-81524019D01*
X111795906Y-86219838D02*
X111891144Y-86172219D01*
X111891144Y-86172219D02*
X112034001Y-86172219D01*
X112034001Y-86172219D02*
X112176858Y-86219838D01*
X112176858Y-86219838D02*
X112272096Y-86315076D01*
X112272096Y-86315076D02*
X112319715Y-86410314D01*
X112319715Y-86410314D02*
X112367334Y-86600790D01*
X112367334Y-86600790D02*
X112367334Y-86743647D01*
X112367334Y-86743647D02*
X112319715Y-86934123D01*
X112319715Y-86934123D02*
X112272096Y-87029361D01*
X112272096Y-87029361D02*
X112176858Y-87124600D01*
X112176858Y-87124600D02*
X112034001Y-87172219D01*
X112034001Y-87172219D02*
X111938763Y-87172219D01*
X111938763Y-87172219D02*
X111795906Y-87124600D01*
X111795906Y-87124600D02*
X111748287Y-87076980D01*
X111748287Y-87076980D02*
X111748287Y-86743647D01*
X111748287Y-86743647D02*
X111938763Y-86743647D01*
X111319715Y-87172219D02*
X111319715Y-86172219D01*
X111319715Y-86172219D02*
X110748287Y-87172219D01*
X110748287Y-87172219D02*
X110748287Y-86172219D01*
X110272096Y-87172219D02*
X110272096Y-86172219D01*
X110272096Y-86172219D02*
X110034001Y-86172219D01*
X110034001Y-86172219D02*
X109891144Y-86219838D01*
X109891144Y-86219838D02*
X109795906Y-86315076D01*
X109795906Y-86315076D02*
X109748287Y-86410314D01*
X109748287Y-86410314D02*
X109700668Y-86600790D01*
X109700668Y-86600790D02*
X109700668Y-86743647D01*
X109700668Y-86743647D02*
X109748287Y-86934123D01*
X109748287Y-86934123D02*
X109795906Y-87029361D01*
X109795906Y-87029361D02*
X109891144Y-87124600D01*
X109891144Y-87124600D02*
X110034001Y-87172219D01*
X110034001Y-87172219D02*
X110272096Y-87172219D01*
X149540306Y-96735438D02*
X149635544Y-96687819D01*
X149635544Y-96687819D02*
X149778401Y-96687819D01*
X149778401Y-96687819D02*
X149921258Y-96735438D01*
X149921258Y-96735438D02*
X150016496Y-96830676D01*
X150016496Y-96830676D02*
X150064115Y-96925914D01*
X150064115Y-96925914D02*
X150111734Y-97116390D01*
X150111734Y-97116390D02*
X150111734Y-97259247D01*
X150111734Y-97259247D02*
X150064115Y-97449723D01*
X150064115Y-97449723D02*
X150016496Y-97544961D01*
X150016496Y-97544961D02*
X149921258Y-97640200D01*
X149921258Y-97640200D02*
X149778401Y-97687819D01*
X149778401Y-97687819D02*
X149683163Y-97687819D01*
X149683163Y-97687819D02*
X149540306Y-97640200D01*
X149540306Y-97640200D02*
X149492687Y-97592580D01*
X149492687Y-97592580D02*
X149492687Y-97259247D01*
X149492687Y-97259247D02*
X149683163Y-97259247D01*
X149064115Y-97687819D02*
X149064115Y-96687819D01*
X149064115Y-96687819D02*
X148492687Y-97687819D01*
X148492687Y-97687819D02*
X148492687Y-96687819D01*
X148016496Y-97687819D02*
X148016496Y-96687819D01*
X148016496Y-96687819D02*
X147778401Y-96687819D01*
X147778401Y-96687819D02*
X147635544Y-96735438D01*
X147635544Y-96735438D02*
X147540306Y-96830676D01*
X147540306Y-96830676D02*
X147492687Y-96925914D01*
X147492687Y-96925914D02*
X147445068Y-97116390D01*
X147445068Y-97116390D02*
X147445068Y-97259247D01*
X147445068Y-97259247D02*
X147492687Y-97449723D01*
X147492687Y-97449723D02*
X147540306Y-97544961D01*
X147540306Y-97544961D02*
X147635544Y-97640200D01*
X147635544Y-97640200D02*
X147778401Y-97687819D01*
X147778401Y-97687819D02*
X148016496Y-97687819D01*
D11*
X137808702Y-38660871D02*
X137808702Y-37660871D01*
X137808702Y-37660871D02*
X137570607Y-37660871D01*
X137570607Y-37660871D02*
X137427750Y-37708490D01*
X137427750Y-37708490D02*
X137332512Y-37803728D01*
X137332512Y-37803728D02*
X137284893Y-37898966D01*
X137284893Y-37898966D02*
X137237274Y-38089442D01*
X137237274Y-38089442D02*
X137237274Y-38232299D01*
X137237274Y-38232299D02*
X137284893Y-38422775D01*
X137284893Y-38422775D02*
X137332512Y-38518013D01*
X137332512Y-38518013D02*
X137427750Y-38613252D01*
X137427750Y-38613252D02*
X137570607Y-38660871D01*
X137570607Y-38660871D02*
X137808702Y-38660871D01*
X136903940Y-37660871D02*
X136237274Y-37660871D01*
X136237274Y-37660871D02*
X136665845Y-38660871D01*
X118568694Y-38510871D02*
X118568694Y-37510871D01*
X118568694Y-37510871D02*
X118330599Y-37510871D01*
X118330599Y-37510871D02*
X118187742Y-37558490D01*
X118187742Y-37558490D02*
X118092504Y-37653728D01*
X118092504Y-37653728D02*
X118044885Y-37748966D01*
X118044885Y-37748966D02*
X117997266Y-37939442D01*
X117997266Y-37939442D02*
X117997266Y-38082299D01*
X117997266Y-38082299D02*
X118044885Y-38272775D01*
X118044885Y-38272775D02*
X118092504Y-38368013D01*
X118092504Y-38368013D02*
X118187742Y-38463252D01*
X118187742Y-38463252D02*
X118330599Y-38510871D01*
X118330599Y-38510871D02*
X118568694Y-38510871D01*
X117140123Y-37510871D02*
X117330599Y-37510871D01*
X117330599Y-37510871D02*
X117425837Y-37558490D01*
X117425837Y-37558490D02*
X117473456Y-37606109D01*
X117473456Y-37606109D02*
X117568694Y-37748966D01*
X117568694Y-37748966D02*
X117616313Y-37939442D01*
X117616313Y-37939442D02*
X117616313Y-38320394D01*
X117616313Y-38320394D02*
X117568694Y-38415632D01*
X117568694Y-38415632D02*
X117521075Y-38463252D01*
X117521075Y-38463252D02*
X117425837Y-38510871D01*
X117425837Y-38510871D02*
X117235361Y-38510871D01*
X117235361Y-38510871D02*
X117140123Y-38463252D01*
X117140123Y-38463252D02*
X117092504Y-38415632D01*
X117092504Y-38415632D02*
X117044885Y-38320394D01*
X117044885Y-38320394D02*
X117044885Y-38082299D01*
X117044885Y-38082299D02*
X117092504Y-37987061D01*
X117092504Y-37987061D02*
X117140123Y-37939442D01*
X117140123Y-37939442D02*
X117235361Y-37891823D01*
X117235361Y-37891823D02*
X117425837Y-37891823D01*
X117425837Y-37891823D02*
X117521075Y-37939442D01*
X117521075Y-37939442D02*
X117568694Y-37987061D01*
X117568694Y-37987061D02*
X117616313Y-38082299D01*
D12*
%TO.C,D7*%
X129020608Y-45166052D02*
X129020609Y-33856052D01*
X129020608Y-45166052D02*
X135520610Y-45166052D01*
X135520610Y-45166052D02*
X135520609Y-33856052D01*
%TO.C,D6*%
X118820607Y-31146051D02*
X118820608Y-42456052D01*
X125320609Y-31146052D02*
X118820607Y-31146051D01*
X125320609Y-31146052D02*
X125320608Y-42456052D01*
%TD*%
M02*
